<svg width="335" height="96" viewBox="0 0 335 96" fill="none" xmlns="http://www.w3.org/2000/svg">
<rect width="335" height="96" rx="12" fill="#F3F6F3"/>
<path d="M29.0195 33.7656H19.3574V32.7168H29.0195V33.7656ZM27.9473 31.7559H20.5469V30.7012H27.9473V31.7559ZM27.8418 28.9082H21.8418V31.082H20.5469V27.8652H27.8418V28.9082ZM28.0059 37.8262H20.5469V36.7656H28.0059V37.8262ZM21.8301 37.0469H20.5469V34.6914H21.8301V37.0469ZM39.3906 33.7656H29.7285V32.7168H39.3906V33.7656ZM38.3184 31.7559H30.918V30.7012H38.3184V31.7559ZM38.2129 28.9082H32.2129V31.082H30.918V27.8652H38.2129V28.9082ZM38.377 37.8262H30.918V36.7656H38.377V37.8262ZM32.2012 37.0469H30.918V34.6914H32.2012V37.0469ZM48.4492 35.377H47.1484V27.4609H48.4492V35.377ZM49.9316 31.8613H48.0625V30.7891H49.9316V31.8613ZM46.3867 29.6699H40.0996V28.6328H46.3867V29.6699ZM43.2461 30.1094C43.75 30.1094 44.1973 30.1934 44.5879 30.3613C44.9824 30.5293 45.2871 30.7676 45.502 31.0762C45.7207 31.3809 45.832 31.7344 45.8359 32.1367C45.832 32.5352 45.7207 32.8867 45.502 33.1914C45.2871 33.4922 44.9824 33.7246 44.5879 33.8887C44.1973 34.0527 43.75 34.1348 43.2461 34.1348C42.7383 34.1348 42.2871 34.0527 41.8926 33.8887C41.502 33.7246 41.1973 33.4922 40.9785 33.1914C40.7598 32.8867 40.6504 32.5352 40.6504 32.1367C40.6504 31.7344 40.7598 31.3809 40.9785 31.0762C41.1973 30.7676 41.502 30.5293 41.8926 30.3613C42.2871 30.1934 42.7383 30.1094 43.2461 30.1094ZM43.2461 31.1172C42.9805 31.1172 42.7461 31.1562 42.543 31.2344C42.3398 31.3125 42.1836 31.4297 42.0742 31.5859C41.9648 31.7422 41.9102 31.9258 41.9102 32.1367C41.9102 32.3477 41.9648 32.5273 42.0742 32.6758C42.1836 32.8242 42.3398 32.9395 42.543 33.0215C42.7461 33.0996 42.9805 33.1367 43.2461 33.1328C43.5117 33.1367 43.7461 33.0996 43.9492 33.0215C44.1562 32.9395 44.3164 32.8242 44.4297 32.6758C44.543 32.5273 44.5996 32.3477 44.5996 32.1367C44.5996 31.9258 44.543 31.7422 44.4297 31.5859C44.3164 31.4297 44.1562 31.3125 43.9492 31.2344C43.7461 31.1562 43.5117 31.1172 43.2461 31.1172ZM43.9023 29.1484H42.5957V27.4551H43.9023V29.1484ZM48.8652 37.8438H41.6641V36.7773H48.8652V37.8438ZM42.959 37.2227H41.6641V34.7559H42.959V37.2227ZM63.0098 36.7656H53.3301V35.6992H63.0098V36.7656ZM58.7852 35.9805H57.502V33.3203H58.7852V35.9805ZM55.6973 29.8867H60.6016V28.1523H61.8965V33.6309H54.3906V28.1523H55.6973V29.8867ZM60.6016 32.5879V30.9238H55.6973V32.5879H60.6016ZM67.2461 29.3652C67.2461 30.0371 67.1309 30.666 66.9004 31.252C66.6699 31.834 66.3281 32.3418 65.875 32.7754C65.4258 33.2051 64.8809 33.5273 64.2402 33.7422L63.5781 32.7051C64.1328 32.5254 64.6055 32.2637 64.9961 31.9199C65.3906 31.5762 65.6875 31.1855 65.8867 30.748C66.0859 30.3066 66.1855 29.8457 66.1855 29.3652V28.6152H67.2461V29.3652ZM67.498 29.3594C67.4941 29.8008 67.5859 30.2188 67.7734 30.6133C67.9648 31.0078 68.2461 31.3594 68.6172 31.668C68.9922 31.9766 69.4473 32.2129 69.9824 32.377L69.3672 33.4023C68.7383 33.2031 68.2051 32.9043 67.7676 32.5059C67.3301 32.1074 66.998 31.6406 66.7715 31.1055C66.5449 30.5664 66.4316 29.9844 66.4316 29.3594V28.6152H67.498V29.3594ZM69.6953 29.2363H63.9473V28.1875H69.6953V29.2363ZM72.0508 33.7656H70.75V27.4492H72.0508V33.7656ZM73.5332 31.0586H71.6816V29.9863H73.5332V31.0586ZM68.6055 34C69.3359 34 69.9668 34.0781 70.498 34.2344C71.0332 34.3906 71.4414 34.6211 71.7227 34.9258C72.0078 35.2266 72.1504 35.5859 72.1504 36.0039C72.1504 36.4258 72.0078 36.7871 71.7227 37.0879C71.4414 37.3926 71.0332 37.625 70.498 37.7852C69.9668 37.9453 69.3359 38.0254 68.6055 38.0254C67.8711 38.0254 67.2324 37.9453 66.6895 37.7852C66.1504 37.625 65.7363 37.3926 65.4473 37.0879C65.1582 36.7871 65.0137 36.4258 65.0137 36.0039C65.0137 35.5859 65.1582 35.2266 65.4473 34.9258C65.7363 34.6211 66.1504 34.3906 66.6895 34.2344C67.2324 34.0781 67.8711 34 68.6055 34ZM68.6055 35.0195C68.1211 35.0195 67.707 35.0566 67.3633 35.1309C67.0234 35.2051 66.7637 35.3164 66.584 35.4648C66.4082 35.6133 66.3223 35.793 66.3262 36.0039C66.3223 36.2188 66.4082 36.4023 66.584 36.5547C66.7637 36.7031 67.0234 36.8164 67.3633 36.8945C67.707 36.9688 68.1211 37.0059 68.6055 37.0059C69.0898 37.0059 69.5 36.9688 69.8359 36.8945C70.1758 36.8164 70.4316 36.7031 70.6035 36.5547C70.7793 36.4023 70.8672 36.2188 70.8672 36.0039C70.8672 35.793 70.7793 35.6133 70.6035 35.4648C70.4316 35.3164 70.1758 35.2051 69.8359 35.1309C69.5 35.0566 69.0898 35.0195 68.6055 35.0195ZM75.1504 39.4492H74.0371L74.6406 36.1621H76.1348L75.1504 39.4492Z" fill="#7A9B79"/>
<rect x="19" y="59" width="63" height="12" fill="#C1D1C1"/>
<g clip-path="url(#clip0_63_11262)">
<path opacity="0.4" d="M346.499 76.4998L312.45 40.708L233.754 80.4284L270.499 115.5L332.499 108.5L346.499 76.4998Z" fill="#806D27"/>
<rect x="235" y="18" width="45" height="62" rx="2" fill="url(#paint0_linear_63_11262)"/>
<rect x="235" y="18" width="45" height="62" rx="2" fill="url(#paint1_linear_63_11262)"/>
<rect x="235" y="18" width="45" height="62" rx="2" fill="url(#paint2_linear_63_11262)"/>
<rect x="235" y="18" width="45" height="62" rx="2" fill="url(#paint3_linear_63_11262)"/>
<rect x="235" y="18" width="45" height="62" rx="2" stroke="#E8C746" stroke-width="4"/>
<rect x="235" y="18" width="45" height="62" rx="2" stroke="url(#paint4_linear_63_11262)" stroke-width="4"/>
<rect x="235" y="18" width="45" height="62" rx="2" stroke="url(#paint5_linear_63_11262)" stroke-width="4"/>
<rect x="240" y="30" width="36" height="3" rx="1.5" fill="#C1D1C1"/>
<rect x="240" y="37" width="36" height="3" rx="1.5" fill="#C1D1C1"/>
<rect x="240" y="44" width="36" height="3" rx="1.5" fill="#C1D1C1"/>
<rect x="240" y="51" width="36" height="3" rx="1.5" fill="#C1D1C1"/>
<path d="M240 59.5C240 58.6716 240.672 58 241.5 58H244.5C245.328 58 246 58.6716 246 59.5C246 60.3284 245.328 61 244.5 61H241.5C240.672 61 240 60.3284 240 59.5Z" fill="#C1D1C1"/>
<path d="M240 66.5C240 65.6716 240.672 65 241.5 65H244.5C245.328 65 246 65.6716 246 66.5C246 67.3284 245.328 68 244.5 68H241.5C240.672 68 240 67.3284 240 66.5Z" fill="#C1D1C1"/>
<path d="M249 59.5C249 58.6716 249.672 58 250.5 58H274.5C275.328 58 276 58.6716 276 59.5C276 60.3284 275.328 61 274.5 61H250.5C249.672 61 249 60.3284 249 59.5Z" fill="#C1D1C1"/>
<path d="M249 66.5C249 65.6716 249.672 65 250.5 65H274.5C275.328 65 276 65.6716 276 66.5C276 67.3284 275.328 68 274.5 68H250.5C249.672 68 249 67.3284 249 66.5Z" fill="#C1D1C1"/>
<path d="M237 20H278V24H237V20Z" fill="#3E523E"/>
<path d="M245 19H270V23C270 24.1046 269.105 25 268 25H247C245.895 25 245 24.1046 245 23V19Z" fill="#3E523E"/>
<g filter="url(#filter0_i_63_11262)">
<path d="M289.411 32.7069C290.073 32.2771 290.927 32.2771 291.589 32.7069C297.304 36.4162 303.706 38.9442 310.413 40.1391L311.351 40.3062C312.305 40.4762 313 41.3059 313 42.2752V58.5811C313 63.0422 311.117 67.2961 307.816 70.296C303.779 73.9636 299.44 77.2839 294.845 80.2218L291.577 82.3112C290.921 82.7311 290.079 82.7311 289.423 82.3112L286.155 80.2218C281.56 77.2839 277.221 73.9636 273.184 70.296C269.883 67.2961 268 63.0422 268 58.5811L268 42.2752C268 41.3059 268.695 40.4762 269.649 40.3062L270.587 40.1391C277.294 38.9442 283.696 36.4162 289.411 32.7069Z" fill="url(#paint6_linear_63_11262)"/>
</g>
<path d="M290.5 33.2802C296.269 38.048 303.147 41.285 310.5 42.6904V58.5811C310.5 62.3376 308.915 65.9196 306.135 68.4457C302.202 72.0187 297.975 75.2534 293.499 78.1155L290.5 80.0327L287.501 78.1155C283.025 75.2534 278.798 72.0187 274.865 68.4457C272.085 65.9196 270.5 62.3376 270.5 58.5811V42.6904C277.853 41.285 284.731 38.048 290.5 33.2802ZM290.769 80.2049L290.768 80.2043L290.769 80.2049Z" stroke="url(#paint7_linear_63_11262)" stroke-width="5"/>
<path d="M283.707 63.541L296.789 50.4595" stroke="#C1D1C1" stroke-width="4" stroke-linecap="round" stroke-linejoin="round"/>
<circle cx="284.768" cy="51.166" r="3" transform="rotate(-45 284.768 51.166)" fill="#C1D1C1"/>
<circle cx="296.082" cy="62.4805" r="3" transform="rotate(-45 296.082 62.4805)" fill="#C1D1C1"/>
<path fill-rule="evenodd" clip-rule="evenodd" d="M253 11C251.895 11 251 11.8954 251 13V14H247C245.895 14 245 14.8954 245 16V20C245 21.1046 245.895 22 247 22H268C269.105 22 270 21.1046 270 20V16C270 14.8954 269.105 14 268 14H264V13C264 11.8954 263.105 11 262 11H253Z" fill="#7A9B79"/>
<rect opacity="0.2" x="224" y="22" width="3" height="6" transform="rotate(30 224 22)" fill="#61541D"/>
<rect opacity="0.4" x="242" y="16.7764" width="3" height="6" transform="rotate(-15 242 16.7764)" fill="#61541D"/>
<rect opacity="0.6" x="276" y="8.77637" width="3" height="6" transform="rotate(-15 276 8.77637)" fill="#61541D"/>
<rect opacity="0.5" x="301" y="21" width="3" height="6" transform="rotate(30 301 21)" fill="#61541D"/>
<rect opacity="0.4" x="215" y="65.5" width="3" height="6" transform="rotate(-30 215 65.5)" fill="#61541D"/>
<rect opacity="0.4" x="239" y="83" width="3" height="6" transform="rotate(30 239 83)" fill="#61541D"/>
<rect opacity="0.3" x="305" y="61.7764" width="3" height="6" transform="rotate(-15 305 61.7764)" fill="#61541D"/>
</g>
<path d="M37.6562 69.2148H34.6562V47.8047H37.6562V69.2148ZM35.3945 57.6953H30.8242V55.2695H35.3945V57.6953ZM27.0039 53.1719C26.9961 54.9453 26.7734 56.6211 26.3359 58.1992C25.8984 59.7695 25.2305 61.1719 24.332 62.4062C23.4414 63.6328 22.3555 64.5625 21.0742 65.1953L19.293 62.8398C20.4492 62.3086 21.4258 61.5391 22.2227 60.5312C23.0273 59.5156 23.6289 58.3789 24.0273 57.1211C24.4258 55.8633 24.625 54.5469 24.625 53.1719V51.1445H27.0039V53.1719ZM27.6836 53.1719C27.6836 54.4766 27.8828 55.7344 28.2812 56.9453C28.6797 58.1484 29.2773 59.2344 30.0742 60.2031C30.8789 61.1641 31.8594 61.8945 33.0156 62.3945L31.2695 64.7617C29.9648 64.1523 28.8672 63.2578 27.9766 62.0781C27.0938 60.8984 26.4336 59.5508 25.9961 58.0352C25.5586 56.5195 25.3359 54.8984 25.3281 53.1719V51.1445H27.6836V53.1719ZM32.125 52.2812H20.1953V49.8906H32.125V52.2812ZM58.3516 68.9102H43.9492V61.293H58.3516V68.9102ZM46.9141 66.5547H55.3867V63.625H46.9141V66.5547ZM58.3516 60.3789H55.375V47.8516H58.3516V60.3789ZM55.9258 52.9258H51.8477V50.5234H55.9258V52.9258ZM42.8242 57.4258C45.082 57.4258 46.7969 57.3984 47.9688 57.3438C49.1406 57.2891 50.2969 57.1758 51.4375 57.0039L51.6719 59.3594C50.5234 59.5625 49.3555 59.6914 48.168 59.7461C46.9883 59.793 45.207 59.8125 42.8242 59.8047H41.207V57.4258H42.8242ZM50.6055 55.3398H44.1719V59.2656H41.207V53.1016H47.6289V51.1914H41.1719V48.8008H50.6055V55.3398ZM55.9258 57.3086H51.8477V54.918H55.9258V57.3086ZM78.0391 63.7773H75.0508V47.8516H78.0391V63.7773ZM80.9219 56.8281H77.1719V54.3789H80.9219V56.8281ZM73.7734 52.4336H61.1055V50.0781H73.7734V52.4336ZM67.457 53.1836C68.4727 53.1836 69.3789 53.3594 70.1758 53.7109C70.9727 54.0547 71.5938 54.5391 72.0391 55.1641C72.4844 55.7891 72.707 56.5078 72.707 57.3203C72.707 58.125 72.4844 58.8359 72.0391 59.4531C71.5938 60.0703 70.9727 60.5508 70.1758 60.8945C69.3789 61.2305 68.4727 61.3984 67.457 61.3984C66.4258 61.3984 65.5078 61.2305 64.7031 60.8945C63.9062 60.5508 63.2812 60.0703 62.8281 59.4531C62.3828 58.8359 62.1602 58.125 62.1602 57.3203C62.1602 56.5078 62.3828 55.7891 62.8281 55.1641C63.2812 54.5391 63.9062 54.0547 64.7031 53.7109C65.5078 53.3594 66.4258 53.1836 67.457 53.1836ZM67.457 55.4805C66.9727 55.4805 66.5508 55.5508 66.1914 55.6914C65.832 55.832 65.5547 56.043 65.3594 56.3242C65.1641 56.5977 65.0664 56.9297 65.0664 57.3203C65.0664 57.7031 65.1641 58.0312 65.3594 58.3047C65.5547 58.5703 65.832 58.7734 66.1914 58.9141C66.5508 59.0547 66.9727 59.125 67.457 59.125C67.9336 59.125 68.3516 59.0547 68.7109 58.9141C69.0781 58.7734 69.3633 58.5703 69.5664 58.3047C69.7695 58.0312 69.8711 57.7031 69.8711 57.3203C69.8711 56.9297 69.7695 56.5977 69.5664 56.3242C69.3633 56.043 69.0781 55.832 68.7109 55.6914C68.3516 55.5508 67.9336 55.4805 67.457 55.4805ZM68.9453 51.2383H65.957V47.8164H68.9453V51.2383ZM78.8008 68.793H64.1992V66.3789H78.8008V68.793ZM67.1875 67.4102H64.1992V62.5469H67.1875V67.4102Z" fill="#336032"/>
<path d="M100.551 66.8457H98.0508V49.0039H100.551V66.8457ZM103.188 57.6562H100.004V55.6152H103.188V57.6562ZM88.7344 60.4688C90.3424 60.4753 91.7682 60.4362 93.0117 60.3516C94.2552 60.2669 95.5085 60.1172 96.7715 59.9023L97.0449 61.9922C95.7624 62.207 94.4896 62.3503 93.2266 62.4219C91.9701 62.4935 90.4727 62.526 88.7344 62.5195H87.2305V60.4688H88.7344ZM95.5703 52.6855H89.7207V61.4844H87.2305V50.6641H95.5703V52.6855ZM118.695 66.8457H116.166V49.0039H118.695V66.8457ZM109.037 50.2637C109.929 50.2637 110.73 50.5241 111.439 51.0449C112.156 51.5592 112.712 52.2982 113.109 53.2617C113.513 54.2188 113.715 55.332 113.715 56.6016C113.715 57.8776 113.513 58.9974 113.109 59.9609C112.712 60.918 112.156 61.6536 111.439 62.168C110.73 62.6823 109.929 62.9395 109.037 62.9395C108.132 62.946 107.322 62.6921 106.605 62.1777C105.896 61.6569 105.339 60.918 104.936 59.9609C104.532 58.9974 104.33 57.8776 104.33 56.6016C104.33 55.332 104.532 54.2188 104.936 53.2617C105.339 52.2982 105.896 51.5592 106.605 51.0449C107.322 50.5241 108.132 50.2637 109.037 50.2637ZM109.037 52.5195C108.575 52.513 108.168 52.6693 107.816 52.9883C107.471 53.3008 107.204 53.7663 107.016 54.3848C106.833 54.9967 106.745 55.7357 106.752 56.6016C106.745 57.4674 106.833 58.2064 107.016 58.8184C107.204 59.4303 107.471 59.8958 107.816 60.2148C108.168 60.5273 108.575 60.6836 109.037 60.6836C109.486 60.6836 109.883 60.5273 110.229 60.2148C110.574 59.8958 110.84 59.4303 111.029 58.8184C111.218 58.2064 111.312 57.4674 111.312 56.6016C111.312 55.7357 111.218 54.9967 111.029 54.3848C110.84 53.7728 110.574 53.3073 110.229 52.9883C109.883 52.6693 109.486 52.513 109.037 52.5195ZM136.371 66.7969H133.9V62.793H124.135V60.8105H136.371V66.7969ZM123.041 57.4902C124.382 57.4902 125.508 57.4609 126.42 57.4023C127.338 57.3372 128.282 57.2168 129.252 57.041L129.467 59.0234C128.503 59.1927 127.546 59.3066 126.596 59.3652C125.645 59.4238 124.46 59.4499 123.041 59.4434H121.82V57.4902H123.041ZM128.09 55.7129H124.232V58.7598H121.82V53.916H125.697V52.2949H121.791V50.332H128.09V55.7129ZM136.371 60.0879H133.998V49.043H136.371V60.0879ZM132.104 55.2637H128.725V53.2715H132.104V55.2637ZM132.738 59.9902H130.395V49.375H132.738V59.9902ZM152.875 60.1758H140.297V58.2129H152.875V60.1758ZM154.643 64.7266H138.393V62.7051H154.643V64.7266ZM152.738 52.3535H142.836V58.7402H140.297V50.3223H152.738V52.3535ZM152.318 56.1719H142.094V54.2285H152.318V56.1719ZM176.557 64.7266H160.307V62.7148H176.557V64.7266ZM169.623 63.2129H167.172V58.8574H169.623V63.2129ZM164.525 52.9199H172.27V50.1465H174.75V59.4141H162.025V50.1465H164.525V52.9199ZM172.27 57.4219V54.8926H164.525V57.4219H172.27ZM192.562 59.7656H190.082V49.0039H192.562V59.7656ZM191.098 56.2695H187.777V54.2383H191.098V56.2695ZM192.562 66.6016H180.619V60.5273H192.562V66.6016ZM183.109 64.5996H190.131V62.4805H183.109V64.5996ZM188.1 52.5586H177.621V50.5762H188.1V52.5586ZM182.875 53.1348C183.695 53.1348 184.428 53.2715 185.072 53.5449C185.723 53.8118 186.231 54.1895 186.596 54.6777C186.96 55.166 187.143 55.7194 187.143 56.3379C187.143 56.9694 186.96 57.526 186.596 58.0078C186.238 58.4896 185.733 58.8672 185.082 59.1406C184.431 59.4141 183.692 59.5508 182.865 59.5508C182.045 59.5508 181.312 59.4141 180.668 59.1406C180.023 58.8672 179.516 58.4896 179.145 58.0078C178.78 57.526 178.598 56.9694 178.598 56.3379C178.598 55.7194 178.78 55.166 179.145 54.6777C179.516 54.1895 180.023 53.8118 180.668 53.5449C181.319 53.2715 182.055 53.1348 182.875 53.1348ZM182.865 55.0098C182.481 55.0098 182.146 55.0618 181.859 55.166C181.579 55.2637 181.361 55.4134 181.205 55.6152C181.055 55.8171 180.98 56.0579 180.98 56.3379C180.98 56.6309 181.055 56.8783 181.205 57.0801C181.361 57.2819 181.579 57.4382 181.859 57.5488C182.146 57.653 182.481 57.7083 182.865 57.7148C183.249 57.7083 183.581 57.653 183.861 57.5488C184.141 57.4382 184.356 57.2819 184.506 57.0801C184.662 56.8783 184.74 56.6309 184.74 56.3379C184.74 56.0579 184.662 55.8171 184.506 55.6152C184.356 55.4134 184.141 55.2637 183.861 55.166C183.581 55.0618 183.249 55.0098 182.865 55.0098ZM184.096 52.0117H181.625V48.877H184.096V52.0117Z" fill="#60875F"/>
<defs>
<filter id="filter0_i_63_11262" x="268" y="32.3848" width="45" height="50.2412" filterUnits="userSpaceOnUse" color-interpolation-filters="sRGB">
<feFlood flood-opacity="0" result="BackgroundImageFix"/>
<feBlend mode="normal" in="SourceGraphic" in2="BackgroundImageFix" result="shape"/>
<feColorMatrix in="SourceAlpha" type="matrix" values="0 0 0 0 0 0 0 0 0 0 0 0 0 0 0 0 0 0 127 0" result="hardAlpha"/>
<feOffset dy="9"/>
<feComposite in2="hardAlpha" operator="arithmetic" k2="-1" k3="1"/>
<feColorMatrix type="matrix" values="0 0 0 0 0 0 0 0 0 0 0 0 0 0 0 0 0 0 0.2 0"/>
<feBlend mode="normal" in2="shape" result="effect1_innerShadow_63_11262"/>
</filter>
<linearGradient id="paint0_linear_63_11262" x1="257.5" y1="16" x2="257.5" y2="82" gradientUnits="userSpaceOnUse">
<stop stop-color="#386937"/>
<stop offset="1" stop-color="#2B4B2A"/>
</linearGradient>
<linearGradient id="paint1_linear_63_11262" x1="257.5" y1="16" x2="257.5" y2="82" gradientUnits="userSpaceOnUse">
<stop stop-color="#556F53"/>
<stop offset="1" stop-color="#374935"/>
</linearGradient>
<linearGradient id="paint2_linear_63_11262" x1="257.5" y1="16" x2="257.5" y2="82" gradientUnits="userSpaceOnUse">
<stop stop-color="#638261"/>
<stop offset="1" stop-color="#526A50"/>
</linearGradient>
<linearGradient id="paint3_linear_63_11262" x1="257.5" y1="16" x2="257.5" y2="82" gradientUnits="userSpaceOnUse">
<stop stop-color="#638261"/>
<stop offset="1" stop-color="#4A6148"/>
</linearGradient>
<linearGradient id="paint4_linear_63_11262" x1="257.5" y1="16" x2="257.5" y2="82" gradientUnits="userSpaceOnUse">
<stop stop-color="#5B7D5B"/>
<stop offset="1" stop-color="#386937"/>
</linearGradient>
<linearGradient id="paint5_linear_63_11262" x1="257.5" y1="16" x2="257.5" y2="82" gradientUnits="userSpaceOnUse">
<stop stop-color="#7A9B79"/>
<stop offset="1" stop-color="#596F58"/>
</linearGradient>
<linearGradient id="paint6_linear_63_11262" x1="290.5" y1="32" x2="290.5" y2="83" gradientUnits="userSpaceOnUse">
<stop stop-color="#638261"/>
<stop offset="1" stop-color="#4A6148"/>
</linearGradient>
<linearGradient id="paint7_linear_63_11262" x1="290.5" y1="30" x2="290.5" y2="83" gradientUnits="userSpaceOnUse">
<stop stop-color="#7A9B79"/>
<stop offset="1" stop-color="#596F58"/>
</linearGradient>
<clipPath id="clip0_63_11262">
<path d="M215 0H323C329.627 0 335 5.37258 335 12V84C335 90.6274 329.627 96 323 96H215V0Z" fill="white"/>
</clipPath>
</defs>
</svg>
