<svg width="335" height="96" viewBox="0 0 335 96" fill="none" xmlns="http://www.w3.org/2000/svg">
<rect width="335" height="96" rx="12" fill="#F3F6F3"/>
<path d="M27.2617 31.3809H24.4023V30.3203H27.2617V31.3809ZM28.2227 35.2773H26.9219V27.4609H28.2227V35.2773ZM28.4512 37.8438H21.2383V36.7773H28.4512V37.8438ZM22.5625 37.3574H21.2383V34.5039H22.5625V37.3574ZM21.1387 29.8633H23.5059V28.1582H24.7891V33.5605H19.832V28.1582H21.1387V29.8633ZM23.5059 32.5234V30.8652H21.1387V32.5234H23.5059ZM38.5879 38.0312H37.293V27.4492H38.5879V38.0312ZM37.9023 32.6523H35.0488V31.5859H37.9023V32.6523ZM35.0957 28.5742C35.0918 29.6797 34.9414 30.6875 34.6445 31.5977C34.3516 32.5039 33.8535 33.3418 33.1504 34.1113C32.4512 34.8809 31.5137 35.5566 30.3379 36.1387L29.6582 35.1133C30.6582 34.6211 31.4629 34.0645 32.0723 33.4434C32.6816 32.8223 33.123 32.1309 33.3965 31.3691C33.6738 30.6074 33.8145 29.75 33.8184 28.7969V28.5742H35.0957ZM34.498 29.6055H30.1445V28.5742H34.498V29.6055ZM49.7793 36.8125H40.0996V35.7402H49.7793V36.8125ZM45.5547 36.1973H44.2715V33.6484H45.5547V36.1973ZM48.625 31.5742H42.543V33.4961H41.2422V30.5488H47.3418V29.2246H41.2246V28.1699H48.625V31.5742ZM48.877 34.0059H41.2422V32.9453H48.877V34.0059ZM60.1387 33.7246H50.459V32.6816H60.1387V33.7246ZM56.0371 35.6758H54.7188V33.3613H56.0371V35.6758ZM59.0664 37.8438H51.6367V36.7656H59.0664V37.8438ZM52.9551 37.0586H51.6367V34.6914H52.9551V37.0586ZM55.293 27.6777C56.0469 27.6777 56.709 27.7656 57.2793 27.9414C57.8535 28.1172 58.2969 28.3711 58.6094 28.7031C58.9219 29.0312 59.0801 29.4141 59.084 29.8516C59.0801 30.293 58.9219 30.6758 58.6094 31C58.2969 31.3203 57.8535 31.5684 57.2793 31.7441C56.709 31.9199 56.0469 32.0078 55.293 32.0078C54.5312 32.0078 53.8633 31.9199 53.2891 31.7441C52.7188 31.5684 52.2754 31.3203 51.959 31C51.6426 30.6758 51.4844 30.293 51.4844 29.8516C51.4844 29.4141 51.6406 29.0312 51.9531 28.7031C52.2656 28.3711 52.709 28.1172 53.2832 27.9414C53.8613 27.7656 54.5312 27.6777 55.293 27.6777ZM55.293 28.7148C54.8008 28.7148 54.375 28.7598 54.0156 28.8496C53.6562 28.9355 53.377 29.0645 53.1777 29.2363C52.9824 29.4082 52.8867 29.6133 52.8906 29.8516C52.8867 30.082 52.9824 30.2812 53.1777 30.4492C53.377 30.6133 53.6562 30.7402 54.0156 30.8301C54.375 30.916 54.8008 30.959 55.293 30.959C55.7773 30.959 56.1992 30.916 56.5586 30.8301C56.9219 30.7402 57.1992 30.6133 57.3906 30.4492C57.5859 30.2812 57.6836 30.082 57.6836 29.8516C57.6836 29.6133 57.5859 29.4082 57.3906 29.2363C57.1992 29.0645 56.9238 28.9355 56.5645 28.8496C56.2051 28.7598 55.7812 28.7148 55.293 28.7148ZM67.7266 37.4395H66.4199V33.0918H67.7266V37.4395ZM72.6777 38.0312H71.3711V27.4492H72.6777V38.0312ZM63.6309 32.377C64.998 32.373 66.2559 32.3535 67.4043 32.3184C68.5566 32.2793 69.6562 32.2031 70.7031 32.0898L70.8027 33.0566C69.7207 33.2012 68.5977 33.3008 67.4336 33.3555C66.2695 33.4102 65.0547 33.4395 63.7891 33.4434L63.6309 32.377ZM68.8105 29.2656H64.5215V28.2168H68.8105V29.2656ZM69.6309 28.8613C69.623 29.4668 69.5977 30.0527 69.5547 30.6191C69.5156 31.1855 69.4258 31.8398 69.2852 32.582L67.9785 32.4941C68.0801 31.9785 68.1562 31.498 68.207 31.0527C68.2578 30.6035 68.291 30.2207 68.3066 29.9043C68.3223 29.5879 68.332 29.2402 68.3359 28.8613V28.7559V28.2168H69.6309V28.7559V28.8613ZM82.0703 28.9785H75.2617V27.9355H82.0703V28.9785ZM83.752 32.6699H74.0723V31.627H83.752V32.6699ZM79.5391 34.6855H78.2383V32.3477H79.5391V34.6855ZM82.5625 28.7441C82.5625 29.3652 82.543 29.9277 82.5039 30.4316C82.4688 30.9316 82.377 31.5 82.2285 32.1367L80.9395 31.9902C81.0371 31.5723 81.1094 31.1797 81.1562 30.8125C81.2031 30.4453 81.2324 30.1191 81.2441 29.834C81.2559 29.5488 81.2617 29.2129 81.2617 28.8262V28.7441V27.9355H82.5625V28.7441ZM82.5918 38.0312H81.2852V35.3652H75.0449V34.3281H82.5918V38.0312ZM96.4258 29.6406H87.7715V28.5859H96.4258V29.6406ZM96.9824 35.3594H87.3027V34.2988H96.9824V35.3594ZM92.7578 38.0547H91.4746V35.1953H92.7578V38.0547ZM92.125 30.1152C92.8672 30.1191 93.5078 30.1895 94.0469 30.3262C94.5859 30.4629 94.9961 30.668 95.2773 30.9414C95.5625 31.2109 95.7051 31.5371 95.7051 31.9199C95.7051 32.2988 95.5625 32.6211 95.2773 32.8867C94.9922 33.1523 94.5801 33.3574 94.041 33.502C93.5059 33.6426 92.8672 33.7129 92.125 33.7129C91.375 33.7129 90.7305 33.6426 90.1914 33.502C89.6562 33.3574 89.2441 33.1523 88.9551 32.8867C88.6699 32.6211 88.5293 32.2988 88.5332 31.9199C88.5293 31.5371 88.6699 31.2109 88.9551 30.9414C89.2441 30.668 89.6562 30.4629 90.1914 30.3262C90.7266 30.1895 91.3711 30.1191 92.125 30.1152ZM92.125 31.0879C91.6289 31.0879 91.2148 31.1191 90.8828 31.1816C90.5547 31.2441 90.3047 31.3379 90.1328 31.4629C89.9648 31.5879 89.8828 31.7402 89.8867 31.9199C89.8828 32.0996 89.9648 32.25 90.1328 32.3711C90.3047 32.4883 90.5547 32.5781 90.8828 32.6406C91.2148 32.7031 91.6289 32.7344 92.125 32.7344C92.6094 32.7344 93.0156 32.7031 93.3438 32.6406C93.6758 32.5781 93.9258 32.4883 94.0938 32.3711C94.2656 32.25 94.3535 32.0996 94.3574 31.9199C94.3535 31.7402 94.2656 31.5879 94.0938 31.4629C93.9258 31.3379 93.6758 31.2441 93.3438 31.1816C93.0156 31.1191 92.6094 31.0879 92.125 31.0879ZM92.7578 29.2891H91.4746V27.4199H92.7578V29.2891ZM109.662 38.0312H108.408V27.4492H109.662V38.0312ZM108.766 32.6406H106.867V31.5801H108.766V32.6406ZM105.256 28.7031C105.256 29.7578 105.141 30.7129 104.91 31.5684C104.684 32.4238 104.277 33.2227 103.691 33.9648C103.109 34.707 102.307 35.3652 101.283 35.9395L100.533 35.0195C101.412 34.5234 102.107 33.9707 102.619 33.3613C103.135 32.748 103.496 32.082 103.703 31.3633C103.91 30.6445 104.014 29.8301 104.014 28.9199V28.7031H105.256ZM104.459 29.7578H101.131V28.7031H104.459V29.7578ZM107.271 37.5508H106.059V27.6895H107.271V37.5508ZM100.756 32.4062L100.592 31.2871L103.984 31.0938V32.0605L100.756 32.4062ZM114.66 29.9922C114.66 30.875 114.539 31.707 114.297 32.4883C114.059 33.2695 113.707 33.959 113.242 34.5566C112.781 35.1543 112.229 35.6055 111.584 35.9102L110.787 34.8203C111.361 34.5742 111.859 34.2031 112.281 33.707C112.703 33.207 113.025 32.6367 113.248 31.9961C113.471 31.3516 113.584 30.6836 113.588 29.9922V28.2988H114.66V29.9922ZM114.9 29.9922C114.9 30.6484 115.01 31.2832 115.229 31.8965C115.447 32.5098 115.764 33.0586 116.178 33.543C116.592 34.0234 117.08 34.3828 117.643 34.6211L116.869 35.6641C116.236 35.3711 115.691 34.9395 115.234 34.3691C114.777 33.7949 114.428 33.1328 114.186 32.3828C113.943 31.6328 113.822 30.8359 113.822 29.9922V28.2988H114.9V29.9922ZM119.711 38.0605H118.393V27.4492H119.711V38.0605ZM122.91 29.6816H124.656V28.123H125.863V33.1797H121.68V28.123H122.91V29.6816ZM124.656 32.1367V30.6953H122.91V32.1367H124.656ZM130.328 33.8242H129.086V27.4609H130.328V33.8242ZM129.449 31.1641H127.633V30.0977H129.449V31.1641ZM128.031 33.7715H126.818V27.6543H128.031V33.7715ZM130.328 38.0312H129.039V35.4121H123.074V34.3633H130.328V38.0312ZM136.908 34.791H138.297V33.6543H139.504V37.9082H135.695V33.6543H136.908V34.791ZM138.297 36.9121V35.7578H136.908V36.9121H138.297ZM142.322 34.416C142.326 34.9316 142.248 35.4238 142.088 35.8926C141.928 36.3613 141.682 36.7793 141.35 37.1465C141.021 37.5176 140.613 37.8008 140.125 37.9961L139.469 37.0176C139.879 36.8535 140.223 36.6328 140.5 36.3555C140.777 36.0781 140.982 35.7734 141.115 35.4414C141.252 35.1094 141.322 34.7676 141.326 34.416V33.5664H142.322V34.416ZM142.627 34.416C142.623 34.791 142.688 35.1484 142.82 35.4883C142.953 35.8281 143.16 36.1328 143.441 36.4023C143.723 36.6719 144.074 36.877 144.496 37.0176L143.828 37.9961C143.32 37.8164 142.902 37.5469 142.574 37.1875C142.246 36.8281 142.006 36.4141 141.854 35.9453C141.701 35.4727 141.627 34.9629 141.631 34.416V33.5664H142.627V34.416ZM142.627 30.8652H139.885V29.8047H142.627V30.8652ZM137.441 27.877C137.961 27.877 138.432 27.9824 138.854 28.1934C139.275 28.4004 139.607 28.6914 139.85 29.0664C140.092 29.4414 140.215 29.8672 140.219 30.3438C140.215 30.8242 140.092 31.2539 139.85 31.6328C139.607 32.0078 139.275 32.3027 138.854 32.5176C138.432 32.7285 137.961 32.834 137.441 32.834C136.906 32.834 136.426 32.7285 136 32.5176C135.574 32.3027 135.242 32.0078 135.004 31.6328C134.766 31.2539 134.646 30.8242 134.646 30.3438C134.646 29.8672 134.766 29.4414 135.004 29.0664C135.242 28.6914 135.574 28.4004 136 28.1934C136.426 27.9824 136.906 27.877 137.441 27.877ZM137.441 28.9551C137.137 28.9551 136.867 29.0137 136.633 29.1309C136.398 29.2441 136.215 29.4062 136.082 29.6172C135.949 29.8281 135.883 30.0703 135.883 30.3438C135.883 30.625 135.949 30.873 136.082 31.0879C136.215 31.2988 136.398 31.4648 136.633 31.5859C136.867 31.7031 137.137 31.7637 137.441 31.7676C137.734 31.7637 137.998 31.7031 138.232 31.5859C138.467 31.4648 138.648 31.2988 138.777 31.0879C138.906 30.873 138.971 30.625 138.971 30.3438C138.971 30.0703 138.906 29.8281 138.777 29.6172C138.648 29.4062 138.467 29.2441 138.232 29.1309C138.002 29.0137 137.738 28.9551 137.441 28.9551ZM143.371 33.0566H142.07V27.4492H143.371V33.0566ZM153.684 38.0605H152.365V27.4492H153.684V38.0605ZM147.977 28.2227C148.508 28.2227 148.982 28.375 149.4 28.6797C149.818 28.9844 150.145 29.4219 150.379 29.9922C150.613 30.5586 150.73 31.2148 150.73 31.9609C150.73 32.7148 150.613 33.375 150.379 33.9414C150.145 34.5078 149.818 34.9453 149.4 35.2539C148.982 35.5586 148.508 35.7109 147.977 35.7109C147.441 35.7109 146.965 35.5586 146.547 35.2539C146.129 34.9453 145.801 34.5078 145.562 33.9414C145.324 33.375 145.207 32.7148 145.211 31.9609C145.207 31.2148 145.324 30.5586 145.562 29.9922C145.801 29.4219 146.129 28.9844 146.547 28.6797C146.965 28.375 147.441 28.2227 147.977 28.2227ZM147.977 29.3945C147.676 29.3945 147.41 29.4961 147.18 29.6992C146.953 29.9023 146.777 30.1992 146.652 30.5898C146.531 30.9766 146.471 31.4336 146.471 31.9609C146.471 32.4961 146.531 32.957 146.652 33.3438C146.777 33.7305 146.953 34.0254 147.18 34.2285C147.41 34.4316 147.676 34.5312 147.977 34.5273C148.273 34.5312 148.535 34.4316 148.762 34.2285C148.988 34.0254 149.164 33.7305 149.289 33.3438C149.414 32.957 149.477 32.4961 149.477 31.9609C149.477 31.4297 149.414 30.9727 149.289 30.5898C149.164 30.2031 148.988 29.9082 148.762 29.7051C148.535 29.498 148.273 29.3945 147.977 29.3945ZM156.326 39.4492H155.213L155.816 36.1621H157.311L156.326 39.4492Z" fill="#7A9B79"/>
<rect x="19" y="59" width="98" height="12" fill="#C1D1C1"/>
<path d="M28.1875 63.8242H25.2109V59.3594H28.1875V63.8242ZM27.5547 52.3047C27.5469 53.5234 27.3203 54.6523 26.875 55.6914C26.4297 56.7227 25.7578 57.6172 24.8594 58.375C23.9688 59.125 22.8672 59.6719 21.5547 60.0156L20.1602 57.7539C21.2695 57.4648 22.1953 57.043 22.9375 56.4883C23.6875 55.9258 24.2422 55.2891 24.6016 54.5781C24.9688 53.8594 25.1523 53.1016 25.1523 52.3047V51.7656H27.5547V52.3047ZM28.2227 52.3047C28.2148 53.0703 28.3945 53.7969 28.7617 54.4844C29.1367 55.1719 29.6992 55.7852 30.4492 56.3242C31.207 56.8633 32.1406 57.2734 33.25 57.5547L31.9023 59.8516C30.5742 59.5078 29.4531 58.9648 28.5391 58.2227C27.625 57.4727 26.9336 56.5938 26.4648 55.5859C26.0039 54.5703 25.7734 53.4766 25.7734 52.3047V51.7656H28.2227V52.3047ZM32.6055 52.7383H20.8281V50.3359H32.6055V52.7383ZM28.1875 51.4141H25.2109V48.0156H28.1875V51.4141ZM37.5508 69.2148H34.5859V47.8047H37.5508V69.2148ZM20.0547 62.7695C22.6016 62.7695 24.9648 62.7227 27.1445 62.6289C29.332 62.5352 31.4102 62.3398 33.3789 62.043L33.5898 64.2344C32.1289 64.5156 30.6133 64.7266 29.043 64.8672C27.4805 65.0078 25.9961 65.0977 24.5898 65.1367C23.1914 65.168 21.6875 65.1836 20.0781 65.1836L19.7266 62.7695H20.0547ZM58.8086 69.1562H55.9961V47.8047H58.8086V69.1562ZM56.6758 58.457H53.0547V56.0664H56.6758V58.457ZM53.9336 68.125H51.1914V48.1914H53.9336V68.125ZM42.4727 61.832C44.0352 61.832 45.375 61.7969 46.4922 61.7266C47.6094 61.6562 48.7578 61.5156 49.9375 61.3047L50.1484 63.7305C48.9609 63.9648 47.793 64.1211 46.6445 64.1992C45.5039 64.2695 44.1133 64.3125 42.4727 64.3281H40.9727V61.832H42.4727ZM48.9414 52.7031H43.9727V63.0391H40.9727V50.3008H48.9414V52.7031ZM74.6758 67H71.1367V53.3828H71.043L67.1641 55.8438V52.7031L71.3594 50.0312H74.6758V67ZM85.2109 67.2344C83.7969 67.2344 82.5781 66.8945 81.5547 66.2148C80.5391 65.5273 79.7578 64.5312 79.2109 63.2266C78.6719 61.9219 78.4023 60.3516 78.4023 58.5156C78.4023 56.6875 78.6719 55.1211 79.2109 53.8164C79.7578 52.5039 80.5391 51.5078 81.5547 50.8281C82.5781 50.1406 83.7969 49.7969 85.2109 49.7969C86.6172 49.7969 87.832 50.1406 88.8555 50.8281C89.8789 51.5078 90.6641 52.5039 91.2109 53.8164C91.7578 55.1211 92.0312 56.6875 92.0312 58.5156C92.0312 60.3594 91.7578 61.9336 91.2109 63.2383C90.6719 64.543 89.8906 65.5352 88.8672 66.2148C87.8438 66.8945 86.625 67.2344 85.2109 67.2344ZM85.2109 64.3281C85.875 64.3281 86.4492 64.1133 86.9336 63.6836C87.4258 63.2539 87.7969 62.6055 88.0469 61.7383C88.3047 60.8711 88.4297 59.7969 88.4219 58.5156C88.4219 57.25 88.293 56.1836 88.0352 55.3164C87.7773 54.4414 87.4062 53.7852 86.9219 53.3477C86.4375 52.9102 85.8672 52.6914 85.2109 52.6914C84.5469 52.6914 83.9766 52.9102 83.5 53.3477C83.0234 53.7852 82.6523 54.4414 82.3867 55.3164C82.1211 56.1836 81.9883 57.25 81.9883 58.5156C81.9883 59.7969 82.1211 60.8711 82.3867 61.7383C82.6523 62.6055 83.0195 63.2539 83.4883 63.6836C83.9648 64.1133 84.5391 64.3281 85.2109 64.3281ZM98.9102 58.5156C98.082 58.5156 97.375 58.3281 96.7891 57.9531C96.2109 57.5703 95.7695 57.0391 95.4648 56.3594C95.1602 55.6719 95.0078 54.8828 95.0078 53.9922C95.0078 53.0938 95.1641 52.3008 95.4766 51.6133C95.7891 50.9258 96.2383 50.3945 96.8242 50.0195C97.4102 49.6367 98.1055 49.4453 98.9102 49.4453C99.7461 49.4453 100.457 49.6367 101.043 50.0195C101.637 50.3945 102.082 50.9258 102.379 51.6133C102.676 52.293 102.824 53.0859 102.824 53.9922C102.824 54.8906 102.672 55.6836 102.367 56.3711C102.062 57.0508 101.613 57.5781 101.02 57.9531C100.434 58.3281 99.7305 58.5156 98.9102 58.5156ZM98.9102 56.418C99.2461 56.418 99.5273 56.3164 99.7539 56.1133C99.9805 55.9102 100.148 55.6289 100.258 55.2695C100.375 54.9102 100.434 54.4844 100.434 53.9922C100.434 53.4922 100.379 53.0586 100.27 52.6914C100.168 52.3242 100 52.043 99.7656 51.8477C99.5391 51.6445 99.2539 51.543 98.9102 51.543C98.5898 51.543 98.3164 51.6445 98.0898 51.8477C97.8711 52.0508 97.7031 52.3398 97.5859 52.7148C97.4688 53.082 97.4102 53.5078 97.4102 53.9922C97.4102 54.4766 97.4688 54.9023 97.5859 55.2695C97.7031 55.6289 97.8711 55.9102 98.0898 56.1133C98.3164 56.3164 98.5898 56.418 98.9102 56.418ZM110.371 67.5625C109.543 67.5625 108.836 67.375 108.25 67C107.672 66.6172 107.23 66.0859 106.926 65.4062C106.629 64.7266 106.48 63.9414 106.48 63.0508C106.48 62.1523 106.633 61.3594 106.938 60.6719C107.25 59.9844 107.695 59.4492 108.273 59.0664C108.859 58.6836 109.559 58.4922 110.371 58.4922C111.207 58.4922 111.918 58.6836 112.504 59.0664C113.09 59.4492 113.531 59.9844 113.828 60.6719C114.133 61.3516 114.285 62.1445 114.285 63.0508C114.285 63.9492 114.133 64.7383 113.828 65.418C113.531 66.0977 113.086 66.625 112.492 67C111.906 67.375 111.199 67.5625 110.371 67.5625ZM110.371 65.4648C110.699 65.4648 110.98 65.3672 111.215 65.1719C111.449 64.9688 111.617 64.6875 111.719 64.3281C111.828 63.9688 111.883 63.543 111.883 63.0508C111.883 62.5508 111.828 62.1172 111.719 61.75C111.617 61.375 111.453 61.0898 111.227 60.8945C111 60.6914 110.715 60.5898 110.371 60.5898C110.043 60.5898 109.766 60.6914 109.539 60.8945C109.32 61.0977 109.152 61.3867 109.035 61.7617C108.926 62.1289 108.867 62.5586 108.859 63.0508C108.859 63.543 108.922 63.9688 109.047 64.3281C109.172 64.6875 109.344 64.9688 109.562 65.1719C109.781 65.3672 110.051 65.4648 110.371 65.4648ZM109.094 50.0312H111.73L100.059 67H97.4219L109.094 50.0312Z" fill="#336032"/>
<path d="M134.867 54.834H130.688V52.8125H134.867V54.834ZM127.68 52.0508C127.673 53.2878 127.491 54.4303 127.133 55.4785C126.775 56.5202 126.228 57.4316 125.492 58.2129C124.757 58.9876 123.845 59.5736 122.758 59.9707L121.41 57.998C122.367 57.6855 123.165 57.2298 123.803 56.6309C124.441 56.0254 124.91 55.3353 125.209 54.5605C125.515 53.7793 125.668 52.9427 125.668 52.0508V50.1172H127.68V52.0508ZM128.178 52.0703C128.178 52.8711 128.324 53.6328 128.617 54.3555C128.917 55.0716 129.366 55.7161 129.965 56.2891C130.57 56.862 131.332 57.3014 132.25 57.6074L130.893 59.541C129.857 59.1569 128.988 58.597 128.285 57.8613C127.589 57.1191 127.064 56.2565 126.713 55.2734C126.368 54.2904 126.195 53.2227 126.195 52.0703V50.1172H128.178V52.0703ZM136.508 62.168H134.027V49.043H136.508V62.168ZM136.889 66.4941H124.672V64.4824H136.889V66.4941ZM127.191 65.5762H124.672V60.791H127.191V65.5762ZM152.914 58.623H150.424V48.9941H152.914V58.623ZM155.336 54.834H151.898V52.8418H155.336V54.834ZM152.914 63.8184H143.607V65.459H141.156V62.1191H150.434V61.123H141.127V59.3359H152.914V63.8184ZM153.432 66.6699H141.156V64.8438H153.432V66.6699ZM149.359 52.2461H138.803V50.3516H149.359V52.2461ZM144.096 52.6758C144.968 52.6758 145.736 52.7962 146.4 53.0371C147.064 53.2715 147.576 53.61 147.934 54.0527C148.292 54.4889 148.471 55 148.471 55.5859C148.471 56.1849 148.292 56.7025 147.934 57.1387C147.576 57.5749 147.064 57.9102 146.4 58.1445C145.743 58.3789 144.975 58.4961 144.096 58.4961C143.21 58.4961 142.436 58.3789 141.771 58.1445C141.114 57.9102 140.6 57.5749 140.229 57.1387C139.864 56.7025 139.682 56.1849 139.682 55.5859C139.682 55.0065 139.864 54.4987 140.229 54.0625C140.6 53.6198 141.114 53.278 141.771 53.0371C142.436 52.7962 143.21 52.6758 144.096 52.6758ZM144.096 54.4238C143.679 54.4238 143.321 54.4694 143.021 54.5605C142.729 54.6517 142.501 54.7852 142.338 54.9609C142.182 55.1302 142.104 55.3385 142.104 55.5859C142.104 55.8333 142.182 56.0417 142.338 56.2109C142.501 56.3802 142.729 56.5072 143.021 56.5918C143.314 56.6699 143.673 56.709 144.096 56.709C144.512 56.709 144.87 56.6699 145.17 56.5918C145.469 56.5072 145.701 56.3802 145.863 56.2109C146.026 56.0417 146.107 55.8333 146.107 55.5859C146.107 55.3385 146.023 55.1302 145.854 54.9609C145.691 54.7852 145.46 54.6517 145.16 54.5605C144.861 54.4694 144.506 54.4238 144.096 54.4238ZM145.336 51.6895H142.846V48.8965H145.336V51.6895ZM170.971 61.8164H168.48V49.043H170.971V61.8164ZM171.459 66.4941H159.066V64.4824H171.459V66.4941ZM161.586 65.3027H159.066V60.5371H161.586V65.3027ZM161.234 50.166C162.133 50.166 162.953 50.3581 163.695 50.7422C164.444 51.1263 165.03 51.6602 165.453 52.3438C165.883 53.0273 166.098 53.7923 166.098 54.6387C166.098 55.5046 165.883 56.2826 165.453 56.9727C165.03 57.6562 164.447 58.1934 163.705 58.584C162.963 58.9681 162.139 59.1602 161.234 59.1602C160.329 59.1602 159.506 58.9681 158.764 58.584C158.028 58.1934 157.445 57.6562 157.016 56.9727C156.586 56.2826 156.371 55.5046 156.371 54.6387C156.371 53.7923 156.586 53.0273 157.016 52.3438C157.445 51.6602 158.028 51.1263 158.764 50.7422C159.506 50.3581 160.329 50.166 161.234 50.166ZM161.234 52.334C160.772 52.334 160.355 52.4284 159.984 52.6172C159.62 52.7995 159.33 53.0664 159.115 53.418C158.907 53.763 158.803 54.1699 158.803 54.6387C158.803 55.127 158.907 55.5469 159.115 55.8984C159.33 56.25 159.62 56.5202 159.984 56.709C160.355 56.8978 160.772 56.9889 161.234 56.9824C161.69 56.9889 162.097 56.8978 162.455 56.709C162.82 56.5202 163.106 56.25 163.314 55.8984C163.523 55.5469 163.627 55.127 163.627 54.6387C163.627 54.1699 163.523 53.763 163.314 53.418C163.106 53.0664 162.82 52.7995 162.455 52.6172C162.09 52.4284 161.684 52.334 161.234 52.334Z" fill="#60875F"/>
<g clip-path="url(#clip0_63_11301)">
<path opacity="0.4" d="M358.5 95.4996L304.099 41.5566L225.68 62.6715L278.5 115.5L332.5 119.5L358.5 95.4996Z" fill="#806D27"/>
<rect x="255.941" y="69.957" width="48.7513" height="9.75027" rx="2.43757" fill="#D9D9D9"/>
<rect x="255.941" y="69.957" width="48.7513" height="9.75027" rx="2.43757" fill="url(#paint0_linear_63_11301)"/>
<rect x="255.941" y="69.957" width="48.7513" height="9.75027" rx="2.43757" fill="url(#paint1_linear_63_11301)"/>
<rect x="255.941" y="69.957" width="48.7513" height="9.75027" rx="2.43757" fill="url(#paint2_linear_63_11301)"/>
<rect x="255.941" y="69.957" width="48.7513" height="9.75027" rx="2.43757" fill="url(#paint3_linear_63_11301)"/>
<rect x="255.941" y="60.207" width="48.7513" height="9.75027" rx="2.43757" fill="#D9D9D9"/>
<rect x="255.941" y="60.207" width="48.7513" height="9.75027" rx="2.43757" fill="url(#paint4_linear_63_11301)"/>
<rect x="255.941" y="60.207" width="48.7513" height="9.75027" rx="2.43757" fill="url(#paint5_linear_63_11301)"/>
<rect x="255.941" y="60.207" width="48.7513" height="9.75027" rx="2.43757" fill="url(#paint6_linear_63_11301)"/>
<rect x="255.941" y="60.207" width="48.7513" height="9.75027" rx="2.43757" fill="url(#paint7_linear_63_11301)"/>
<rect x="255.941" y="50.4561" width="48.7513" height="9.75027" rx="2.43757" fill="#D9D9D9"/>
<rect x="255.941" y="50.4561" width="48.7513" height="9.75027" rx="2.43757" fill="url(#paint8_linear_63_11301)"/>
<rect x="255.941" y="50.4561" width="48.7513" height="9.75027" rx="2.43757" fill="url(#paint9_linear_63_11301)"/>
<rect x="255.941" y="50.4561" width="48.7513" height="9.75027" rx="2.43757" fill="url(#paint10_linear_63_11301)"/>
<rect x="255.941" y="50.4561" width="48.7513" height="9.75027" rx="2.43757" fill="url(#paint11_linear_63_11301)"/>
<rect x="255.941" y="40.7061" width="48.7513" height="9.75027" rx="2.43757" fill="#D9D9D9"/>
<rect x="255.941" y="40.7061" width="48.7513" height="9.75027" rx="2.43757" fill="url(#paint12_linear_63_11301)"/>
<rect x="255.941" y="40.7061" width="48.7513" height="9.75027" rx="2.43757" fill="url(#paint13_linear_63_11301)"/>
<rect x="255.941" y="40.7061" width="48.7513" height="9.75027" rx="2.43757" fill="url(#paint14_linear_63_11301)"/>
<rect x="255.941" y="40.7061" width="48.7513" height="9.75027" rx="2.43757" fill="url(#paint15_linear_63_11301)"/>
<rect x="237.314" y="49.001" width="48.7513" height="9.75027" rx="2.43757" fill="#D9D9D9"/>
<rect x="237.314" y="49.001" width="48.7513" height="9.75027" rx="2.43757" fill="url(#paint16_linear_63_11301)"/>
<rect x="237.314" y="49.001" width="48.7513" height="9.75027" rx="2.43757" fill="url(#paint17_linear_63_11301)"/>
<rect x="237.314" y="39.251" width="48.7513" height="9.75027" rx="2.43757" fill="#D9D9D9"/>
<rect x="237.314" y="39.251" width="48.7513" height="9.75027" rx="2.43757" fill="url(#paint18_linear_63_11301)"/>
<rect x="237.314" y="39.251" width="48.7513" height="9.75027" rx="2.43757" fill="url(#paint19_linear_63_11301)"/>
<rect x="237.314" y="29.501" width="48.7513" height="9.75027" rx="2.43757" fill="#D9D9D9"/>
<rect x="237.314" y="29.501" width="48.7513" height="9.75027" rx="2.43757" fill="url(#paint20_linear_63_11301)"/>
<rect x="237.314" y="29.501" width="48.7513" height="9.75027" rx="2.43757" fill="url(#paint21_linear_63_11301)"/>
<rect x="237.314" y="29.501" width="48.7513" height="9.75027" rx="2.43757" fill="url(#paint22_linear_63_11301)"/>
<rect x="237.314" y="29.501" width="48.7513" height="9.75027" rx="2.43757" fill="url(#paint23_linear_63_11301)"/>
<rect x="237.314" y="19.75" width="48.7513" height="9.75027" rx="2.43757" fill="#D9D9D9"/>
<rect x="237.314" y="19.75" width="48.7513" height="9.75027" rx="2.43757" fill="url(#paint24_linear_63_11301)"/>
<rect x="237.314" y="19.75" width="48.7513" height="9.75027" rx="2.43757" fill="url(#paint25_linear_63_11301)"/>
<rect x="237.314" y="19.75" width="48.7513" height="9.75027" rx="2.43757" fill="url(#paint26_linear_63_11301)"/>
<rect x="237.314" y="19.75" width="48.7513" height="9.75027" rx="2.43757" fill="url(#paint27_linear_63_11301)"/>
<rect x="237.314" y="10" width="48.7513" height="9.75027" rx="2.43757" fill="#D9D9D9"/>
<rect x="237.314" y="10" width="48.7513" height="9.75027" rx="2.43757" fill="url(#paint28_linear_63_11301)"/>
<rect x="237.314" y="10" width="48.7513" height="9.75027" rx="2.43757" fill="url(#paint29_linear_63_11301)"/>
<rect x="237.314" y="10" width="48.7513" height="9.75027" rx="2.43757" fill="url(#paint30_linear_63_11301)"/>
<rect x="237.314" y="10" width="48.7513" height="9.75027" rx="2.43757" fill="url(#paint31_linear_63_11301)"/>
<rect x="225.18" y="53.877" width="24.3757" height="9.75027" rx="2.43757" fill="#D9D9D9"/>
<rect x="225.18" y="53.877" width="24.3757" height="9.75027" rx="2.43757" fill="url(#paint32_linear_63_11301)"/>
<rect x="225.18" y="53.877" width="24.3757" height="9.75027" rx="2.43757" fill="black" fill-opacity="0.08"/>
<rect x="225.18" y="53.877" width="24.3757" height="9.75027" rx="2.43757" fill="url(#paint33_linear_63_11301)"/>
<rect x="225.18" y="53.877" width="24.3757" height="9.75027" rx="2.43757" fill="url(#paint34_linear_63_11301)"/>
<rect x="225.18" y="53.877" width="24.3757" height="9.75027" rx="2.43757" fill="url(#paint35_linear_63_11301)"/>
<rect x="225.18" y="44.126" width="24.3757" height="9.75027" rx="2.43757" fill="#D9D9D9"/>
<rect x="225.18" y="44.126" width="24.3757" height="9.75027" rx="2.43757" fill="url(#paint36_linear_63_11301)"/>
<rect x="225.18" y="44.126" width="24.3757" height="9.75027" rx="2.43757" fill="black" fill-opacity="0.08"/>
<rect x="225.18" y="44.126" width="24.3757" height="9.75027" rx="2.43757" fill="url(#paint37_linear_63_11301)"/>
<rect x="225.18" y="44.126" width="24.3757" height="9.75027" rx="2.43757" fill="url(#paint38_linear_63_11301)"/>
<rect x="225.18" y="44.126" width="24.3757" height="9.75027" rx="2.43757" fill="url(#paint39_linear_63_11301)"/>
<rect x="225.18" y="34.376" width="24.3757" height="9.75027" rx="2.43757" fill="#D9D9D9"/>
<rect x="225.18" y="34.376" width="24.3757" height="9.75027" rx="2.43757" fill="url(#paint40_linear_63_11301)"/>
<rect x="225.18" y="34.376" width="24.3757" height="9.75027" rx="2.43757" fill="black" fill-opacity="0.08"/>
<rect x="225.18" y="34.376" width="24.3757" height="9.75027" rx="2.43757" fill="url(#paint41_linear_63_11301)"/>
<rect x="225.18" y="34.376" width="24.3757" height="9.75027" rx="2.43757" fill="url(#paint42_linear_63_11301)"/>
<rect x="225.18" y="34.376" width="24.3757" height="9.75027" rx="2.43757" fill="url(#paint43_linear_63_11301)"/>
<circle cx="268.166" cy="55.9863" r="23.8208" fill="url(#paint44_linear_63_11301)"/>
<circle cx="268.166" cy="55.9863" r="23.8208" fill="url(#paint45_linear_63_11301)"/>
<circle cx="268.166" cy="55.9863" r="23.8208" stroke="url(#paint46_linear_63_11301)" stroke-width="4.33106"/>
<circle cx="268.166" cy="55.9863" r="23.8208" stroke="url(#paint47_linear_63_11301)" stroke-width="4.33106"/>
<g filter="url(#filter0_i_63_11301)">
<circle cx="268.167" cy="55.9863" r="21.6553" fill="url(#paint48_linear_63_11301)"/>
<circle cx="268.167" cy="55.9863" r="21.6553" fill="url(#paint49_linear_63_11301)"/>
<circle cx="268.167" cy="55.9863" r="21.6553" fill="url(#paint50_linear_63_11301)"/>
</g>
<path d="M260.84 64.21H256.863V52.7993H256.779L253.469 54.8087V51.4146L257.175 49.1346H260.84V64.21ZM270.46 64.4182C269.113 64.4182 267.947 64.1128 266.961 63.502C265.976 62.8912 265.219 62.0097 264.692 60.8576C264.164 59.6984 263.901 58.3033 263.901 56.6723C263.901 55.0412 264.164 53.6461 264.692 52.487C265.219 51.3209 265.976 50.436 266.961 49.8321C267.947 49.2283 269.113 48.9263 270.46 48.9263C271.813 48.9263 272.986 49.2283 273.979 49.8321C274.971 50.436 275.731 51.3209 276.259 52.487C276.786 53.6461 277.05 55.0412 277.05 56.6723C277.05 58.3103 276.786 59.7089 276.259 60.868C275.731 62.0271 274.971 62.9086 273.979 63.5124C272.993 64.1163 271.82 64.4182 270.46 64.4182ZM270.46 61.2219C270.966 61.2219 271.407 61.0623 271.782 60.743C272.157 60.4168 272.445 59.9171 272.646 59.2438C272.847 58.5636 272.944 57.7064 272.937 56.6723C272.937 55.6589 272.833 54.8121 272.625 54.1319C272.424 53.4517 272.136 52.9485 271.761 52.6223C271.393 52.2891 270.959 52.1226 270.46 52.1226C269.967 52.1226 269.536 52.2891 269.169 52.6223C268.808 52.9485 268.523 53.4517 268.315 54.1319C268.114 54.8121 268.013 55.6589 268.013 56.6723C268.006 57.7064 268.107 58.5636 268.315 59.2438C268.523 59.9171 268.808 60.4168 269.169 60.743C269.53 61.0623 269.96 61.2219 270.46 61.2219ZM280.532 60.4411C280.165 60.4411 279.85 60.3578 279.59 60.1912C279.333 60.0212 279.137 59.7852 279.002 59.4833C278.867 59.1779 278.799 58.8274 278.799 58.4317C278.799 58.0327 278.868 57.6804 279.007 57.375C279.146 57.0696 279.346 56.8336 279.606 56.6671C279.866 56.497 280.175 56.412 280.532 56.412C280.904 56.412 281.22 56.497 281.48 56.6671C281.744 56.8336 281.941 57.0696 282.073 57.375C282.205 57.6769 282.271 58.0292 282.271 58.4317C282.271 58.8308 282.203 59.1831 282.068 59.4885C281.933 59.7904 281.733 60.0247 281.469 60.1912C281.209 60.3578 280.897 60.4411 280.532 60.4411ZM280.532 59.5093C280.682 59.5093 280.807 59.4642 280.907 59.374C281.008 59.2837 281.082 59.1588 281.131 58.9992C281.183 58.8395 281.209 58.6504 281.209 58.4317C281.209 58.2096 281.185 58.017 281.136 57.8539C281.091 57.6908 281.017 57.5659 280.912 57.4791C280.812 57.3889 280.685 57.3438 280.532 57.3438C280.39 57.3438 280.269 57.3889 280.168 57.4791C280.071 57.5694 279.996 57.6978 279.944 57.8643C279.892 58.0274 279.866 58.2166 279.866 58.4317C279.866 58.6469 279.892 58.8361 279.944 58.9992C279.996 59.1588 280.071 59.2837 280.168 59.374C280.269 59.4642 280.39 59.5093 280.532 59.5093ZM285.623 64.4598C285.256 64.4598 284.942 64.3765 284.681 64.21C284.424 64.0399 284.228 63.8039 284.093 63.502C283.961 63.2001 283.895 62.8513 283.895 62.4557C283.895 62.0566 283.963 61.7043 284.098 61.3989C284.237 61.0935 284.435 60.8558 284.692 60.6858C284.952 60.5157 285.263 60.4307 285.623 60.4307C285.995 60.4307 286.311 60.5157 286.571 60.6858C286.831 60.8558 287.027 61.0935 287.159 61.3989C287.294 61.7009 287.362 62.0531 287.362 62.4557C287.362 62.8548 287.294 63.2053 287.159 63.5072C287.027 63.8091 286.829 64.0434 286.566 64.21C286.305 64.3765 285.991 64.4598 285.623 64.4598ZM285.623 63.528C285.769 63.528 285.894 63.4846 285.998 63.3979C286.102 63.3077 286.177 63.1827 286.222 63.0231C286.271 62.8634 286.295 62.6743 286.295 62.4557C286.295 62.2336 286.271 62.041 286.222 61.8779C286.177 61.7113 286.104 61.5846 286.003 61.4978C285.903 61.4076 285.776 61.3625 285.623 61.3625C285.478 61.3625 285.355 61.4076 285.254 61.4978C285.157 61.5881 285.082 61.7165 285.03 61.8831C284.981 62.0462 284.955 62.237 284.952 62.4557C284.952 62.6743 284.98 62.8634 285.035 63.0231C285.091 63.1827 285.167 63.3077 285.264 63.3979C285.361 63.4846 285.481 63.528 285.623 63.528ZM285.056 56.6723H286.227L281.043 64.21H279.871L285.056 56.6723Z" fill="#C1D1C1"/>
<rect opacity="0.2" x="224" y="22" width="3" height="6" transform="rotate(30 224 22)" fill="#61541D"/>
<rect opacity="0.4" x="242" y="16.7764" width="3" height="6" transform="rotate(-15 242 16.7764)" fill="#61541D"/>
<rect opacity="0.6" x="276" y="8.77637" width="3" height="6" transform="rotate(-15 276 8.77637)" fill="#61541D"/>
<rect opacity="0.5" x="301" y="21" width="3" height="6" transform="rotate(30 301 21)" fill="#61541D"/>
<rect opacity="0.4" x="215" y="65.5" width="3" height="6" transform="rotate(-30 215 65.5)" fill="#61541D"/>
<rect opacity="0.4" x="239" y="83" width="3" height="6" transform="rotate(30 239 83)" fill="#61541D"/>
<rect opacity="0.3" x="305" y="61.7764" width="3" height="6" transform="rotate(-15 305 61.7764)" fill="#61541D"/>
</g>
<defs>
<filter id="filter0_i_63_11301" x="246.512" y="34.3311" width="43.3105" height="43.3105" filterUnits="userSpaceOnUse" color-interpolation-filters="sRGB">
<feFlood flood-opacity="0" result="BackgroundImageFix"/>
<feBlend mode="normal" in="SourceGraphic" in2="BackgroundImageFix" result="shape"/>
<feColorMatrix in="SourceAlpha" type="matrix" values="0 0 0 0 0 0 0 0 0 0 0 0 0 0 0 0 0 0 127 0" result="hardAlpha"/>
<feOffset dx="1.01907" dy="3.05722"/>
<feComposite in2="hardAlpha" operator="arithmetic" k2="-1" k3="1"/>
<feColorMatrix type="matrix" values="0 0 0 0 0 0 0 0 0 0 0 0 0 0 0 0 0 0 0.2 0"/>
<feBlend mode="normal" in2="shape" result="effect1_innerShadow_63_11301"/>
</filter>
<linearGradient id="paint0_linear_63_11301" x1="268.129" y1="66.9101" x2="268.634" y2="80.1524" gradientUnits="userSpaceOnUse">
<stop stop-color="#E2E9FF"/>
<stop offset="1" stop-color="#A4BAFF"/>
</linearGradient>
<linearGradient id="paint1_linear_63_11301" x1="280.317" y1="69.957" x2="280.317" y2="79.7073" gradientUnits="userSpaceOnUse">
<stop stop-color="#F3CF70"/>
<stop offset="0.505" stop-color="#EABC5B"/>
<stop offset="1" stop-color="#C19E55"/>
</linearGradient>
<linearGradient id="paint2_linear_63_11301" x1="280.317" y1="69.957" x2="280.317" y2="79.7073" gradientUnits="userSpaceOnUse">
<stop stop-color="#386937"/>
<stop offset="1" stop-color="#2B4B2A"/>
</linearGradient>
<linearGradient id="paint3_linear_63_11301" x1="280.317" y1="69.957" x2="280.317" y2="79.7073" gradientUnits="userSpaceOnUse">
<stop stop-color="#638261"/>
<stop offset="1" stop-color="#4A6148"/>
</linearGradient>
<linearGradient id="paint4_linear_63_11301" x1="268.129" y1="57.1601" x2="268.634" y2="70.4024" gradientUnits="userSpaceOnUse">
<stop stop-color="#E2E9FF"/>
<stop offset="1" stop-color="#A4BAFF"/>
</linearGradient>
<linearGradient id="paint5_linear_63_11301" x1="280.317" y1="60.207" x2="280.317" y2="69.9573" gradientUnits="userSpaceOnUse">
<stop stop-color="#F3CF70"/>
<stop offset="0.505" stop-color="#EABC5B"/>
<stop offset="1" stop-color="#C19E55"/>
</linearGradient>
<linearGradient id="paint6_linear_63_11301" x1="280.317" y1="60.207" x2="280.317" y2="69.9573" gradientUnits="userSpaceOnUse">
<stop stop-color="#386937"/>
<stop offset="1" stop-color="#2B4B2A"/>
</linearGradient>
<linearGradient id="paint7_linear_63_11301" x1="280.317" y1="60.207" x2="280.317" y2="69.9573" gradientUnits="userSpaceOnUse">
<stop stop-color="#638261"/>
<stop offset="1" stop-color="#4A6148"/>
</linearGradient>
<linearGradient id="paint8_linear_63_11301" x1="268.129" y1="47.4091" x2="268.634" y2="60.6514" gradientUnits="userSpaceOnUse">
<stop stop-color="#E2E9FF"/>
<stop offset="1" stop-color="#A4BAFF"/>
</linearGradient>
<linearGradient id="paint9_linear_63_11301" x1="280.317" y1="50.4561" x2="280.317" y2="60.2063" gradientUnits="userSpaceOnUse">
<stop stop-color="#F3CF70"/>
<stop offset="0.505" stop-color="#EABC5B"/>
<stop offset="1" stop-color="#C19E55"/>
</linearGradient>
<linearGradient id="paint10_linear_63_11301" x1="280.317" y1="50.4561" x2="280.317" y2="60.2063" gradientUnits="userSpaceOnUse">
<stop stop-color="#386937"/>
<stop offset="1" stop-color="#2B4B2A"/>
</linearGradient>
<linearGradient id="paint11_linear_63_11301" x1="280.317" y1="50.4561" x2="280.317" y2="60.2063" gradientUnits="userSpaceOnUse">
<stop stop-color="#638261"/>
<stop offset="1" stop-color="#4A6148"/>
</linearGradient>
<linearGradient id="paint12_linear_63_11301" x1="268.129" y1="37.6591" x2="268.634" y2="50.9014" gradientUnits="userSpaceOnUse">
<stop stop-color="#E2E9FF"/>
<stop offset="1" stop-color="#A4BAFF"/>
</linearGradient>
<linearGradient id="paint13_linear_63_11301" x1="280.317" y1="40.7061" x2="280.317" y2="50.4563" gradientUnits="userSpaceOnUse">
<stop stop-color="#F3CF70"/>
<stop offset="0.505" stop-color="#EABC5B"/>
<stop offset="1" stop-color="#C19E55"/>
</linearGradient>
<linearGradient id="paint14_linear_63_11301" x1="280.317" y1="40.7061" x2="280.317" y2="50.4563" gradientUnits="userSpaceOnUse">
<stop stop-color="#386937"/>
<stop offset="1" stop-color="#2B4B2A"/>
</linearGradient>
<linearGradient id="paint15_linear_63_11301" x1="280.317" y1="40.7061" x2="280.317" y2="50.4563" gradientUnits="userSpaceOnUse">
<stop stop-color="#638261"/>
<stop offset="1" stop-color="#4A6148"/>
</linearGradient>
<linearGradient id="paint16_linear_63_11301" x1="249.502" y1="45.954" x2="250.007" y2="59.1963" gradientUnits="userSpaceOnUse">
<stop stop-color="#E2E9FF"/>
<stop offset="1" stop-color="#A4BAFF"/>
</linearGradient>
<linearGradient id="paint17_linear_63_11301" x1="261.69" y1="49.001" x2="261.69" y2="58.7512" gradientUnits="userSpaceOnUse">
<stop stop-color="#F3CF70"/>
<stop offset="0.505" stop-color="#EABC5B"/>
<stop offset="1" stop-color="#C19E55"/>
</linearGradient>
<linearGradient id="paint18_linear_63_11301" x1="249.502" y1="36.204" x2="250.007" y2="49.4463" gradientUnits="userSpaceOnUse">
<stop stop-color="#E2E9FF"/>
<stop offset="1" stop-color="#A4BAFF"/>
</linearGradient>
<linearGradient id="paint19_linear_63_11301" x1="261.69" y1="39.251" x2="261.69" y2="49.0012" gradientUnits="userSpaceOnUse">
<stop stop-color="#F3CF70"/>
<stop offset="0.505" stop-color="#EABC5B"/>
<stop offset="1" stop-color="#C19E55"/>
</linearGradient>
<linearGradient id="paint20_linear_63_11301" x1="249.502" y1="26.454" x2="250.007" y2="39.6963" gradientUnits="userSpaceOnUse">
<stop stop-color="#E2E9FF"/>
<stop offset="1" stop-color="#A4BAFF"/>
</linearGradient>
<linearGradient id="paint21_linear_63_11301" x1="261.69" y1="29.501" x2="261.69" y2="39.2512" gradientUnits="userSpaceOnUse">
<stop stop-color="#F3CF70"/>
<stop offset="0.505" stop-color="#EABC5B"/>
<stop offset="1" stop-color="#C19E55"/>
</linearGradient>
<linearGradient id="paint22_linear_63_11301" x1="261.69" y1="29.501" x2="261.69" y2="39.2512" gradientUnits="userSpaceOnUse">
<stop stop-color="#386937"/>
<stop offset="1" stop-color="#2B4B2A"/>
</linearGradient>
<linearGradient id="paint23_linear_63_11301" x1="261.69" y1="29.501" x2="261.69" y2="39.2512" gradientUnits="userSpaceOnUse">
<stop stop-color="#638261"/>
<stop offset="1" stop-color="#4A6148"/>
</linearGradient>
<linearGradient id="paint24_linear_63_11301" x1="249.502" y1="16.703" x2="250.007" y2="29.9453" gradientUnits="userSpaceOnUse">
<stop stop-color="#E2E9FF"/>
<stop offset="1" stop-color="#A4BAFF"/>
</linearGradient>
<linearGradient id="paint25_linear_63_11301" x1="261.69" y1="19.75" x2="261.69" y2="29.5003" gradientUnits="userSpaceOnUse">
<stop stop-color="#F3CF70"/>
<stop offset="0.505" stop-color="#EABC5B"/>
<stop offset="1" stop-color="#C19E55"/>
</linearGradient>
<linearGradient id="paint26_linear_63_11301" x1="261.69" y1="19.75" x2="261.69" y2="29.5003" gradientUnits="userSpaceOnUse">
<stop stop-color="#386937"/>
<stop offset="1" stop-color="#2B4B2A"/>
</linearGradient>
<linearGradient id="paint27_linear_63_11301" x1="261.69" y1="19.75" x2="261.69" y2="29.5003" gradientUnits="userSpaceOnUse">
<stop stop-color="#638261"/>
<stop offset="1" stop-color="#4A6148"/>
</linearGradient>
<linearGradient id="paint28_linear_63_11301" x1="249.502" y1="6.95304" x2="250.007" y2="20.1953" gradientUnits="userSpaceOnUse">
<stop stop-color="#E2E9FF"/>
<stop offset="1" stop-color="#A4BAFF"/>
</linearGradient>
<linearGradient id="paint29_linear_63_11301" x1="261.69" y1="10" x2="261.69" y2="19.7503" gradientUnits="userSpaceOnUse">
<stop stop-color="#F3CF70"/>
<stop offset="0.505" stop-color="#EABC5B"/>
<stop offset="1" stop-color="#C19E55"/>
</linearGradient>
<linearGradient id="paint30_linear_63_11301" x1="261.69" y1="10" x2="261.69" y2="19.7503" gradientUnits="userSpaceOnUse">
<stop stop-color="#386937"/>
<stop offset="1" stop-color="#2B4B2A"/>
</linearGradient>
<linearGradient id="paint31_linear_63_11301" x1="261.69" y1="10" x2="261.69" y2="19.7503" gradientUnits="userSpaceOnUse">
<stop stop-color="#638261"/>
<stop offset="1" stop-color="#4A6148"/>
</linearGradient>
<linearGradient id="paint32_linear_63_11301" x1="231.274" y1="50.83" x2="232.278" y2="64.015" gradientUnits="userSpaceOnUse">
<stop stop-color="#E2E9FF"/>
<stop offset="1" stop-color="#A4BAFF"/>
</linearGradient>
<linearGradient id="paint33_linear_63_11301" x1="237.368" y1="53.877" x2="237.368" y2="63.6272" gradientUnits="userSpaceOnUse">
<stop stop-color="#F3CF70"/>
<stop offset="0.505" stop-color="#EABC5B"/>
<stop offset="1" stop-color="#C19E55"/>
</linearGradient>
<linearGradient id="paint34_linear_63_11301" x1="237.368" y1="53.877" x2="237.368" y2="63.6272" gradientUnits="userSpaceOnUse">
<stop stop-color="#386937"/>
<stop offset="1" stop-color="#2B4B2A"/>
</linearGradient>
<linearGradient id="paint35_linear_63_11301" x1="237.368" y1="53.877" x2="237.368" y2="63.6272" gradientUnits="userSpaceOnUse">
<stop stop-color="#638261"/>
<stop offset="1" stop-color="#4A6148"/>
</linearGradient>
<linearGradient id="paint36_linear_63_11301" x1="231.274" y1="41.079" x2="232.278" y2="54.264" gradientUnits="userSpaceOnUse">
<stop stop-color="#E2E9FF"/>
<stop offset="1" stop-color="#A4BAFF"/>
</linearGradient>
<linearGradient id="paint37_linear_63_11301" x1="237.368" y1="44.126" x2="237.368" y2="53.8762" gradientUnits="userSpaceOnUse">
<stop stop-color="#F3CF70"/>
<stop offset="0.505" stop-color="#EABC5B"/>
<stop offset="1" stop-color="#C19E55"/>
</linearGradient>
<linearGradient id="paint38_linear_63_11301" x1="237.368" y1="44.126" x2="237.368" y2="53.8762" gradientUnits="userSpaceOnUse">
<stop stop-color="#386937"/>
<stop offset="1" stop-color="#2B4B2A"/>
</linearGradient>
<linearGradient id="paint39_linear_63_11301" x1="237.368" y1="44.126" x2="237.368" y2="53.8762" gradientUnits="userSpaceOnUse">
<stop stop-color="#638261"/>
<stop offset="1" stop-color="#4A6148"/>
</linearGradient>
<linearGradient id="paint40_linear_63_11301" x1="231.274" y1="31.329" x2="232.278" y2="44.514" gradientUnits="userSpaceOnUse">
<stop stop-color="#E2E9FF"/>
<stop offset="1" stop-color="#A4BAFF"/>
</linearGradient>
<linearGradient id="paint41_linear_63_11301" x1="237.368" y1="34.376" x2="237.368" y2="44.1262" gradientUnits="userSpaceOnUse">
<stop stop-color="#F3CF70"/>
<stop offset="0.505" stop-color="#EABC5B"/>
<stop offset="1" stop-color="#C19E55"/>
</linearGradient>
<linearGradient id="paint42_linear_63_11301" x1="237.368" y1="34.376" x2="237.368" y2="44.1262" gradientUnits="userSpaceOnUse">
<stop stop-color="#386937"/>
<stop offset="1" stop-color="#2B4B2A"/>
</linearGradient>
<linearGradient id="paint43_linear_63_11301" x1="237.368" y1="34.376" x2="237.368" y2="44.1262" gradientUnits="userSpaceOnUse">
<stop stop-color="#638261"/>
<stop offset="1" stop-color="#4A6148"/>
</linearGradient>
<linearGradient id="paint44_linear_63_11301" x1="255.173" y1="13.7585" x2="268.166" y2="81.9727" gradientUnits="userSpaceOnUse">
<stop stop-color="#FAE075"/>
<stop offset="1" stop-color="#E7A944"/>
</linearGradient>
<linearGradient id="paint45_linear_63_11301" x1="268.166" y1="30" x2="268.166" y2="81.9727" gradientUnits="userSpaceOnUse">
<stop stop-color="#386937"/>
<stop offset="1" stop-color="#2B4B2A"/>
</linearGradient>
<linearGradient id="paint46_linear_63_11301" x1="268.166" y1="30" x2="268.166" y2="81.9727" gradientUnits="userSpaceOnUse">
<stop stop-color="#5B7D5B"/>
<stop offset="1" stop-color="#386937"/>
</linearGradient>
<linearGradient id="paint47_linear_63_11301" x1="268.166" y1="30" x2="268.166" y2="81.9727" gradientUnits="userSpaceOnUse">
<stop stop-color="#7A9B79"/>
<stop offset="1" stop-color="#596F58"/>
</linearGradient>
<linearGradient id="paint48_linear_63_11301" x1="268.167" y1="34.3311" x2="268.167" y2="77.6416" gradientUnits="userSpaceOnUse">
<stop stop-color="#F3CF70"/>
<stop offset="0.505" stop-color="#EABC5B"/>
<stop offset="1" stop-color="#C19E55"/>
</linearGradient>
<linearGradient id="paint49_linear_63_11301" x1="268.167" y1="34.3311" x2="268.167" y2="77.6416" gradientUnits="userSpaceOnUse">
<stop stop-color="#386937"/>
<stop offset="1" stop-color="#2B4B2A"/>
</linearGradient>
<linearGradient id="paint50_linear_63_11301" x1="268.167" y1="34.3311" x2="268.167" y2="77.6416" gradientUnits="userSpaceOnUse">
<stop stop-color="#638261"/>
<stop offset="1" stop-color="#4A6148"/>
</linearGradient>
<clipPath id="clip0_63_11301">
<path d="M215 0H323C329.627 0 335 5.37258 335 12V84C335 90.6274 329.627 96 323 96H215V0Z" fill="white"/>
</clipPath>
</defs>
</svg>
