<svg width="335" height="96" viewBox="0 0 335 96" fill="none" xmlns="http://www.w3.org/2000/svg">
<rect width="335" height="96" rx="12" fill="#F3F6F3"/>
<path d="M21.8887 19.4688H26.459V18.6367H27.7539V22.1641H20.6055V18.6367H21.8887V19.4688ZM26.459 21.1914V20.418H21.8887V21.1914H26.459ZM29.002 23.8809H19.3574V22.8613H29.002V23.8809ZM27.8066 27.1855H21.7832V28.2754H20.4941V26.2656H26.5176V25.5859H20.4883V24.6191H27.8066V27.1855ZM28.0938 28.9492H20.4941V27.9531H28.0938V28.9492ZM39.3965 25.2285H29.7168V24.1797H39.3965V25.2285ZM38.2012 21.4434H32.2363V22.6914H30.9414V20.4941H36.8887V19.7031H30.9121V18.6777H38.2012V21.4434ZM38.4062 23.3008H30.9414V22.2871H38.4062V23.3008ZM35.1953 24.7422H33.9062V22.7734H35.1953V24.7422ZM38.2598 28.9727H36.9414V26.9336H30.7949V25.8965H38.2598V28.9727ZM46.2695 23.5996H44.4414V22.5215H46.2695V23.5996ZM43.0879 21.6836C43.084 22.4336 42.9941 23.1523 42.8184 23.8398C42.6465 24.5234 42.3809 25.1406 42.0215 25.6914C41.6621 26.2383 41.2168 26.668 40.6855 26.9805L39.9297 25.9961C40.4141 25.7188 40.8164 25.3516 41.1367 24.8945C41.4609 24.4336 41.7012 23.9297 41.8574 23.3828C42.0137 22.8359 42.0938 22.2695 42.0977 21.6836V21.3027H43.0879V21.6836ZM43.3281 21.6836C43.3281 22.2539 43.4062 22.7988 43.5625 23.3184C43.7188 23.8379 43.959 24.3125 44.2832 24.7422C44.6074 25.1719 45.0078 25.5156 45.4844 25.7734L44.7637 26.7344C44.2246 26.4531 43.7734 26.0527 43.4102 25.5332C43.0508 25.0137 42.7812 24.4258 42.6016 23.7695C42.4258 23.1133 42.3398 22.418 42.3438 21.6836V21.3027H43.3281V21.6836ZM45.1035 21.3555H40.293V20.3008H45.1035V21.3555ZM43.3223 21.1387H42.0977V18.8242H43.3223V21.1387ZM49.2051 29.0312H47.9746V18.4492H49.2051V29.0312ZM47.0488 28.5273H45.8301V18.6543H47.0488V28.5273ZM59.2832 26.1133H57.9766V18.4609H59.2832V26.1133ZM59.582 28.8438H52.2754V27.7773H59.582V28.8438ZM53.5879 28.1934H52.2754V25.3398H53.5879V28.1934ZM53.5117 19.1523C54.043 19.1523 54.5254 19.2676 54.959 19.498C55.3965 19.7246 55.7402 20.0391 55.9902 20.4414C56.2402 20.8398 56.3652 21.291 56.3652 21.7949C56.3652 22.3105 56.2402 22.7715 55.9902 23.1777C55.7402 23.5801 55.3984 23.8945 54.9648 24.1211C54.5312 24.3477 54.0469 24.4609 53.5117 24.4609C52.9766 24.4609 52.4922 24.3477 52.0586 24.1211C51.6289 23.8945 51.2871 23.5801 51.0332 23.1777C50.7832 22.7715 50.6582 22.3105 50.6582 21.7949C50.6582 21.291 50.7832 20.8398 51.0332 20.4414C51.2871 20.0391 51.6289 19.7246 52.0586 19.498C52.4922 19.2676 52.9766 19.1523 53.5117 19.1523ZM53.5117 20.2949C53.2109 20.2949 52.9395 20.3574 52.6973 20.4824C52.459 20.6035 52.2715 20.7793 52.1348 21.0098C51.998 21.2363 51.9297 21.498 51.9297 21.7949C51.9297 22.1035 51.998 22.373 52.1348 22.6035C52.2715 22.834 52.459 23.0117 52.6973 23.1367C52.9395 23.2617 53.2109 23.3223 53.5117 23.3184C53.8086 23.3223 54.0762 23.2617 54.3145 23.1367C54.5527 23.0117 54.7383 22.834 54.8711 22.6035C55.0078 22.373 55.0762 22.1035 55.0762 21.7949C55.0762 21.498 55.0078 21.2363 54.8711 21.0098C54.7383 20.7793 54.5527 20.6035 54.3145 20.4824C54.0762 20.3574 53.8086 20.2949 53.5117 20.2949ZM65.6641 19.041C66.4023 19.041 67.0723 19.166 67.6738 19.416C68.2754 19.666 68.748 20.0195 69.0918 20.4766C69.4355 20.9297 69.6074 21.4512 69.6074 22.041C69.6074 22.6348 69.4355 23.1602 69.0918 23.6172C68.748 24.0703 68.2754 24.4219 67.6738 24.6719C67.0723 24.918 66.4023 25.041 65.6641 25.041C64.9219 25.041 64.252 24.918 63.6543 24.6719C63.0566 24.4219 62.584 24.0703 62.2363 23.6172C61.8926 23.1602 61.7207 22.6348 61.7207 22.041C61.7207 21.4512 61.8926 20.9297 62.2363 20.4766C62.584 20.0195 63.0566 19.666 63.6543 19.416C64.252 19.166 64.9219 19.041 65.6641 19.041ZM65.6641 20.0957C65.1484 20.0957 64.6875 20.1758 64.2812 20.3359C63.875 20.4922 63.5566 20.7188 63.3262 21.0156C63.0957 21.3125 62.9824 21.6543 62.9863 22.041C62.9824 22.4316 63.0957 22.7734 63.3262 23.0664C63.5566 23.3555 63.873 23.5801 64.2754 23.7402C64.6816 23.8965 65.1445 23.9746 65.6641 23.9746C66.1758 23.9746 66.6328 23.8965 67.0352 23.7402C67.4414 23.5801 67.7578 23.3555 67.9844 23.0664C68.2109 22.7734 68.3242 22.4316 68.3242 22.041C68.3242 21.6543 68.209 21.3125 67.9785 21.0156C67.752 20.7188 67.4355 20.4922 67.0293 20.3359C66.627 20.1758 66.1719 20.0957 65.6641 20.0957ZM70.5215 27.7129H60.8418V26.6465H70.5215V27.7129ZM80.8926 27.8125H71.2129V26.7402H80.8926V27.8125ZM76.668 27.1973H75.3848V24.6484H76.668V27.1973ZM79.7383 22.5742H73.6562V24.4961H72.3555V21.5488H78.4551V20.2246H72.3379V19.1699H79.7383V22.5742ZM79.9902 25.0059H72.3555V23.9453H79.9902V25.0059ZM92.793 26.1953H91.4922V18.4551H92.793V26.1953ZM94.2754 22.6328H92.4062V21.5547H94.2754V22.6328ZM93.209 28.8438H86.0078V27.7773H93.209V28.8438ZM87.3027 28.2402H86.0078V25.3867H87.3027V28.2402ZM87.4082 19.1523C87.9434 19.1523 88.4277 19.2676 88.8613 19.498C89.2988 19.7246 89.6406 20.041 89.8867 20.4473C90.1367 20.8496 90.2637 21.3066 90.2676 21.8184C90.2637 22.3262 90.1367 22.7832 89.8867 23.1895C89.6406 23.5918 89.2988 23.9082 88.8613 24.1387C88.4277 24.3691 87.9434 24.4844 87.4082 24.4844C86.8809 24.4844 86.3984 24.3691 85.9609 24.1387C85.5234 23.9082 85.1797 23.5898 84.9297 23.1836C84.6797 22.7773 84.5547 22.3223 84.5547 21.8184C84.5547 21.3066 84.6797 20.8496 84.9297 20.4473C85.1797 20.041 85.5215 19.7246 85.9551 19.498C86.3926 19.2676 86.877 19.1523 87.4082 19.1523ZM87.4082 20.2949C87.1152 20.2949 86.8477 20.3574 86.6055 20.4824C86.3672 20.6035 86.1777 20.7812 86.0371 21.0156C85.9004 21.2461 85.832 21.5137 85.832 21.8184C85.832 22.1191 85.9004 22.3848 86.0371 22.6152C86.1777 22.8418 86.3672 23.0195 86.6055 23.1484C86.8477 23.2773 87.1152 23.3418 87.4082 23.3418C87.709 23.3418 87.9785 23.2793 88.2168 23.1543C88.459 23.0254 88.6484 22.8457 88.7852 22.6152C88.9258 22.3848 88.9961 22.1191 88.9961 21.8184C88.9961 21.5137 88.9258 21.2461 88.7852 21.0156C88.6484 20.7812 88.459 20.6035 88.2168 20.4824C87.9785 20.3574 87.709 20.2949 87.4082 20.2949ZM103.076 22.3223H100.498V21.2617H103.076V22.3223ZM103.68 26.2012H102.379V18.4609H103.68V26.2012ZM103.949 28.8438H96.7305V27.7773H103.949V28.8438ZM98.0371 28.375H96.7305V25.5156H98.0371V28.375ZM98.4414 20.5586C98.4414 21.2266 98.3262 21.8535 98.0957 22.4395C97.8652 23.0215 97.5254 23.5332 97.0762 23.9746C96.6309 24.416 96.0918 24.7461 95.459 24.9648L94.7852 23.9102C95.332 23.7305 95.8008 23.4688 96.1914 23.125C96.582 22.7773 96.877 22.3828 97.0762 21.9414C97.2754 21.5 97.375 21.0391 97.375 20.5586V19.8145H98.4414V20.5586ZM98.6992 20.5703C98.6992 21.0039 98.7949 21.4258 98.9863 21.8359C99.1816 22.2461 99.4648 22.6152 99.8359 22.9434C100.211 23.2715 100.662 23.5234 101.189 23.6992L100.539 24.7363C99.9219 24.5293 99.3965 24.2148 98.9629 23.793C98.5293 23.3711 98.1992 22.8848 97.9727 22.334C97.75 21.7793 97.6387 21.1914 97.6387 20.5703V19.8145H98.6992V20.5703ZM100.896 20.2773H95.166V19.2227H100.896V20.2773ZM113.477 29.0312H112.188V18.4492H113.477V29.0312ZM115.111 23.7461H113.184V22.6738H115.111V23.7461ZM111.367 21.1211H105.127V20.0723H111.367V21.1211ZM108.279 21.8066C108.783 21.8066 109.238 21.9141 109.645 22.1289C110.051 22.3398 110.369 22.6348 110.6 23.0137C110.83 23.3926 110.947 23.8223 110.951 24.3027C110.947 24.7832 110.83 25.2129 110.6 25.5918C110.369 25.9707 110.051 26.2656 109.645 26.4766C109.238 26.6875 108.783 26.793 108.279 26.793C107.771 26.793 107.314 26.6875 106.908 26.4766C106.502 26.2656 106.184 25.9707 105.953 25.5918C105.727 25.2129 105.613 24.7832 105.613 24.3027C105.613 23.8223 105.727 23.3926 105.953 23.0137C106.184 22.6348 106.502 22.3398 106.908 22.1289C107.314 21.9141 107.771 21.8066 108.279 21.8066ZM108.279 22.8789C108.006 22.8789 107.762 22.9375 107.547 23.0547C107.332 23.1719 107.162 23.3398 107.037 23.5586C106.916 23.7734 106.855 24.0215 106.855 24.3027C106.855 24.5879 106.916 24.8379 107.037 25.0527C107.162 25.2637 107.332 25.4277 107.547 25.5449C107.762 25.6621 108.006 25.7188 108.279 25.7148C108.553 25.7188 108.797 25.6621 109.012 25.5449C109.23 25.4277 109.398 25.2637 109.516 25.0527C109.637 24.8379 109.699 24.5879 109.703 24.3027C109.699 24.0215 109.637 23.7734 109.516 23.5586C109.398 23.3398 109.23 23.1719 109.012 23.0547C108.797 22.9375 108.553 22.8789 108.279 22.8789ZM108.924 20.4941H107.629V18.6016H108.924V20.4941ZM124.686 29.0312H123.455V18.4492H124.686V29.0312ZM121.492 23.6582H119.049V22.6211H121.492V23.6582ZM122.441 28.5449H121.211V18.707H122.441V28.5449ZM120.162 19.7441C120.158 20.7598 120.027 21.6914 119.77 22.5391C119.512 23.3867 119.092 24.1719 118.51 24.8945C117.932 25.6133 117.166 26.25 116.213 26.8047L115.469 25.8789C116.277 25.3984 116.934 24.8652 117.438 24.2793C117.945 23.6895 118.314 23.043 118.545 22.3398C118.775 21.6367 118.893 20.8574 118.896 20.002V19.7441H120.162ZM119.336 20.7988H116.008V19.7441H119.336V20.7988ZM138.432 24.4375H128.787V23.3828H138.432V24.4375ZM133.598 25.1348C134.359 25.1348 135.014 25.2129 135.561 25.3691C136.107 25.5215 136.527 25.7441 136.82 26.0371C137.117 26.3301 137.266 26.6797 137.266 27.0859C137.266 27.4961 137.119 27.8457 136.826 28.1348C136.537 28.4277 136.117 28.6484 135.566 28.7969C135.016 28.9492 134.359 29.0254 133.598 29.0254C132.828 29.0254 132.168 28.9492 131.617 28.7969C131.066 28.6484 130.643 28.4277 130.346 28.1348C130.053 27.8457 129.906 27.4961 129.906 27.0859C129.906 26.6797 130.053 26.3301 130.346 26.0371C130.643 25.7441 131.066 25.5215 131.617 25.3691C132.172 25.2129 132.832 25.1348 133.598 25.1348ZM133.598 26.1543C133.082 26.1582 132.648 26.1953 132.297 26.2656C131.949 26.332 131.684 26.4355 131.5 26.5762C131.32 26.7129 131.232 26.8828 131.236 27.0859C131.232 27.2891 131.32 27.459 131.5 27.5957C131.684 27.7324 131.949 27.8359 132.297 27.9062C132.645 27.9727 133.078 28.0059 133.598 28.0059C134.105 28.0059 134.533 27.9727 134.881 27.9062C135.232 27.8359 135.5 27.7324 135.684 27.5957C135.867 27.459 135.959 27.2891 135.959 27.0859C135.959 26.8828 135.869 26.7129 135.689 26.5762C135.51 26.4355 135.242 26.332 134.887 26.2656C134.535 26.1953 134.105 26.1582 133.598 26.1543ZM133.873 19.7734C133.873 20.3125 133.701 20.8027 133.357 21.2441C133.018 21.6855 132.531 22.0527 131.898 22.3457C131.266 22.6348 130.529 22.8242 129.689 22.9141L129.25 21.8828C129.949 21.8164 130.562 21.6777 131.09 21.4668C131.617 21.2559 132.02 21.0039 132.297 20.7109C132.578 20.418 132.719 20.1055 132.719 19.7734V19.4805H133.873V19.7734ZM134.482 19.7734C134.482 20.1016 134.621 20.4141 134.898 20.7109C135.18 21.0039 135.586 21.2559 136.117 21.4668C136.648 21.6777 137.27 21.8164 137.98 21.8828L137.518 22.9141C136.678 22.8242 135.941 22.6348 135.309 22.3457C134.676 22.0566 134.186 21.6914 133.838 21.25C133.494 20.8086 133.32 20.3164 133.316 19.7734V19.4805H134.482V19.7734ZM137.564 20.0137H129.66V18.959H137.564V20.0137ZM147.391 22.9258H144.52V21.877H147.391V22.9258ZM142.803 20.9922C142.799 21.8516 142.684 22.6699 142.457 23.4473C142.23 24.2207 141.896 24.9082 141.455 25.5098C141.014 26.1074 140.486 26.5625 139.873 26.875L139.047 25.8145C139.605 25.5566 140.088 25.1758 140.494 24.6719C140.904 24.1641 141.213 23.5938 141.42 22.9609C141.631 22.3281 141.738 21.6719 141.742 20.9922V19.2988H142.803V20.9922ZM143.066 20.9922C143.066 21.6641 143.168 22.3066 143.371 22.9199C143.578 23.5332 143.879 24.0801 144.273 24.5605C144.672 25.0371 145.145 25.3965 145.691 25.6387L144.906 26.6816C144.289 26.377 143.764 25.9395 143.33 25.3691C142.9 24.7949 142.574 24.1367 142.352 23.3945C142.129 22.6484 142.018 21.8477 142.018 20.9922V19.2988H143.066V20.9922ZM148.029 29.0605H146.74V18.4492H148.029V29.0605ZM156.256 24.8008H154.955V23.3418H156.256V24.8008ZM160.779 25.627H159.473V18.4609H160.779V25.627ZM162.209 22.6211H160.299V21.5488H162.209V22.6211ZM152.377 24.3555C153.635 24.3555 154.803 24.3359 155.881 24.2969C156.963 24.2578 157.979 24.1758 158.928 24.0508L159.027 24.9531C158.023 25.1289 156.988 25.2441 155.922 25.2988C154.855 25.3496 153.691 25.375 152.43 25.375L152.289 24.3555H152.377ZM160.779 29.0312H159.473V27.0977H153.619V26.0781H160.779V29.0312ZM158.641 20.2598H152.559V19.3047H158.641V20.2598ZM155.594 20.5527C156.105 20.5527 156.555 20.6172 156.941 20.7461C157.328 20.8711 157.627 21.0527 157.838 21.291C158.049 21.5254 158.154 21.8027 158.154 22.123C158.154 22.4473 158.049 22.7285 157.838 22.9668C157.627 23.2012 157.328 23.3848 156.941 23.5176C156.555 23.6465 156.105 23.7109 155.594 23.7109C155.082 23.7109 154.635 23.6465 154.252 23.5176C153.869 23.3848 153.57 23.2012 153.355 22.9668C153.145 22.7285 153.039 22.4473 153.039 22.123C153.039 21.8027 153.145 21.5254 153.355 21.291C153.57 21.0527 153.869 20.8711 154.252 20.7461C154.639 20.6172 155.086 20.5527 155.594 20.5527ZM155.594 21.4375C155.316 21.4336 155.08 21.457 154.885 21.5078C154.689 21.5586 154.541 21.6367 154.439 21.7422C154.338 21.8477 154.287 21.9746 154.287 22.123C154.287 22.2715 154.338 22.3984 154.439 22.5039C154.541 22.6094 154.689 22.6914 154.885 22.75C155.084 22.8086 155.32 22.8359 155.594 22.832C155.867 22.8359 156.102 22.8086 156.297 22.75C156.496 22.6914 156.646 22.6094 156.748 22.5039C156.854 22.3984 156.906 22.2715 156.906 22.123C156.906 21.9746 156.854 21.8477 156.748 21.7422C156.646 21.6367 156.498 21.5586 156.303 21.5078C156.107 21.457 155.871 21.4336 155.594 21.4375ZM156.256 19.7617H154.955V18.3672H156.256V19.7617ZM171.572 26.1133H170.266V18.4609H171.572V26.1133ZM171.871 28.8438H164.564V27.7773H171.871V28.8438ZM165.877 28.1934H164.564V25.3398H165.877V28.1934ZM165.801 19.1523C166.332 19.1523 166.814 19.2676 167.248 19.498C167.686 19.7246 168.029 20.0391 168.279 20.4414C168.529 20.8398 168.654 21.291 168.654 21.7949C168.654 22.3105 168.529 22.7715 168.279 23.1777C168.029 23.5801 167.688 23.8945 167.254 24.1211C166.82 24.3477 166.336 24.4609 165.801 24.4609C165.266 24.4609 164.781 24.3477 164.348 24.1211C163.918 23.8945 163.576 23.5801 163.322 23.1777C163.072 22.7715 162.947 22.3105 162.947 21.7949C162.947 21.291 163.072 20.8398 163.322 20.4414C163.576 20.0391 163.918 19.7246 164.348 19.498C164.781 19.2676 165.266 19.1523 165.801 19.1523ZM165.801 20.2949C165.5 20.2949 165.229 20.3574 164.986 20.4824C164.748 20.6035 164.561 20.7793 164.424 21.0098C164.287 21.2363 164.219 21.498 164.219 21.7949C164.219 22.1035 164.287 22.373 164.424 22.6035C164.561 22.834 164.748 23.0117 164.986 23.1367C165.229 23.2617 165.5 23.3223 165.801 23.3184C166.098 23.3223 166.365 23.2617 166.604 23.1367C166.842 23.0117 167.027 22.834 167.16 22.6035C167.297 22.373 167.365 22.1035 167.365 21.7949C167.365 21.498 167.297 21.2363 167.16 21.0098C167.027 20.7793 166.842 20.6035 166.604 20.4824C166.365 20.3574 166.098 20.2949 165.801 20.2949ZM174.209 30.4492H173.096L173.699 27.1621H175.193L174.209 30.4492ZM22.9082 37.7051C22.9082 38.3301 22.793 38.9121 22.5625 39.4512C22.3359 39.9902 21.998 40.4609 21.5488 40.8633C21.0996 41.2617 20.5605 41.5547 19.9316 41.7422L19.3164 40.7344C19.8555 40.5703 20.3145 40.332 20.6934 40.0195C21.0762 39.707 21.3672 39.3535 21.5664 38.959C21.7656 38.5605 21.8652 38.1426 21.8652 37.7051V37.2832H22.9082V37.7051ZM23.1543 37.7051C23.1543 38.1035 23.2559 38.4844 23.459 38.8477C23.6621 39.2109 23.9551 39.5352 24.3379 39.8203C24.7246 40.1055 25.1895 40.3203 25.7324 40.4648L25.1113 41.4668C24.4785 41.2949 23.9355 41.0254 23.4824 40.6582C23.0293 40.291 22.6836 39.8535 22.4453 39.3457C22.2109 38.8379 22.0938 38.291 22.0938 37.7051V37.2832H23.1543V37.7051ZM25.375 37.6523H19.6445V36.6211H25.375V37.6523ZM23.1719 37.0195H21.8652V35.4023H23.1719V37.0195ZM27.25 39.4102H25.0527V38.3555H27.25V39.4102ZM28.2227 41.8594H26.9219V35.4492H28.2227V41.8594ZM24.6426 42.0703C25.3848 42.0703 26.0273 42.1465 26.5703 42.2988C27.1133 42.4473 27.5293 42.6719 27.8184 42.9727C28.1113 43.2695 28.2578 43.625 28.2578 44.0391C28.2578 44.4531 28.1113 44.8105 27.8184 45.1113C27.5293 45.4121 27.1133 45.6387 26.5703 45.791C26.0273 45.9473 25.3848 46.0254 24.6426 46.0254C23.9004 46.0254 23.2578 45.9473 22.7148 45.791C22.1758 45.6387 21.7598 45.4121 21.4668 45.1113C21.1777 44.8105 21.0332 44.4531 21.0332 44.0391C21.0332 43.625 21.1777 43.2695 21.4668 42.9727C21.7598 42.6719 22.1758 42.4473 22.7148 42.2988C23.2578 42.1465 23.9004 42.0703 24.6426 42.0703ZM24.6426 43.0664C24.1504 43.0703 23.7305 43.1094 23.3828 43.1836C23.0391 43.2539 22.7773 43.3613 22.5977 43.5059C22.418 43.6504 22.3281 43.8281 22.3281 44.0391C22.3281 44.25 22.418 44.4297 22.5977 44.5781C22.7773 44.7227 23.0391 44.834 23.3828 44.9121C23.7305 44.9863 24.1504 45.0254 24.6426 45.0293C25.1348 45.0254 25.5547 44.9863 25.9023 44.9121C26.25 44.834 26.5117 44.7227 26.6875 44.5781C26.8672 44.4297 26.957 44.25 26.957 44.0391C26.957 43.8281 26.8672 43.6504 26.6875 43.5059C26.5117 43.3613 26.25 43.2539 25.9023 43.1836C25.5586 43.1094 25.1387 43.0703 24.6426 43.0664ZM37.5625 37.1426H30.8652V36.0938H37.5625V37.1426ZM39.373 41.6719H29.7285V40.6113H39.373V41.6719ZM35.166 46.0547H33.8535V41.3438H35.166V46.0547ZM38.1953 37.0957C38.1953 37.5918 38.1875 38.0273 38.1719 38.4023C38.1602 38.7734 38.123 39.2012 38.0605 39.6855C37.998 40.1699 37.9043 40.6914 37.7793 41.25L36.4902 41.1035C36.6113 40.5723 36.7012 40.0723 36.7598 39.6035C36.8184 39.1309 36.8555 38.7168 36.8711 38.3613C36.8867 38.002 36.8945 37.5781 36.8945 37.0898V37.0371V36.0938H38.1953V37.0371V37.0957ZM41.1777 47.4492H40.0645L40.668 44.1621H42.1621L41.1777 47.4492ZM55.2051 46.0312H53.9512V35.4492H55.2051V46.0312ZM54.3848 40.6699H52.5098V39.5977H54.3848V40.6699ZM52.873 45.5332H51.6367V35.6309H52.873V45.5332ZM49.0293 38.1562C49.0293 39.0547 48.9473 39.877 48.7832 40.623C48.6191 41.3652 48.3594 42.0254 48.0039 42.6035C47.6484 43.1777 47.1914 43.6289 46.6328 43.957L45.8301 42.9551C46.3418 42.6699 46.7617 42.2852 47.0898 41.8008C47.4219 41.3164 47.6621 40.7695 47.8105 40.1602C47.9629 39.5469 48.0371 38.8789 48.0332 38.1562V37.084H49.0293V38.1562ZM49.2988 38.1562C49.3027 38.8125 49.3809 39.4258 49.5332 39.9961C49.6895 40.5625 49.9297 41.0703 50.2539 41.5195C50.582 41.9688 51 42.3242 51.5078 42.5859L50.752 43.582C50.1855 43.2773 49.7188 42.8555 49.3516 42.3164C48.9883 41.7773 48.7207 41.1562 48.5488 40.4531C48.3809 39.75 48.2969 38.9844 48.2969 38.1562V37.084H49.2988V38.1562ZM51.0332 37.6582H46.1582V36.6035H51.0332V37.6582ZM64.6797 46.0254H63.3789V35.4492H64.6797V46.0254ZM66.25 40.6699H64.3457V39.5918H66.25V40.6699ZM61.8848 36.5566C61.8809 37.6348 61.7188 38.6387 61.3984 39.5684C61.0781 40.4941 60.5605 41.3457 59.8457 42.123C59.1309 42.9004 58.2051 43.5703 57.0684 44.1328L56.3359 43.125C57.2891 42.6445 58.082 42.0938 58.7148 41.4727C59.3477 40.8477 59.8203 40.1484 60.1328 39.375C60.4453 38.5977 60.6016 37.7344 60.6016 36.7852V36.5566H61.8848ZM61.2637 37.6289H56.8867V36.5566H61.2637V37.6289ZM75.5723 41.1387H74.2656V35.4492H75.5723V41.1387ZM69.8535 42.709H74.2715V41.625H75.5723V45.9082H68.5703V41.625H69.8535V42.709ZM74.2715 44.8535V43.7285H69.8535V44.8535H74.2715ZM69.8008 35.918C70.3398 35.9141 70.8262 36.0176 71.2598 36.2285C71.6934 36.4395 72.0332 36.7344 72.2793 37.1133C72.5293 37.4922 72.6543 37.9219 72.6543 38.4023C72.6543 38.875 72.5293 39.2988 72.2793 39.6738C72.0332 40.0449 71.6934 40.3379 71.2598 40.5527C70.8262 40.7637 70.3398 40.8691 69.8008 40.8691C69.2578 40.8691 68.7695 40.7637 68.3359 40.5527C67.9062 40.3379 67.5664 40.0449 67.3164 39.6738C67.0703 39.2988 66.9473 38.875 66.9473 38.4023C66.9473 37.918 67.0703 37.4883 67.3164 37.1133C67.5664 36.7344 67.9062 36.4395 68.3359 36.2285C68.7695 36.0176 69.2578 35.9141 69.8008 35.918ZM69.8008 37.0078C69.4922 37.0078 69.2188 37.0645 68.9805 37.1777C68.7422 37.291 68.5547 37.4551 68.418 37.6699C68.2852 37.8809 68.2188 38.125 68.2188 38.4023C68.2188 38.6797 68.2852 38.9238 68.418 39.1348C68.5547 39.3418 68.7422 39.5039 68.9805 39.6211C69.2188 39.7383 69.4922 39.7969 69.8008 39.7969C70.1055 39.7969 70.377 39.7383 70.6152 39.6211C70.8535 39.5039 71.0371 39.3418 71.166 39.1348C71.2988 38.9238 71.3652 38.6797 71.3652 38.4023C71.3652 38.125 71.2988 37.8809 71.166 37.6699C71.0371 37.4551 70.8535 37.291 70.6152 37.1777C70.377 37.0645 70.1055 37.0078 69.8008 37.0078ZM89.6699 44.7598H79.9902V43.6875H89.6699V44.7598ZM85.4453 43.9512H84.1621V41.1738H85.4453V43.9512ZM88.5508 41.3789H81.0508V36.2754H88.5508V41.3789ZM82.334 40.3535H87.2734V37.3125H82.334V40.3535ZM98.8574 40.3125H91.6152V39.2871H98.8574V40.3125ZM100.029 42.5332H90.3496V41.4902H100.029V42.5332ZM95.7988 46.0137H94.5156V42.082H95.7988V46.0137ZM98.7461 37.084H92.9512V39.7734H91.6152V36.0352H98.7461V37.084ZM111.883 46.0605H110.582V35.4492H111.883V46.0605ZM113.518 40.541H111.59V39.4688H113.518V40.541ZM104.893 42.3809C105.877 42.3809 106.74 42.3574 107.482 42.3105C108.225 42.2598 108.975 42.166 109.732 42.0293L109.879 43.1309C109.105 43.2676 108.344 43.3574 107.594 43.4004C106.844 43.4434 105.943 43.4629 104.893 43.459H104.02V42.3809H104.893ZM108.977 37.5117H105.32V42.9082H104.02V36.4512H108.977V37.5117ZM122.77 46.0605H121.451V35.4492H122.77V46.0605ZM117.062 36.2227C117.594 36.2227 118.068 36.375 118.486 36.6797C118.904 36.9844 119.23 37.4219 119.465 37.9922C119.699 38.5586 119.816 39.2148 119.816 39.9609C119.816 40.7148 119.699 41.375 119.465 41.9414C119.23 42.5078 118.904 42.9453 118.486 43.2539C118.068 43.5586 117.594 43.7109 117.062 43.7109C116.527 43.7109 116.051 43.5586 115.633 43.2539C115.215 42.9453 114.887 42.5078 114.648 41.9414C114.41 41.375 114.293 40.7148 114.297 39.9609C114.293 39.2148 114.41 38.5586 114.648 37.9922C114.887 37.4219 115.215 36.9844 115.633 36.6797C116.051 36.375 116.527 36.2227 117.062 36.2227ZM117.062 37.3945C116.762 37.3945 116.496 37.4961 116.266 37.6992C116.039 37.9023 115.863 38.1992 115.738 38.5898C115.617 38.9766 115.557 39.4336 115.557 39.9609C115.557 40.4961 115.617 40.957 115.738 41.3438C115.863 41.7305 116.039 42.0254 116.266 42.2285C116.496 42.4316 116.762 42.5312 117.062 42.5273C117.359 42.5312 117.621 42.4316 117.848 42.2285C118.074 42.0254 118.25 41.7305 118.375 41.3438C118.5 40.957 118.562 40.4961 118.562 39.9609C118.562 39.4297 118.5 38.9727 118.375 38.5898C118.25 38.2031 118.074 37.9082 117.848 37.7051C117.621 37.498 117.359 37.3945 117.062 37.3945ZM133.387 46.0312H132.098V43.5469H126.15V42.5039H133.387V46.0312ZM125.488 40.5938C126.285 40.5938 126.963 40.5742 127.521 40.5352C128.084 40.4961 128.662 40.4199 129.256 40.3066L129.379 41.3496C128.777 41.459 128.186 41.5332 127.604 41.5723C127.021 41.6074 126.316 41.623 125.488 41.6191H124.779V40.5938H125.488ZM128.518 39.3574H126.039V41.2559H124.779V38.4141H127.27V37.2773H124.756V36.2461H128.518V39.3574ZM133.387 42.041H132.145V35.4609H133.387V42.041ZM130.902 39.0938H128.904V38.0449H130.902V39.0938ZM131.248 41.9824H130.018V35.6602H131.248V41.9824ZM143.307 42.041H135.877V41.0098H143.307V42.041ZM144.385 44.7539H134.705V43.6934H144.385V44.7539ZM143.213 37.3418H137.201V41.291H135.877V36.2754H143.213V37.3418ZM142.973 39.6328H136.809V38.6074H142.973V39.6328ZM154.756 44.8125H145.076V43.7402H154.756V44.8125ZM150.531 44.1973H149.248V41.6484H150.531V44.1973ZM153.602 39.5742H147.52V41.4961H146.219V38.5488H152.318V37.2246H146.201V36.1699H153.602V39.5742ZM153.854 42.0059H146.219V40.9453H153.854V42.0059Z" fill="#7A9B79"/>
<rect x="19" y="66" width="72" height="12" fill="#C1D1C1"/>
<path d="M20.3125 72.457L26.418 66.8438C27.0117 66.2656 27.4766 65.7852 27.8125 65.4023C28.1484 65.0195 28.4062 64.6367 28.5859 64.2539C28.7656 63.8711 28.8555 63.4609 28.8555 63.0234C28.8555 62.5391 28.7383 62.1133 28.5039 61.7461C28.2695 61.3789 27.9492 61.0977 27.543 60.9023C27.1367 60.6992 26.6758 60.5977 26.1602 60.5977C25.6289 60.5977 25.1641 60.7031 24.7656 60.9141C24.375 61.125 24.0703 61.4297 23.8516 61.8281C23.6328 62.2266 23.5234 62.6953 23.5234 63.2344H20.1719C20.1719 62.1406 20.4219 61.1836 20.9219 60.3633C21.4219 59.543 22.1289 58.9102 23.043 58.4648C23.957 58.0195 25.0078 57.7969 26.1953 57.7969C27.3906 57.7969 28.4453 58.0078 29.3594 58.4297C30.2812 58.8516 30.9922 59.4414 31.4922 60.1992C31.9922 60.957 32.2422 61.8242 32.2422 62.8008C32.2422 63.4727 32.1133 64.1172 31.8555 64.7344C31.6055 65.3438 31.1602 66.0273 30.5195 66.7852C29.8789 67.5352 28.9766 68.4375 27.8125 69.4922L25.2227 71.9883V72.1055H32.4883V75H20.3242L20.3125 72.457ZM34.3281 69.2109L41.5 58.0312H43.8906V61.8984H42.4609L37.8906 69.0234V69.1641H48.0742V72H34.3281V69.2109ZM42.5664 71.1445L42.6133 69.9141V58.0312H45.9297V75H42.5664V71.1445ZM57.4141 60.6445C57.4141 62.5195 57.1836 64.2656 56.7227 65.8828C56.2695 67.5 55.5781 68.9258 54.6484 70.1602C53.7266 71.3867 52.582 72.3164 51.2148 72.9492L49.3984 70.4531C50.6016 69.9453 51.6211 69.1914 52.457 68.1914C53.293 67.1836 53.9141 66.0352 54.3203 64.7461C54.7344 63.4492 54.9453 62.082 54.9531 60.6445V57.457H57.4141V60.6445ZM57.9883 60.6445C57.9805 62.0039 58.1797 63.3008 58.5859 64.5352C58.9922 65.7617 59.5977 66.8594 60.4023 67.8281C61.2148 68.7969 62.207 69.5273 63.3789 70.0195L61.6211 72.4219C60.2852 71.8125 59.1602 70.9219 58.2461 69.75C57.3398 68.5703 56.6562 67.207 56.1953 65.6602C55.7422 64.1055 55.5195 62.4336 55.5273 60.6445V57.457H57.9883V60.6445ZM67.5391 77.2148H64.5039V55.8047H67.5391V77.2148ZM87.3438 71.1094H84.3086V55.8047H87.3438V71.1094ZM90.2266 64.2656H86.4766V61.8047H90.2266V64.2656ZM81.5195 57.4102C81.5195 59.3242 81.1328 61.043 80.3594 62.5664C79.5938 64.0898 78.4648 65.3984 76.9727 66.4922C75.4805 67.5859 73.6641 68.4336 71.5234 69.0352L70.2695 66.668C72.0117 66.1836 73.4844 65.5547 74.6875 64.7812C75.8906 64 76.793 63.1133 77.3945 62.1211C78.0039 61.1211 78.3086 60.0469 78.3086 58.8984V57.4102H81.5195ZM79.9727 59.8594H71.207V57.4102H79.9727V59.8594ZM88.0703 76.793H73.4688V74.3789H88.0703V76.793ZM76.4922 75.457H73.4688V69.5508H76.4922V75.457Z" fill="#336032"/>
<path d="M101.895 61.8574C101.888 63.2572 101.689 64.5918 101.299 65.8613C100.908 67.1309 100.332 68.2572 99.5703 69.2402C98.8086 70.2168 97.8906 70.9557 96.8164 71.457L95.3906 69.4941C96.3477 69.0645 97.1615 68.446 97.832 67.6387C98.5091 66.8249 99.0169 65.9199 99.3555 64.9238C99.7005 63.9212 99.873 62.8991 99.873 61.8574V59.7871H101.895V61.8574ZM102.412 61.8574C102.412 62.8535 102.581 63.8236 102.92 64.7676C103.258 65.7051 103.76 66.5547 104.424 67.3164C105.094 68.0716 105.911 68.6478 106.875 69.0449L105.527 70.998C104.427 70.5358 103.496 69.8424 102.734 68.918C101.973 67.987 101.4 66.916 101.016 65.7051C100.632 64.4941 100.443 63.2116 100.449 61.8574V59.7871H102.412V61.8574ZM106.143 60.7734H96.1035V58.7422H106.143V60.7734ZM110.41 74.7969H107.881V57.0039H110.41V74.7969ZM120.01 70.041H117.5V66.1152H120.01V70.041ZM127.871 70.4707H125.371V57.043H127.871V70.4707ZM128.262 74.4941H115V72.4824H128.262V74.4941ZM117.51 73.0195H115V69.1816H117.51V73.0195ZM112.744 64.9238C115.114 64.9043 117.197 64.862 118.994 64.7969C120.791 64.7253 122.516 64.5853 124.17 64.377L124.297 66.1641C122.578 66.4505 120.778 66.6458 118.896 66.75C117.021 66.8477 115.068 66.8932 113.037 66.8867L112.744 64.9238ZM125.938 69.0547H121.973V67.3555H125.938V69.0547ZM118.525 57.6387C119.378 57.6387 120.143 57.7721 120.82 58.0391C121.497 58.306 122.025 58.6836 122.402 59.1719C122.78 59.6536 122.969 60.2038 122.969 60.8223C122.969 61.4538 122.78 62.0039 122.402 62.4727C122.025 62.9414 121.497 63.3092 120.82 63.5762C120.15 63.8366 119.385 63.9668 118.525 63.9668C117.653 63.9668 116.878 63.8366 116.201 63.5762C115.531 63.3092 115.007 62.9414 114.629 62.4727C114.251 62.0039 114.062 61.4538 114.062 60.8223C114.062 60.2038 114.251 59.6504 114.629 59.1621C115.007 58.6738 115.534 58.2995 116.211 58.0391C116.888 57.7721 117.66 57.6387 118.525 57.6387ZM118.525 59.4648C118.102 59.4648 117.734 59.5169 117.422 59.6211C117.109 59.7253 116.862 59.8815 116.68 60.0898C116.504 60.2917 116.419 60.5358 116.426 60.8223C116.419 61.1087 116.504 61.3529 116.68 61.5547C116.862 61.7565 117.109 61.9095 117.422 62.0137C117.734 62.1178 118.102 62.1699 118.525 62.1699C118.936 62.1699 119.294 62.1178 119.6 62.0137C119.912 61.9095 120.156 61.7565 120.332 61.5547C120.508 61.3529 120.596 61.1087 120.596 60.8223C120.596 60.5423 120.508 60.2982 120.332 60.0898C120.156 59.8815 119.912 59.7253 119.6 59.6211C119.294 59.5169 118.936 59.4648 118.525 59.4648ZM133.877 68.7715H131.387L131.123 58.8594H134.15L133.877 68.7715ZM132.637 73.1758C132.337 73.1758 132.061 73.1042 131.807 72.9609C131.559 72.8112 131.361 72.6094 131.211 72.3555C131.061 72.1016 130.99 71.8249 130.996 71.5254C130.99 71.2324 131.061 70.9622 131.211 70.7148C131.361 70.4674 131.559 70.2721 131.807 70.1289C132.061 69.9857 132.337 69.9141 132.637 69.9141C132.923 69.9141 133.19 69.9857 133.438 70.1289C133.691 70.2721 133.893 70.4707 134.043 70.7246C134.193 70.972 134.271 71.2389 134.277 71.5254C134.271 71.8249 134.193 72.1016 134.043 72.3555C133.893 72.6094 133.691 72.8112 133.438 72.9609C133.19 73.1042 132.923 73.1758 132.637 73.1758Z" fill="#60875F"/>
<g clip-path="url(#clip0_63_11302)">
<path opacity="0.4" d="M357.51 92.471L316.854 50.1194L313.55 57.6177L298.999 42L292.499 41.5L264.405 74.8494L257.006 70.5064L223.463 71.4865L269.391 116.06L332.499 117.5L357.51 92.471Z" fill="#806D27"/>
<path d="M241.059 38.8099L259.675 26.143C260.446 25.6183 261.457 25.606 262.24 26.1117L281.936 38.8219C282.599 39.2495 282.999 39.9842 282.999 40.7729V58.5555C282.999 59.3447 282.598 60.0799 281.935 60.5074L262.227 73.2055C261.443 73.7105 260.433 73.6977 259.663 73.1729L241.058 60.5061C240.423 60.0737 240.043 59.3551 240.043 58.5867V40.7296C240.043 39.9611 240.423 39.2423 241.059 38.8099Z" fill="#C1D1C1" stroke="#7A9B79" stroke-width="3.5709" stroke-linecap="round" stroke-linejoin="round"/>
<mask id="mask0_63_11302" style="mask-type:alpha" maskUnits="userSpaceOnUse" x="223" y="43" width="35" height="38">
<path d="M224.194 51.6059L239.105 43.3187C239.807 42.9286 240.66 42.9288 241.362 43.3191L256.265 51.6103C257.001 52.02 257.458 52.7966 257.458 53.6394V70.0594C257.458 70.9027 257 71.6797 256.263 72.0892L241.352 80.3726C240.651 80.7623 239.798 80.7621 239.096 80.3721L224.194 72.0849C223.457 71.6752 223 70.8985 223 70.0556V53.6355C223 52.7924 223.457 52.0155 224.194 51.6059Z" fill="#D9D9D9"/>
</mask>
<g mask="url(#mask0_63_11302)">
<path d="M257.462 71.4258L240.231 61.8477L223 71.4258L240.231 81.0039L257.462 71.4258Z" fill="#4D4D4D"/>
<path d="M257.461 71.4257L240.23 61.8476V42.6914L257.461 52.2695V71.4257Z" fill="#999999"/>
<path d="M240.231 61.8476L223 71.4257V52.2695L240.231 42.6914V61.8476Z" fill="#999999"/>
<path d="M240.231 81.0038L223 71.4257V52.2695L240.231 61.8476V81.0038Z" fill="#CCCCCC"/>
<path d="M240.231 81.0038L223 71.4257V52.2695L240.231 61.8476V81.0038Z" fill="url(#paint0_linear_63_11302)"/>
<path d="M240.231 81.0038L223 71.4257V52.2695L240.231 61.8476V81.0038Z" fill="url(#paint1_linear_63_11302)"/>
<path d="M240.23 81.0038L257.461 71.4257V52.2695L240.23 61.8476V81.0038Z" fill="#CCCCCC"/>
<path d="M240.23 81.0038L257.461 71.4257V52.2695L240.23 61.8476V81.0038Z" fill="url(#paint2_linear_63_11302)"/>
<path d="M257.462 52.2695L240.231 42.6914L223 52.2695L240.231 61.8476L257.462 52.2695Z" fill="white"/>
<path d="M257.462 52.2695L240.231 42.6914L223 52.2695L240.231 61.8476L257.462 52.2695Z" fill="url(#paint3_linear_63_11302)"/>
<path d="M257.462 52.2695L240.231 42.6914L223 52.2695L240.231 61.8476L257.462 52.2695Z" fill="white"/>
<path d="M257.462 52.2695L240.231 42.6914L223 52.2695L240.231 61.8476L257.462 52.2695Z" fill="url(#paint4_linear_63_11302)"/>
<path d="M240.231 81.0038L223 71.4257V52.2695L240.231 61.8476V81.0038Z" fill="#CCCCCC"/>
<path d="M240.231 81.0038L223 71.4257V52.2695L240.231 61.8476V81.0038Z" fill="url(#paint5_linear_63_11302)"/>
<path d="M240.231 81.0038L223 71.4257V52.2695L240.231 61.8476V81.0038Z" fill="url(#paint6_linear_63_11302)"/>
<path d="M240.231 81.0038L223 71.4257V52.2695L240.231 61.8476V81.0038Z" fill="url(#paint7_linear_63_11302)"/>
</g>
<mask id="mask1_63_11302" style="mask-type:alpha" maskUnits="userSpaceOnUse" x="244" y="8" width="35" height="38">
<path d="M245.301 16.7768L260.212 8.48955C260.914 8.09951 261.767 8.09969 262.469 8.49003L277.372 16.7812C278.108 17.1909 278.565 17.9675 278.565 18.8103V35.2303C278.565 36.0736 278.108 36.8506 277.371 37.2601L262.46 45.5435C261.758 45.9332 260.905 45.933 260.204 45.543L245.301 37.2558C244.564 36.8461 244.107 36.0694 244.107 35.2265V18.8064C244.107 17.9633 244.564 17.1864 245.301 16.7768Z" fill="#D9D9D9"/>
</mask>
<g mask="url(#mask1_63_11302)">
<path d="M278.569 36.5967L261.338 27.0186L244.107 36.5967L261.338 46.1748L278.569 36.5967Z" fill="#4D4D4D"/>
<path d="M278.569 36.5966L261.338 27.0185V7.8623L278.569 17.4404V36.5966Z" fill="#999999"/>
<path d="M261.338 27.0185L244.107 36.5966V17.4404L261.338 7.8623V27.0185Z" fill="#999999"/>
<path d="M261.338 46.1747L244.107 36.5966V17.4404L261.338 27.0185V46.1747Z" fill="#CCCCCC"/>
<path d="M261.338 46.1747L244.107 36.5966V17.4404L261.338 27.0185V46.1747Z" fill="url(#paint8_linear_63_11302)"/>
<path d="M261.338 46.1747L244.107 36.5966V17.4404L261.338 27.0185V46.1747Z" fill="url(#paint9_linear_63_11302)"/>
<path d="M261.338 46.1747L278.569 36.5966V17.4404L261.338 27.0185V46.1747Z" fill="#CCCCCC"/>
<path d="M261.338 46.1747L278.569 36.5966V17.4404L261.338 27.0185V46.1747Z" fill="url(#paint10_linear_63_11302)"/>
<path d="M278.569 17.4404L261.338 7.8623L244.107 17.4404L261.338 27.0185L278.569 17.4404Z" fill="white"/>
<path d="M278.569 17.4404L261.338 7.8623L244.107 17.4404L261.338 27.0185L278.569 17.4404Z" fill="url(#paint11_linear_63_11302)"/>
<path d="M278.569 17.4404L261.338 7.8623L244.107 17.4404L261.338 27.0185L278.569 17.4404Z" fill="white"/>
<path d="M278.569 17.4404L261.338 7.8623L244.107 17.4404L261.338 27.0185L278.569 17.4404Z" fill="url(#paint12_linear_63_11302)"/>
<path d="M261.338 46.1747L244.107 36.5966V17.4404L261.338 27.0185V46.1747Z" fill="#CCCCCC"/>
<path d="M261.338 46.1747L244.107 36.5966V17.4404L261.338 27.0185V46.1747Z" fill="url(#paint13_linear_63_11302)"/>
<path d="M261.338 46.1747L244.107 36.5966V17.4404L261.338 27.0185V46.1747Z" fill="url(#paint14_linear_63_11302)"/>
<path d="M261.338 46.1747L244.107 36.5966V17.4404L261.338 27.0185V46.1747Z" fill="url(#paint15_linear_63_11302)"/>
</g>
<g filter="url(#filter0_i_63_11302)">
<circle cx="288.001" cy="63.9999" r="24.0653" fill="url(#paint16_linear_63_11302)"/>
<circle cx="288.001" cy="63.9999" r="24.0653" fill="url(#paint17_linear_63_11302)"/>
<circle cx="288.001" cy="63.9999" r="24.0653" fill="url(#paint18_linear_63_11302)"/>
</g>
<path d="M275.512 69.3617L281.116 64.6533C281.546 64.2853 281.89 63.9658 282.147 63.695C282.411 63.4172 282.612 63.1325 282.751 62.8408C282.897 62.5422 282.97 62.2228 282.97 61.8825C282.97 61.5005 282.883 61.1672 282.71 60.8825C282.536 60.5978 282.3 60.379 282.001 60.2262C281.703 60.0735 281.359 59.9936 280.97 59.9867C280.581 59.9936 280.241 60.0735 279.949 60.2262C279.658 60.379 279.428 60.6082 279.262 60.9137C279.102 61.2193 279.022 61.5839 279.022 62.0075H275.241C275.241 60.9728 275.474 60.07 275.939 59.2992C276.411 58.5283 277.081 57.9415 277.949 57.5387C278.817 57.129 279.828 56.9242 280.98 56.9242C282.154 56.9242 283.182 57.1151 284.064 57.4971C284.953 57.879 285.633 58.4207 286.105 59.1221C286.585 59.8165 286.824 60.6255 286.824 61.5492C286.824 62.1533 286.703 62.7367 286.46 63.2992C286.224 63.8617 285.793 64.4901 285.168 65.1846C284.55 65.8721 283.682 66.688 282.564 67.6325L281.033 68.945V69.0387H287.001V72.2158H275.512V69.3617ZM288.397 66.7262L294.501 57.1325H297.293V61.2783H295.699L292.324 66.5908V66.7158H301.293V69.82H288.397V66.7262ZM295.73 68.8721L295.803 67.5283V57.1325H299.522V72.2158H295.73V68.8721Z" fill="#C1D1C1"/>
<path fill-rule="evenodd" clip-rule="evenodd" d="M265.917 63.8359C265.917 51.7312 275.73 41.9183 287.835 41.9183C296.651 41.9183 304.256 47.1234 307.735 54.6374L308.357 56.1228L304.311 54.0504C303.245 53.5047 301.939 53.926 301.394 54.9915C300.848 56.057 301.269 57.3632 302.335 57.9089L308.96 61.3024C310.887 62.2891 313.249 61.5272 314.235 59.6007L317.629 52.975C318.175 51.9094 317.753 50.6033 316.688 50.0576C315.622 49.5119 314.316 49.9332 313.77 50.9987L312.196 54.0717L311.717 52.9274L311.702 52.892L311.686 52.8572C307.532 43.8464 298.417 37.585 287.835 37.585C273.337 37.585 261.584 49.3379 261.584 63.8359C261.584 78.3339 273.337 90.0869 287.835 90.0869C298.417 90.0869 307.532 83.8254 311.686 74.8146C312.187 73.7279 311.712 72.4409 310.626 71.9399C309.539 71.4389 308.252 71.9138 307.751 73.0005C304.279 80.5328 296.664 85.7536 287.835 85.7536C275.73 85.7536 265.917 75.9407 265.917 63.8359Z" fill="url(#paint19_linear_63_11302)"/>
<rect opacity="0.2" x="224" y="22" width="3" height="6" transform="rotate(30 224 22)" fill="#61541D"/>
<rect opacity="0.4" x="242" y="16.7764" width="3" height="6" transform="rotate(-15 242 16.7764)" fill="#61541D"/>
<rect opacity="0.6" x="276" y="8.77637" width="3" height="6" transform="rotate(-15 276 8.77637)" fill="#61541D"/>
<rect opacity="0.5" x="301" y="21" width="3" height="6" transform="rotate(30 301 21)" fill="#61541D"/>
<rect opacity="0.4" x="215" y="65.5" width="3" height="6" transform="rotate(-30 215 65.5)" fill="#61541D"/>
<rect opacity="0.4" x="239" y="83" width="3" height="6" transform="rotate(30 239 83)" fill="#61541D"/>
<rect opacity="0.3" x="305" y="61.7764" width="3" height="6" transform="rotate(-15 305 61.7764)" fill="#61541D"/>
</g>
<defs>
<filter id="filter0_i_63_11302" x="263.936" y="39.9346" width="48.1309" height="48.1309" filterUnits="userSpaceOnUse" color-interpolation-filters="sRGB">
<feFlood flood-opacity="0" result="BackgroundImageFix"/>
<feBlend mode="normal" in="SourceGraphic" in2="BackgroundImageFix" result="shape"/>
<feColorMatrix in="SourceAlpha" type="matrix" values="0 0 0 0 0 0 0 0 0 0 0 0 0 0 0 0 0 0 127 0" result="hardAlpha"/>
<feOffset dx="1.01961" dy="5.25476"/>
<feComposite in2="hardAlpha" operator="arithmetic" k2="-1" k3="1"/>
<feColorMatrix type="matrix" values="0 0 0 0 0 0 0 0 0 0 0 0 0 0 0 0 0 0 0.2 0"/>
<feBlend mode="normal" in2="shape" result="effect1_innerShadow_63_11302"/>
</filter>
<linearGradient id="paint0_linear_63_11302" x1="231.615" y1="52.2695" x2="231.615" y2="81.0038" gradientUnits="userSpaceOnUse">
<stop stop-color="#386937"/>
<stop offset="1" stop-color="#2B4B2A"/>
</linearGradient>
<linearGradient id="paint1_linear_63_11302" x1="231.615" y1="52.2695" x2="231.615" y2="81.0038" gradientUnits="userSpaceOnUse">
<stop stop-color="#638261"/>
<stop offset="1" stop-color="#4A6148"/>
</linearGradient>
<linearGradient id="paint2_linear_63_11302" x1="250.203" y1="55.6219" x2="248.288" y2="76.6937" gradientUnits="userSpaceOnUse">
<stop stop-color="#638261"/>
<stop offset="1" stop-color="#4A6148"/>
</linearGradient>
<linearGradient id="paint3_linear_63_11302" x1="240.231" y1="42.6914" x2="240.231" y2="61.8476" gradientUnits="userSpaceOnUse">
<stop stop-color="#386937"/>
<stop offset="1" stop-color="#2B4B2A"/>
</linearGradient>
<linearGradient id="paint4_linear_63_11302" x1="240.231" y1="42.6914" x2="240.231" y2="61.8476" gradientUnits="userSpaceOnUse">
<stop stop-color="#7A9B79"/>
<stop offset="1" stop-color="#596F58"/>
</linearGradient>
<linearGradient id="paint5_linear_63_11302" x1="231.615" y1="52.2695" x2="231.615" y2="81.0038" gradientUnits="userSpaceOnUse">
<stop stop-color="#386937"/>
<stop offset="1" stop-color="#2B4B2A"/>
</linearGradient>
<linearGradient id="paint6_linear_63_11302" x1="231.615" y1="52.2695" x2="231.615" y2="81.0038" gradientUnits="userSpaceOnUse">
<stop stop-color="#638261"/>
<stop offset="1" stop-color="#4A6148"/>
</linearGradient>
<linearGradient id="paint7_linear_63_11302" x1="232.005" y1="63.7633" x2="230.568" y2="76.2148" gradientUnits="userSpaceOnUse">
<stop stop-color="#638261"/>
<stop offset="1" stop-color="#4A6148"/>
</linearGradient>
<linearGradient id="paint8_linear_63_11302" x1="252.723" y1="17.4404" x2="252.723" y2="46.1747" gradientUnits="userSpaceOnUse">
<stop stop-color="#386937"/>
<stop offset="1" stop-color="#2B4B2A"/>
</linearGradient>
<linearGradient id="paint9_linear_63_11302" x1="252.723" y1="17.4404" x2="252.723" y2="46.1747" gradientUnits="userSpaceOnUse">
<stop stop-color="#638261"/>
<stop offset="1" stop-color="#4A6148"/>
</linearGradient>
<linearGradient id="paint10_linear_63_11302" x1="271.311" y1="20.7928" x2="269.395" y2="41.8646" gradientUnits="userSpaceOnUse">
<stop stop-color="#638261"/>
<stop offset="1" stop-color="#4A6148"/>
</linearGradient>
<linearGradient id="paint11_linear_63_11302" x1="261.338" y1="7.8623" x2="261.338" y2="27.0185" gradientUnits="userSpaceOnUse">
<stop stop-color="#386937"/>
<stop offset="1" stop-color="#2B4B2A"/>
</linearGradient>
<linearGradient id="paint12_linear_63_11302" x1="261.338" y1="7.8623" x2="261.338" y2="27.0185" gradientUnits="userSpaceOnUse">
<stop stop-color="#7A9B79"/>
<stop offset="1" stop-color="#596F58"/>
</linearGradient>
<linearGradient id="paint13_linear_63_11302" x1="252.723" y1="17.4404" x2="252.723" y2="46.1747" gradientUnits="userSpaceOnUse">
<stop stop-color="#386937"/>
<stop offset="1" stop-color="#2B4B2A"/>
</linearGradient>
<linearGradient id="paint14_linear_63_11302" x1="252.723" y1="17.4404" x2="252.723" y2="46.1747" gradientUnits="userSpaceOnUse">
<stop stop-color="#638261"/>
<stop offset="1" stop-color="#4A6148"/>
</linearGradient>
<linearGradient id="paint15_linear_63_11302" x1="253.113" y1="28.9342" x2="251.676" y2="41.3857" gradientUnits="userSpaceOnUse">
<stop stop-color="#638261"/>
<stop offset="1" stop-color="#4A6148"/>
</linearGradient>
<linearGradient id="paint16_linear_63_11302" x1="288.001" y1="39.9346" x2="288.001" y2="88.0651" gradientUnits="userSpaceOnUse">
<stop stop-color="#F3CF70"/>
<stop offset="0.505" stop-color="#EABC5B"/>
<stop offset="1" stop-color="#C19E55"/>
</linearGradient>
<linearGradient id="paint17_linear_63_11302" x1="288.001" y1="39.9346" x2="288.001" y2="88.0651" gradientUnits="userSpaceOnUse">
<stop stop-color="#386937"/>
<stop offset="1" stop-color="#2B4B2A"/>
</linearGradient>
<linearGradient id="paint18_linear_63_11302" x1="288.001" y1="39.9346" x2="288.001" y2="88.0651" gradientUnits="userSpaceOnUse">
<stop stop-color="#638261"/>
<stop offset="1" stop-color="#4A6148"/>
</linearGradient>
<linearGradient id="paint19_linear_63_11302" x1="289.882" y1="37.585" x2="289.882" y2="90.0869" gradientUnits="userSpaceOnUse">
<stop stop-color="#7A9B79"/>
<stop offset="1" stop-color="#596F58"/>
</linearGradient>
<clipPath id="clip0_63_11302">
<path d="M215 0H323C329.627 0 335 5.37258 335 12V84C335 90.6274 329.627 96 323 96H215V0Z" fill="white"/>
</clipPath>
</defs>
</svg>
