<svg width="100" height="100" viewBox="0 0 100 100" fill="none" xmlns="http://www.w3.org/2000/svg">
<g clip-path="url(#clip0_3_11230)">
<rect width="100" height="100" rx="50" fill="#1F3A1E"/>
<rect width="32.6651" height="65.3303" transform="translate(50 -42.3916) rotate(45)" fill="url(#paint0_linear_3_11230)"/>
<rect width="32.6651" height="65.3303" transform="translate(50 142.392) rotate(-135)" fill="url(#paint1_linear_3_11230)"/>
<rect width="32.6651" height="65.3303" transform="matrix(0.707107 0.707107 0.707107 -0.707107 26.9023 26.9023)" fill="url(#paint2_linear_3_11230)"/>
<rect width="32.6651" height="65.3303" transform="matrix(-0.707107 -0.707107 -0.707107 0.707107 73.0977 73.0977)" fill="url(#paint3_linear_3_11230)"/>
<rect width="32.6651" height="65.3303" transform="translate(96.1953 3.80469) rotate(45)" fill="url(#paint4_linear_3_11230)"/>
<rect width="32.6651" height="65.3303" transform="translate(3.80469 96.1953) rotate(-135)" fill="url(#paint5_linear_3_11230)"/>
<rect width="32.6651" height="65.3303" transform="matrix(0.707107 0.707107 0.707107 -0.707107 73.0977 73.0977)" fill="url(#paint6_linear_3_11230)"/>
<rect width="32.6651" height="65.3303" transform="matrix(-0.707107 -0.707107 -0.707107 0.707107 26.9023 26.9023)" fill="url(#paint7_linear_3_11230)"/>
<path d="M29 47.9275L44.0459 63L70 37" stroke="white" stroke-width="6" stroke-linecap="round" stroke-linejoin="round"/>
</g>
<defs>
<linearGradient id="paint0_linear_3_11230" x1="16.3326" y1="0" x2="16.3326" y2="65.3303" gradientUnits="userSpaceOnUse">
<stop stop-color="white" stop-opacity="0.1"/>
<stop offset="1" stop-color="white" stop-opacity="0.01"/>
</linearGradient>
<linearGradient id="paint1_linear_3_11230" x1="16.3326" y1="0" x2="16.3326" y2="65.3303" gradientUnits="userSpaceOnUse">
<stop stop-color="white" stop-opacity="0.1"/>
<stop offset="1" stop-color="white" stop-opacity="0.01"/>
</linearGradient>
<linearGradient id="paint2_linear_3_11230" x1="16.3326" y1="0" x2="16.3326" y2="65.3303" gradientUnits="userSpaceOnUse">
<stop stop-color="white" stop-opacity="0.1"/>
<stop offset="1" stop-color="white" stop-opacity="0.01"/>
</linearGradient>
<linearGradient id="paint3_linear_3_11230" x1="16.3326" y1="0" x2="16.3326" y2="65.3303" gradientUnits="userSpaceOnUse">
<stop stop-color="white" stop-opacity="0.1"/>
<stop offset="1" stop-color="white" stop-opacity="0.01"/>
</linearGradient>
<linearGradient id="paint4_linear_3_11230" x1="16.3326" y1="0" x2="16.3326" y2="65.3303" gradientUnits="userSpaceOnUse">
<stop stop-color="white" stop-opacity="0.1"/>
<stop offset="1" stop-color="white" stop-opacity="0.01"/>
</linearGradient>
<linearGradient id="paint5_linear_3_11230" x1="16.3326" y1="0" x2="16.3326" y2="65.3303" gradientUnits="userSpaceOnUse">
<stop stop-color="white" stop-opacity="0.1"/>
<stop offset="1" stop-color="white" stop-opacity="0.01"/>
</linearGradient>
<linearGradient id="paint6_linear_3_11230" x1="16.3326" y1="0" x2="16.3326" y2="65.3303" gradientUnits="userSpaceOnUse">
<stop stop-color="white" stop-opacity="0.1"/>
<stop offset="1" stop-color="white" stop-opacity="0.01"/>
</linearGradient>
<linearGradient id="paint7_linear_3_11230" x1="16.3326" y1="0" x2="16.3326" y2="65.3303" gradientUnits="userSpaceOnUse">
<stop stop-color="white" stop-opacity="0.1"/>
<stop offset="1" stop-color="white" stop-opacity="0.01"/>
</linearGradient>
<clipPath id="clip0_3_11230">
<rect width="100" height="100" rx="50" fill="white"/>
</clipPath>
</defs>
</svg>
