    <svg
            xmlns="http://www.w3.org/2000/svg"
            width="31"
            height="31"
            viewBox="0 0 31 31"
            fill="none"
          >
            <path
              d="M26.5 26.5L19.375 19.375M3.875 12.9167C3.875 14.104 4.10887 15.2798 4.56326 16.3768C5.01764 17.4737 5.68365 18.4705 6.52324 19.3101C7.36284 20.1497 8.35959 20.8157 9.45657 21.2701C10.5536 21.7245 11.7293 21.9583 12.9167 21.9583C14.104 21.9583 15.2798 21.7245 16.3768 21.2701C17.4737 20.8157 18.4705 20.1497 19.3101 19.3101C20.1497 18.4705 20.8157 17.4737 21.2701 16.3768C21.7245 15.2798 21.9583 14.104 21.9583 12.9167C21.9583 11.7293 21.7245 10.5536 21.2701 9.45657C20.8157 8.35959 20.1497 7.36284 19.3101 6.52324C18.4705 5.68365 17.4737 5.01764 16.3768 4.56326C15.2798 4.10887 14.104 3.875 12.9167 3.875C11.7293 3.875 10.5536 4.10887 9.45657 4.56326C8.35959 5.01764 7.36284 5.68365 6.52324 6.52324C5.68365 7.36284 5.01764 8.35959 4.56326 9.45657C4.10887 10.5536 3.875 11.7293 3.875 12.9167Z"
              stroke="#4A4A4A"
              strokeWidth="2.5"
              strokeLinecap="round"
              strokeLinejoin="round"
            />
          </svg>