<svg xmlns="http://www.w3.org/2000/svg" width="16" height="16" viewBox="0 0 16 16" fill="none">
  <path d="M8.23538 1.55891C8.16303 1.52039 8.08233 1.50024 8.00038 1.50024C7.91842 1.50024 7.83772 1.52039 7.76538 1.55891L0.265375 5.55891C0.185503 5.60159 0.11872 5.66515 0.0721572 5.74282C0.0255944 5.82049 0.001 5.90935 0.001 5.99991C0.001 6.09047 0.0255944 6.17933 0.0721572 6.257C0.11872 6.33467 0.185503 6.39824 0.265375 6.44091L3.18838 7.99991L0.264375 9.55891C0.184503 9.60159 0.11772 9.66515 0.0711572 9.74282C0.0245944 9.8205 0 9.90935 0 9.99991C0 10.0905 0.0245944 10.1793 0.0711572 10.257C0.11772 10.3347 0.184503 10.3982 0.264375 10.4409L7.76438 14.4409C7.83672 14.4794 7.91742 14.4996 7.99938 14.4996C8.08133 14.4996 8.16203 14.4794 8.23438 14.4409L15.7344 10.4409C15.8142 10.3982 15.881 10.3347 15.9276 10.257C15.9742 10.1793 15.9988 10.0905 15.9988 9.99991C15.9988 9.90935 15.9742 9.8205 15.9276 9.74282C15.881 9.66515 15.8142 9.60159 15.7344 9.55891L12.8134 7.99991L15.7354 6.44091C15.8152 6.39824 15.882 6.33467 15.9286 6.257C15.9752 6.17933 15.9998 6.09047 15.9998 5.99991C15.9998 5.90935 15.9752 5.82049 15.9286 5.74282C15.882 5.66515 15.8152 5.60159 15.7354 5.55891L8.23538 1.55891ZM11.7504 8.56691L14.4384 9.99991L8.00038 13.4329L1.56238 9.99991L4.25038 8.56691L7.76538 10.4409C7.83772 10.4794 7.91842 10.4996 8.00038 10.4996C8.08233 10.4996 8.16303 10.4794 8.23538 10.4409L11.7504 8.56691ZM8.00038 9.43291L1.56238 5.99991L8.00038 2.56691L14.4384 5.99991L8.00038 9.43291Z" fill="#499C40"/>
</svg>