<svg xmlns="http://www.w3.org/2000/svg" width="16" height="16" viewBox="0 0 16 16" fill="none">
  <path d="M15.2481 5.06587L8.24807 1.06587C8.17252 1.02271 8.08702 1 8.00001 1C7.913 1 7.82749 1.02271 7.75194 1.06587L0.751944 5.06587C0.674371 5.11017 0.610081 5.17444 0.56576 5.252C0.521439 5.32956 0.498706 5.41757 0.499924 5.50689C0.501143 5.59622 0.526269 5.68358 0.572689 5.7599C0.619109 5.83622 0.685129 5.89871 0.763881 5.94087L7.76388 9.69087C7.8365 9.72978 7.91762 9.75014 8.00001 9.75014C8.0824 9.75014 8.16351 9.72978 8.23613 9.69087L15.2361 5.94087C15.3149 5.89871 15.3809 5.83622 15.4273 5.7599C15.4737 5.68358 15.4989 5.59622 15.5001 5.50689C15.5013 5.41757 15.4786 5.32956 15.4343 5.252C15.3899 5.17444 15.3256 5.11017 15.2481 5.06587ZM8.00001 8.68278L2.03248 5.48587L8.00001 2.07587L13.9675 5.48587L8.00001 8.68278Z" fill="#499C40"/>
  <path d="M8.24097 12.3131L15 8.59566V7.45435L8 11.3044L1 7.45435V8.59566L7.75903 12.3131C7.83286 12.3537 7.91574 12.375 8 12.375C8.08426 12.375 8.16714 12.3537 8.24097 12.3131Z" fill="#499C40"/>
  <path d="M1 11.3333L7.76472 14.9411C7.83713 14.9798 7.91793 15 8 15C8.08207 15 8.16287 14.9798 8.23528 14.9411L15 11.3333V10.2L8 13.9333L1 10.2V11.3333Z" fill="#499C40"/>
</svg>