<svg xmlns="http://www.w3.org/2000/svg" width="440" height="98" viewBox="0 0 440 98" fill="none">
<rect x="1" y="0.5" width="439" height="97" rx="11.5" stroke="#B8B9BC" stroke-dasharray="2 2"/>
<path d="M177.211 63.4297H171.352V62.668H177.211V63.4297ZM171.094 68.5859C172.383 68.582 173.566 68.5625 174.645 68.5273C175.727 68.4883 176.746 68.4102 177.703 68.293L177.75 68.9727C176.773 69.1289 175.754 69.2324 174.691 69.2832C173.633 69.334 172.473 69.3633 171.211 69.3711L171.094 68.5859ZM173.391 68.7969H172.5V63.2305H173.391V68.7969ZM176.051 68.7969H175.172V63.2305H176.051V68.7969ZM179.285 71.9492H178.371V61.5312H179.285V71.9492ZM181.031 66.4883H179.074V65.7148H181.031V66.4883ZM184.547 61.918C185.062 61.918 185.525 62.0156 185.936 62.2109C186.346 62.4062 186.666 62.6797 186.896 63.0312C187.127 63.3828 187.242 63.7812 187.242 64.2266C187.242 64.6719 187.127 65.0684 186.896 65.416C186.666 65.7637 186.346 66.0352 185.936 66.2305C185.525 66.4258 185.062 66.5234 184.547 66.5234C184.027 66.5234 183.561 66.4258 183.146 66.2305C182.736 66.0352 182.416 65.7637 182.186 65.416C181.955 65.0684 181.84 64.6719 181.84 64.2266C181.84 63.7812 181.955 63.3828 182.186 63.0312C182.416 62.6797 182.736 62.4062 183.146 62.2109C183.561 62.0156 184.027 61.918 184.547 61.918ZM184.547 62.6914C184.199 62.6914 183.887 62.7559 183.609 62.8848C183.336 63.0137 183.121 63.1953 182.965 63.4297C182.812 63.6641 182.738 63.9297 182.742 64.2266C182.738 64.5273 182.812 64.7949 182.965 65.0293C183.121 65.2598 183.336 65.4414 183.609 65.5742C183.887 65.707 184.199 65.7734 184.547 65.7734C184.887 65.7734 185.193 65.707 185.467 65.5742C185.744 65.4414 185.961 65.2598 186.117 65.0293C186.273 64.7949 186.352 64.5273 186.352 64.2266C186.352 63.9297 186.273 63.6641 186.117 63.4297C185.961 63.1953 185.744 63.0137 185.467 62.8848C185.193 62.7559 184.887 62.6914 184.547 62.6914ZM190.195 66.8867H189.281V61.5312H190.195V66.8867ZM190.195 69.8984H184.348V71.4805H183.445V69.207H189.281V68.1289H183.422V67.3906H190.195V69.8984ZM190.57 71.8086H183.445V71.0703H190.57V71.8086ZM196.711 61.7188C197.48 61.7188 198.141 61.7871 198.691 61.9238C199.246 62.0605 199.668 62.2637 199.957 62.5332C200.246 62.8027 200.391 63.1289 200.391 63.5117C200.391 63.9023 200.246 64.2344 199.957 64.5078C199.668 64.7812 199.248 64.9883 198.697 65.1289C198.146 65.2656 197.484 65.3359 196.711 65.3398C195.934 65.3359 195.27 65.2656 194.719 65.1289C194.172 64.9883 193.752 64.7812 193.459 64.5078C193.166 64.2344 193.02 63.9023 193.02 63.5117C193.02 63.1289 193.166 62.8027 193.459 62.5332C193.752 62.2637 194.174 62.0605 194.725 61.9238C195.275 61.7871 195.938 61.7188 196.711 61.7188ZM196.711 62.4102C196.137 62.4102 195.645 62.4551 195.234 62.5449C194.828 62.6348 194.516 62.7617 194.297 62.9258C194.082 63.0898 193.977 63.2852 193.98 63.5117C193.977 63.75 194.082 63.9551 194.297 64.127C194.516 64.2949 194.828 64.4219 195.234 64.5078C195.645 64.5938 196.137 64.6367 196.711 64.6367C197.285 64.6367 197.777 64.5938 198.188 64.5078C198.602 64.4219 198.916 64.2949 199.131 64.127C199.346 63.959 199.453 63.7539 199.453 63.5117C199.453 63.2852 199.346 63.0898 199.131 62.9258C198.916 62.7617 198.602 62.6348 198.188 62.5449C197.773 62.4551 197.281 62.4102 196.711 62.4102ZM201.457 66.793H191.965V66.043H201.457V66.793ZM200.238 70.0273H194.051V71.293H193.137V69.3477H199.336V68.3984H193.113V67.6953H200.238V70.0273ZM200.555 71.832H193.137V71.1055H200.555V71.832ZM208.746 63.7461C208.746 64.3281 208.623 64.873 208.377 65.3809C208.131 65.8848 207.785 66.3223 207.34 66.6934C206.895 67.0645 206.383 67.3438 205.805 67.5312L205.348 66.8164C205.863 66.6602 206.322 66.4277 206.725 66.1191C207.127 65.8105 207.439 65.4531 207.662 65.0469C207.885 64.6367 207.996 64.2031 207.996 63.7461V63.2891H208.746V63.7461ZM208.898 63.7461C208.898 64.1719 209.014 64.5762 209.244 64.959C209.475 65.3379 209.789 65.6699 210.188 65.9551C210.59 66.2402 211.047 66.457 211.559 66.6055L211.137 67.332C210.551 67.1602 210.033 66.9004 209.584 66.5527C209.135 66.2051 208.783 65.791 208.529 65.3105C208.275 64.8262 208.148 64.3047 208.148 63.7461V63.2891H208.898V63.7461ZM211.254 63.5117H205.641V62.7734H211.254V63.5117ZM208.922 63.0664H207.996V61.4844H208.922V63.0664ZM213.316 65.2227H210.949V64.4609H213.316V65.2227ZM213.984 67.707H213.059V61.5312H213.984V67.707ZM213.984 71.8086H207.176V68.2461H213.984V71.8086ZM208.09 71.0586H213.082V68.9961H208.09V71.0586ZM225.246 68.4688H215.707V67.7188H225.246V68.4688ZM220.898 71.9492H219.996V68.0469H220.898V71.9492ZM217.84 63.4062H223.09V61.9648H224.016V66.4531H216.926V61.9648H217.84V63.4062ZM223.09 65.7031V64.1562H217.84V65.7031H223.09ZM231.293 64.0859H226.066V63.3359H231.293V64.0859ZM228.68 64.7891C229.113 64.7891 229.5 64.8906 229.84 65.0938C230.184 65.2969 230.451 65.5781 230.643 65.9375C230.838 66.293 230.938 66.6992 230.941 67.1562C230.938 67.6172 230.838 68.0273 230.643 68.3867C230.451 68.7461 230.184 69.0293 229.84 69.2363C229.5 69.4434 229.113 69.5469 228.68 69.5469C228.254 69.5469 227.869 69.4434 227.525 69.2363C227.186 69.0293 226.92 68.7461 226.729 68.3867C226.537 68.0273 226.441 67.6172 226.441 67.1562C226.441 66.7031 226.539 66.2969 226.734 65.9375C226.93 65.5781 227.195 65.2969 227.531 65.0938C227.871 64.8906 228.254 64.7891 228.68 64.7891ZM228.68 65.5625C228.406 65.5664 228.162 65.6387 227.947 65.7793C227.732 65.916 227.564 66.1055 227.443 66.3477C227.322 66.5859 227.262 66.8555 227.262 67.1562C227.262 67.4609 227.322 67.7324 227.443 67.9707C227.564 68.209 227.732 68.3965 227.947 68.5332C228.162 68.6699 228.406 68.7383 228.68 68.7383C228.953 68.7383 229.199 68.6699 229.418 68.5332C229.637 68.3965 229.809 68.209 229.934 67.9707C230.059 67.7324 230.121 67.4609 230.121 67.1562C230.121 66.8555 230.059 66.5859 229.934 66.3477C229.809 66.1055 229.637 65.916 229.418 65.7793C229.199 65.6387 228.953 65.5664 228.68 65.5625ZM234.961 71.9492H234.082V61.5312H234.961V71.9492ZM234.375 66.6875H232.383V65.9258H234.375V66.6875ZM232.699 71.4336H231.832V61.7891H232.699V71.4336ZM229.148 63.793H228.234V61.8477H229.148V63.793ZM241.5 63.0078C241.5 63.6055 241.307 64.1543 240.92 64.6543C240.533 65.1504 240.025 65.5664 239.396 65.9023C238.768 66.2344 238.098 66.4609 237.387 66.582L237.023 65.8555C237.637 65.7656 238.225 65.582 238.787 65.3047C239.354 65.0234 239.812 64.6816 240.164 64.2793C240.516 63.877 240.691 63.4531 240.691 63.0078V62.5625H241.5V63.0078ZM241.723 63.0078C241.723 63.4531 241.898 63.877 242.25 64.2793C242.602 64.6816 243.059 65.0234 243.621 65.3047C244.188 65.582 244.777 65.7656 245.391 65.8555L245.051 66.582C244.332 66.4609 243.658 66.2344 243.029 65.9023C242.4 65.5664 241.893 65.1504 241.506 64.6543C241.119 64.1543 240.926 63.6055 240.926 63.0078V62.5625H241.723V63.0078ZM241.641 71.9492H240.738V67.9648H241.641V71.9492ZM245.953 68.2344H236.461V67.4727H245.953V68.2344ZM245.051 62.9375H237.352V62.1875H245.051V62.9375ZM253.02 66.0547H250.969V65.2695H253.02V66.0547ZM249.762 64.5312C249.762 65.2461 249.662 65.9434 249.463 66.623C249.264 67.2988 248.977 67.9062 248.602 68.4453C248.23 68.9805 247.797 69.3984 247.301 69.6992L246.715 69.0078C247.184 68.7344 247.594 68.3594 247.945 67.8828C248.297 67.4062 248.566 66.8789 248.754 66.3008C248.941 65.7188 249.035 65.1289 249.035 64.5312V62.5156H249.762V64.5312ZM249.926 64.4961C249.926 65.0547 250.014 65.6113 250.189 66.166C250.365 66.7168 250.617 67.2207 250.945 67.6777C251.277 68.1348 251.668 68.4961 252.117 68.7617L251.59 69.4766C251.098 69.1797 250.672 68.7676 250.312 68.2402C249.953 67.7129 249.68 67.125 249.492 66.4766C249.309 65.8281 249.219 65.168 249.223 64.4961V62.5156H249.926V64.4961ZM255.762 71.9492H254.871V61.5312H255.762V71.9492ZM253.605 71.4219H252.738V61.7539H253.605V71.4219ZM260.473 70.0273H259.57V66.9102H260.473V70.0273ZM264.375 70.0273H263.449V66.9102H264.375V70.0273ZM266.742 70.6133H257.203V69.8398H266.742V70.6133ZM261.949 62.1875C262.688 62.1914 263.344 62.3047 263.918 62.5273C264.496 62.7461 264.947 63.0605 265.271 63.4707C265.596 63.877 265.758 64.3438 265.758 64.8711C265.758 65.4023 265.596 65.8691 265.271 66.2715C264.947 66.6738 264.496 66.9863 263.918 67.209C263.344 67.4316 262.688 67.543 261.949 67.543C261.211 67.543 260.553 67.4316 259.975 67.209C259.4 66.9863 258.951 66.6738 258.627 66.2715C258.303 65.8691 258.141 65.4023 258.141 64.8711C258.141 64.3438 258.303 63.877 258.627 63.4707C258.951 63.0605 259.4 62.7461 259.975 62.5273C260.553 62.3047 261.211 62.1914 261.949 62.1875ZM261.949 62.9492C261.383 62.9453 260.877 63.0234 260.432 63.1836C259.99 63.3398 259.646 63.5645 259.4 63.8574C259.154 64.1504 259.031 64.4883 259.031 64.8711C259.031 65.2539 259.154 65.5918 259.4 65.8848C259.646 66.1777 259.99 66.4062 260.432 66.5703C260.877 66.7344 261.383 66.8164 261.949 66.8164C262.512 66.8164 263.014 66.7344 263.455 66.5703C263.896 66.4062 264.242 66.1777 264.492 65.8848C264.742 65.5918 264.867 65.2539 264.867 64.8711C264.867 64.4883 264.742 64.1504 264.492 63.8574C264.242 63.5645 263.896 63.3398 263.455 63.1836C263.014 63.0234 262.512 62.9453 261.949 62.9492ZM268.676 71.0703C268.539 71.0703 268.412 71.0352 268.295 70.9648C268.182 70.8945 268.09 70.8027 268.02 70.6895C267.953 70.5723 267.922 70.4453 267.926 70.3086C267.922 70.1758 267.953 70.0508 268.02 69.9336C268.09 69.8164 268.182 69.7246 268.295 69.6582C268.412 69.5918 268.539 69.5586 268.676 69.5586C268.812 69.5586 268.938 69.5918 269.051 69.6582C269.168 69.7246 269.26 69.8164 269.326 69.9336C269.393 70.0508 269.426 70.1758 269.426 70.3086C269.426 70.4453 269.393 70.5723 269.326 70.6895C269.26 70.8027 269.168 70.8945 269.051 70.9648C268.938 71.0352 268.812 71.0703 268.676 71.0703Z" fill="#66686F"/>
<g clip-path="url(#clip0_1315_21503)">
<path d="M228 34V27C228 25.8954 227.105 25 226 25H213.828C213.298 25 212.789 25.2107 212.414 25.5858L210.5 27.5L208.586 29.4142C208.211 29.7893 208 30.298 208 30.8284V47C208 48.1046 208.895 49 210 49H214" stroke="#66686F" stroke-width="1.5" stroke-linecap="round"/>
<path d="M218 42V31M218 31L214 35M218 31L222 35" stroke="#66686F" stroke-width="1.5" stroke-linecap="round" stroke-linejoin="round"/>
<path d="M226.147 52.7184L232.864 46.0009C234.622 44.2436 234.622 41.3943 232.864 39.637V39.637C231.107 37.8796 228.258 37.8796 226.5 39.637L219.076 47.0616C217.904 48.2332 217.904 50.1327 219.076 51.3042V51.3042C220.247 52.4758 222.147 52.4758 223.318 51.3042L230.036 44.5867C230.622 44.0009 230.622 43.0512 230.036 42.4654V42.4654C229.45 41.8796 228.5 41.8796 227.915 42.4654L221.904 48.4758" stroke="#66686F" stroke-width="1.5" stroke-linecap="round" stroke-linejoin="round"/>
</g>
<defs>
<clipPath id="clip0_1315_21503">
<rect width="32" height="32" fill="white" transform="translate(204 23)"/>
</clipPath>
</defs>
</svg>