<svg
                    xmlns="http://www.w3.org/2000/svg"
                    width="28"
                    height="16"
                    viewBox="0 0 26 14"
                    fill="none"
                  >
                    <g id="symbol_A2ABtn_white" clipPath="url(#clip0_43_10834)">
                      <path
                        id="Vector"
                        d="M20.6875 0.5H6.0625C4.98506 0.5 3.95175 0.928012 3.18988 1.68988C2.42801 2.45175 2 3.48506 2 4.5625L2 9.4375C2 10.5149 2.42801 11.5483 3.18988 12.3101C3.95175 13.072 4.98506 13.5 6.0625 13.5H16.625V5.375H15V11.875H6.0625C5.41603 11.875 4.79605 11.6182 4.33893 11.1611C3.88181 10.704 3.625 10.084 3.625 9.4375V4.5625C3.625 3.91603 3.88181 3.29605 4.33893 2.83893C4.79605 2.38181 5.41603 2.125 6.0625 2.125H20.6875C21.0076 2.125 21.3246 2.18805 21.6203 2.31054C21.916 2.43304 22.1847 2.61258 22.4111 2.83893C22.6374 3.06527 22.817 3.33398 22.9395 3.62971C23.062 3.92544 23.125 4.2424 23.125 4.5625V9.4375C23.125 9.7576 23.062 10.0746 22.9395 10.3703C22.817 10.666 22.6374 10.9347 22.4111 11.1611C22.1847 11.3874 21.916 11.567 21.6203 11.6895C21.3246 11.812 21.0076 11.875 20.6875 11.875H18.25V13.5H20.6875C21.7649 13.5 22.7983 13.072 23.5601 12.3101C24.322 11.5483 24.75 10.5149 24.75 9.4375V4.5625C24.75 3.48506 24.322 2.45175 23.5601 1.68988C22.7983 0.928012 21.7649 0.5 20.6875 0.5Z"
                        fill="white"
                      />
                    </g>
                    <defs>
                      <clipPath id="clip0_43_10834">
                        <rect
                          width="26"
                          height="13"
                          fill="white"
                          transform="translate(0 0.5)"
                        />
                      </clipPath>
                    </defs>
                  </svg>