<svg xmlns="http://www.w3.org/2000/svg" width="48" height="48" viewBox="0 0 48 48" fill="none">
<path d="M12.2216 7.33333L13.9501 5.60485C14.4085 5.14643 15.0302 4.88889 15.6785 4.88889H32.3882C33.7383 4.88889 34.8327 5.9833 34.8327 7.33333V36.6667C34.8327 38.0167 33.7383 39.1111 32.3882 39.1111H11.6105C10.2604 39.1111 9.16602 38.0167 9.16602 36.6667V11.4014C9.16602 10.7531 9.42355 10.1314 9.88198 9.67293L12.2216 7.33333Z" fill="#A3BAA3"/>
<rect x="14.0547" y="11" width="15.8889" height="2.44444" rx="1.22222" fill="#7A9B79"/>
<rect x="14.0547" y="15.8889" width="11" height="2.44444" rx="1.22222" fill="#7A9B79"/>
<rect x="14.0547" y="20.77" width="11" height="2.44444" rx="1.22222" fill="#7A9B79"/>
<rect x="24" y="24" width="24" height="24" rx="12" fill="white" fill-opacity="0.6"/>
<path d="M28.6967 34.1159C29.7498 30.1859 33.7894 27.8536 37.7194 28.9067C39.8269 29.4714 41.475 30.8949 42.3879 32.6999" stroke="#386937" stroke-width="1.63711" stroke-linecap="round"/>
<path d="M43.2939 32.0951L43.0492 34.1268L41.1673 33.3229" stroke="#386937" stroke-width="1.63711" stroke-linecap="round" stroke-linejoin="round"/>
<path d="M42.9312 37.9294C41.8782 41.8594 37.8386 44.1917 33.9085 43.1386C31.801 42.5739 30.153 41.1504 29.2401 39.3454" stroke="#386937" stroke-width="1.63711" stroke-linecap="round"/>
<path d="M28.5889 40.472L28.8336 38.4403L30.7155 39.2442" stroke="#386937" stroke-width="1.63711" stroke-linecap="round" stroke-linejoin="round"/>
</svg>