<svg xmlns="http://www.w3.org/2000/svg" width="48" height="48" viewBox="0 0 48 48" fill="none">
<path d="M12.8329 9.77777L14.5614 8.04929C15.0198 7.59087 15.6416 7.33333 16.2899 7.33333H32.9996C34.3496 7.33333 35.444 8.42774 35.444 9.77777V39.1111C35.444 40.4611 34.3496 41.5555 32.9996 41.5555H12.2218C10.8718 41.5555 9.77734 40.4611 9.77734 39.1111V13.8458C9.77734 13.1975 10.0349 12.5758 10.4933 12.1174L12.8329 9.77777Z" fill="#7A9B79"/>
<path d="M7.33301 7.33333C7.33301 5.9833 8.42742 4.88889 9.77745 4.88889H12.833H30.5552C31.9053 4.88889 32.9997 5.9833 32.9997 7.33333V36.6667C32.9997 38.0167 31.9053 39.1111 30.5552 39.1111H9.77745C8.42742 39.1111 7.33301 38.0167 7.33301 36.6667V10.3889V7.33333Z" fill="#A3BAA3"/>
<rect x="9.77734" y="24.4444" width="15.8889" height="2.44444" rx="1.22222" fill="#7A9B79"/>
<rect x="9.77734" y="29.3333" width="11" height="2.44444" rx="1.22222" fill="#7A9B79"/>
<path d="M4.88867 9.77777C4.88867 8.42774 5.98309 7.33333 7.33312 7.33333H10.3887H15.8887C17.2387 7.33333 18.3331 8.42774 18.3331 9.77777V18.3333C18.3331 19.6834 17.2387 20.7778 15.8887 20.7778H7.33311C5.98308 20.7778 4.88867 19.6834 4.88867 18.3333V12.8333V9.77777Z" fill="#7A9B79"/>
<rect x="24" y="24" width="24" height="24" rx="12" fill="white" fill-opacity="0.6"/>
<path d="M36 30L36 42" stroke="#386937" stroke-width="2" stroke-linecap="round"/>
<path d="M30 36H42" stroke="#386937" stroke-width="2" stroke-linecap="round"/>
</svg>