<svg xmlns="http://www.w3.org/2000/svg" width="92" height="92" viewBox="0 0 92 92" fill="none">
<circle cx="22.8574" cy="79.3143" r="3.77143" fill="url(#paint0_linear_56_12870)"/>
<path d="M25.3714 11.4286C25.3714 10.7343 25.9342 10.1714 26.6285 10.1714H41.0857C41.78 10.1714 42.3428 10.7343 42.3428 11.4286V22.1143H25.3714V11.4286Z" stroke="#60875F" stroke-width="2.51429"/>
<path d="M42.3425 15.2V12.0571C42.3425 10.6685 41.2168 9.54285 39.8282 9.54285H27.8854C26.4968 9.54285 25.3711 10.6685 25.3711 12.0571V15.2" stroke="url(#paint1_linear_56_12870)" stroke-width="4.4" stroke-linecap="round"/>
<circle cx="44.8574" cy="79.3143" r="3.77143" fill="url(#paint2_linear_56_12870)"/>
<rect x="11.543" y="20.8571" width="44.6286" height="57.8286" rx="5.02857" fill="url(#paint3_linear_56_12870)"/>
<rect x="20.9717" y="30.2857" width="3.14286" height="41.4857" rx="1.57143" fill="#60875F"/>
<rect x="32.2861" y="30.2857" width="3.14286" height="41.4857" rx="1.57143" fill="#60875F"/>
<path d="M43.5996 31.8571C43.5996 30.9893 44.3032 30.2857 45.171 30.2857C46.0389 30.2857 46.7425 30.9893 46.7425 31.8571V70.2C46.7425 71.0679 46.0389 71.7714 45.171 71.7714C44.3032 71.7714 43.5996 71.0679 43.5996 70.2V31.8571Z" fill="#60875F"/>
<g filter="url(#filter0_b_56_12870)">
<circle cx="63" cy="61" r="28" fill="#F0F0F0" fill-opacity="0.6"/>
</g>
<path d="M78.2433 66.7129C78.7421 66.262 78.781 65.4922 78.3302 64.9934C77.8794 64.4946 77.1095 64.4557 76.6107 64.9065L74.8044 66.5391L76.437 68.3454L78.2433 66.7129Z" fill="#84D982"/>
<path d="M78.2433 66.7129C78.7421 66.262 78.781 65.4922 78.3302 64.9934C77.8794 64.4946 77.1095 64.4557 76.6107 64.9065L74.8044 66.5391L76.437 68.3454L78.2433 66.7129Z" fill="url(#paint4_linear_56_12870)"/>
<path d="M78.2433 66.7129C78.7421 66.262 78.781 65.4922 78.3302 64.9934C77.8794 64.4946 77.1095 64.4557 76.6107 64.9065L74.8044 66.5391L76.437 68.3454L78.2433 66.7129Z" fill="url(#paint5_linear_56_12870)"/>
<path d="M76.757 61.9648C77.2558 61.514 77.2947 60.7442 76.8439 60.2454C76.393 59.7466 75.6232 59.7077 75.1244 60.1585L73.3181 61.7911L74.9507 63.5974L76.757 61.9648Z" fill="#84D982"/>
<path d="M76.757 61.9648C77.2558 61.514 77.2947 60.7442 76.8439 60.2454C76.393 59.7466 75.6232 59.7077 75.1244 60.1585L73.3181 61.7911L74.9507 63.5974L76.757 61.9648Z" fill="url(#paint6_linear_56_12870)"/>
<path d="M76.757 61.9648C77.2558 61.514 77.2947 60.7442 76.8439 60.2454C76.393 59.7466 75.6232 59.7077 75.1244 60.1585L73.3181 61.7911L74.9507 63.5974L76.757 61.9648Z" fill="url(#paint7_linear_56_12870)"/>
<path d="M57.3677 46.5541C57.8431 46.0787 58.6139 46.0787 59.0893 46.5541C59.5648 47.0296 59.5648 47.8004 59.0893 48.2758L57.3677 49.9974L55.646 48.2758L57.3677 46.5541Z" fill="#84D982"/>
<path d="M57.3677 46.5541C57.8431 46.0787 58.6139 46.0787 59.0893 46.5541C59.5648 47.0296 59.5648 47.8004 59.0893 48.2758L57.3677 49.9974L55.646 48.2758L57.3677 46.5541Z" fill="url(#paint8_linear_56_12870)"/>
<path d="M57.3677 46.5541C57.8431 46.0787 58.6139 46.0787 59.0893 46.5541C59.5648 47.0296 59.5648 47.8004 59.0893 48.2758L57.3677 49.9974L55.646 48.2758L57.3677 46.5541Z" fill="url(#paint9_linear_56_12870)"/>
<path d="M62.0347 48.2788C62.5101 47.8034 63.2809 47.8034 63.7563 48.2788C64.2318 48.7542 64.2318 49.525 63.7563 50.0004L62.0347 51.7221L60.313 50.0004L62.0347 48.2788Z" fill="#84D982"/>
<path d="M62.0347 48.2788C62.5101 47.8034 63.2809 47.8034 63.7563 48.2788C64.2318 48.7542 64.2318 49.525 63.7563 50.0004L62.0347 51.7221L60.313 50.0004L62.0347 48.2788Z" fill="url(#paint10_linear_56_12870)"/>
<path d="M62.0347 48.2788C62.5101 47.8034 63.2809 47.8034 63.7563 48.2788C64.2318 48.7542 64.2318 49.525 63.7563 50.0004L62.0347 51.7221L60.313 50.0004L62.0347 48.2788Z" fill="url(#paint11_linear_56_12870)"/>
<path d="M65.5303 63.8666C68.161 61.3871 70.9399 59.0483 73.5684 56.5602C73.7122 57.3924 74.1676 58.2536 74.4008 59.0623C76.4239 64.8793 77.7371 70.9211 79.7799 76.7245C80.1765 77.8459 77.9247 80.2471 77.062 79.2083C73.2326 74.1446 69.2812 68.988 65.5303 63.8666Z" fill="url(#paint12_linear_56_12870)"/>
<path d="M68.0291 51.073C67.2096 51.8967 66.4053 52.746 65.6076 53.6017C65.6011 53.6081 65.5945 53.6145 65.5902 53.6209C64.4263 54.85 63.2712 56.0876 62.1269 57.3317C61.6125 57.8737 61.2769 58.548 60.7516 59.0708C56.1659 55.9639 51.5649 52.4622 47.0402 49.2635C46.4125 48.8132 45.7739 48.3758 45.1418 47.9341C43.8443 47.0285 46.2155 44.7379 47.1841 45.032C50.5955 46.0214 54.0058 47.0152 57.4191 47.9981H57.4213C60.8673 49.2236 64.4975 50.121 68.0291 51.0709V51.073Z" fill="url(#paint13_linear_56_12870)"/>
<path d="M49.2061 72C48.7702 72.51 48.3277 73.0136 47.8896 73.5215C48.3103 73.0008 48.7571 72.5015 49.2061 72Z" fill="#7BC5DC"/>
<path d="M49.2006 45.6167L47.1846 45.032C47.8602 45.2091 48.5293 45.4097 49.2006 45.6167Z" fill="#A8D8E7"/>
<path d="M65.5892 53.6209C64.4319 54.8607 63.2877 56.1154 62.126 57.3317C63.2702 56.0877 64.4232 54.85 65.5892 53.6209Z" fill="#A8D8E7"/>
<path d="M51.3457 69.719C50.7551 70.5725 50.0162 71.3172 49.3645 72.126C48.848 72.8579 47.8236 73.4554 47.8149 74.4071C46.5813 73.434 45.5438 72.2135 44.3887 71.1444C43.2099 69.9903 45.9807 67.6257 47.124 68.0801C48.5145 68.6691 49.9792 69.0873 51.3457 69.719Z" fill="url(#paint14_linear_56_12870)"/>
<path d="M51.3457 69.719C50.7551 70.5725 50.0162 71.3172 49.3645 72.126C48.848 72.8579 47.8236 73.4554 47.8149 74.4071C46.5813 73.434 45.5438 72.2135 44.3887 71.1444C43.2099 69.9903 45.9807 67.6257 47.124 68.0801C48.5145 68.6691 49.9792 69.0873 51.3457 69.719Z" fill="url(#paint15_linear_56_12870)"/>
<path d="M49.2061 72C48.7702 72.51 48.3277 73.0136 47.8896 73.5215C48.3103 73.0008 48.7571 72.5015 49.2061 72Z" fill="#A8D8E7"/>
<path d="M53.1857 79.714C52.0458 78.6023 50.871 77.5119 49.7812 76.3596C50.7511 76.7159 53.4799 73.4511 54.6111 72.9454C54.9336 73.5749 55.1254 74.2534 55.3914 74.9043C55.6812 75.6106 55.9319 76.334 56.2435 77.0318C56.7718 78.2072 53.962 80.6652 53.1857 79.714Z" fill="url(#paint16_linear_56_12870)"/>
<path d="M53.1857 79.714C52.0458 78.6023 50.871 77.5119 49.7812 76.3596C50.7511 76.7159 53.4799 73.4511 54.6111 72.9454C54.9336 73.5749 55.1254 74.2534 55.3914 74.9043C55.6812 75.6106 55.9319 76.334 56.2435 77.0318C56.7718 78.2072 53.962 80.6652 53.1857 79.714Z" fill="url(#paint17_linear_56_12870)"/>
<path d="M53.1857 79.714C52.0458 78.6023 50.871 77.5119 49.7812 76.3596C50.7511 76.7159 53.4799 73.4511 54.6111 72.9454C54.9336 73.5749 55.1254 74.2534 55.3914 74.9043C55.6812 75.6106 55.9319 76.334 56.2435 77.0318C56.7718 78.2072 53.962 80.6652 53.1857 79.714Z" fill="url(#paint18_linear_56_12870)"/>
<path d="M79.6517 49.2571C78.3178 52.1357 76.0947 54.4616 73.719 56.6532C73.3899 56.9583 73.0564 57.2592 72.723 57.5579C72.7186 57.5601 72.7164 57.5622 72.7143 57.5643C71.7749 58.4093 70.829 59.2437 69.9179 60.0887C69.9136 60.093 69.9114 60.0951 69.907 60.0994C69.7 60.2914 69.4951 60.4835 69.2946 60.6777C68.438 61.4544 67.5706 62.2269 66.6966 62.9887C62.7691 66.4221 58.7043 69.7339 54.7746 73.1225C54.3757 73.3124 53.7698 73.8373 53.1116 74.422C53.0767 74.454 53.0419 74.486 53.0048 74.518C52.194 75.2414 51.3222 76.031 50.6684 76.3895C50.6553 76.3959 50.6444 76.4023 50.6313 76.4087C50.3763 76.5431 50.1583 76.6093 49.9927 76.5751C49.9753 76.5623 49.96 76.5516 49.9448 76.5367C49.086 75.8923 48.3472 75.0878 47.6562 74.2748C47.6562 74.2534 47.6563 74.23 47.6584 74.2086C47.6584 74.1916 47.6584 74.1745 47.6628 74.1596C47.6628 74.1489 47.6628 74.1361 47.6671 74.1233C47.6671 74.1126 47.6693 74.0998 47.6715 74.0891C47.6759 74.0635 47.6802 74.0401 47.6846 74.0166C47.6911 73.9888 47.6977 73.9611 47.7042 73.9334C47.7107 73.9056 47.7195 73.88 47.7282 73.8523C47.7696 73.7306 47.8284 73.6175 47.896 73.5066C47.896 73.5066 47.8982 73.5044 47.8982 73.5023C48.0551 73.2527 48.2687 73.0243 48.4888 72.8003H48.491C48.5368 72.7512 48.5825 72.7064 48.6261 72.6616C48.8397 72.4439 49.049 72.2263 49.2037 71.9937C49.5415 71.5968 49.8794 71.202 50.2172 70.8072C50.2673 70.7496 50.3175 70.692 50.3654 70.6344C54.2188 66.1361 58.1158 61.6891 62.1261 57.3275C63.2704 56.0834 64.4233 54.8457 65.5894 53.6166C65.5959 53.6102 65.6003 53.6038 65.6068 53.5974C66.4089 52.7503 67.2153 51.9074 68.0283 51.0688C70.8421 48.4889 74.4448 43.9203 78.7276 45.2369C80.1595 46.0136 80.2816 47.9213 79.6495 49.2528L79.6517 49.2571Z" fill="#C1D1C1"/>
<path d="M79.6517 49.2571C78.3178 52.1357 76.0947 54.4616 73.719 56.6532C73.3899 56.9583 73.0564 57.2592 72.723 57.5579C72.7186 57.5601 72.7164 57.5622 72.7143 57.5643C71.7749 58.4093 70.829 59.2437 69.9179 60.0887C69.9136 60.093 69.9114 60.0951 69.907 60.0994C69.7 60.2914 69.4951 60.4835 69.2946 60.6777C68.438 61.4544 67.5706 62.2269 66.6966 62.9887C62.7691 66.4221 58.7043 69.7339 54.7746 73.1225C54.3757 73.3124 53.7698 73.8373 53.1116 74.422C53.0767 74.454 53.0419 74.486 53.0048 74.518C52.194 75.2414 51.3222 76.031 50.6684 76.3895C50.6553 76.3959 50.6444 76.4023 50.6313 76.4087C50.3763 76.5431 50.1583 76.6093 49.9927 76.5751C49.9753 76.5623 49.96 76.5516 49.9448 76.5367C49.086 75.8923 48.3472 75.0878 47.6562 74.2748C47.6562 74.2534 47.6563 74.23 47.6584 74.2086C47.6584 74.1916 47.6584 74.1745 47.6628 74.1596C47.6628 74.1489 47.6628 74.1361 47.6671 74.1233C47.6671 74.1126 47.6693 74.0998 47.6715 74.0891C47.6759 74.0635 47.6802 74.0401 47.6846 74.0166C47.6911 73.9888 47.6977 73.9611 47.7042 73.9334C47.7107 73.9056 47.7195 73.88 47.7282 73.8523C47.7696 73.7306 47.8284 73.6175 47.896 73.5066C47.896 73.5066 47.8982 73.5044 47.8982 73.5023C48.0551 73.2527 48.2687 73.0243 48.4888 72.8003H48.491C48.5368 72.7512 48.5825 72.7064 48.6261 72.6616C48.8397 72.4439 49.049 72.2263 49.2037 71.9937C49.5415 71.5968 49.8794 71.202 50.2172 70.8072C50.2673 70.7496 50.3175 70.692 50.3654 70.6344C54.2188 66.1361 58.1158 61.6891 62.1261 57.3275C63.2704 56.0834 64.4233 54.8457 65.5894 53.6166C65.5959 53.6102 65.6003 53.6038 65.6068 53.5974C66.4089 52.7503 67.2153 51.9074 68.0283 51.0688C70.8421 48.4889 74.4448 43.9203 78.7276 45.2369C80.1595 46.0136 80.2816 47.9213 79.6495 49.2528L79.6517 49.2571Z" fill="url(#paint19_linear_56_12870)"/>
<path d="M79.6517 49.2571C78.3178 52.1357 76.0947 54.4616 73.719 56.6532C73.3899 56.9583 73.0564 57.2592 72.723 57.5579C72.7186 57.5601 72.7164 57.5622 72.7143 57.5643C71.7749 58.4093 70.829 59.2437 69.9179 60.0887C69.9136 60.093 69.9114 60.0951 69.907 60.0994C69.7 60.2914 69.4951 60.4835 69.2946 60.6777C68.438 61.4544 67.5706 62.2269 66.6966 62.9887C62.7691 66.4221 58.7043 69.7339 54.7746 73.1225C54.3757 73.3124 53.7698 73.8373 53.1116 74.422C53.0767 74.454 53.0419 74.486 53.0048 74.518C52.194 75.2414 51.3222 76.031 50.6684 76.3895C50.6553 76.3959 50.6444 76.4023 50.6313 76.4087C50.3763 76.5431 50.1583 76.6093 49.9927 76.5751C49.9753 76.5623 49.96 76.5516 49.9448 76.5367C49.086 75.8923 48.3472 75.0878 47.6562 74.2748C47.6562 74.2534 47.6563 74.23 47.6584 74.2086C47.6584 74.1916 47.6584 74.1745 47.6628 74.1596C47.6628 74.1489 47.6628 74.1361 47.6671 74.1233C47.6671 74.1126 47.6693 74.0998 47.6715 74.0891C47.6759 74.0635 47.6802 74.0401 47.6846 74.0166C47.6911 73.9888 47.6977 73.9611 47.7042 73.9334C47.7107 73.9056 47.7195 73.88 47.7282 73.8523C47.7696 73.7306 47.8284 73.6175 47.896 73.5066C47.896 73.5066 47.8982 73.5044 47.8982 73.5023C48.0551 73.2527 48.2687 73.0243 48.4888 72.8003H48.491C48.5368 72.7512 48.5825 72.7064 48.6261 72.6616C48.8397 72.4439 49.049 72.2263 49.2037 71.9937C49.5415 71.5968 49.8794 71.202 50.2172 70.8072C50.2673 70.7496 50.3175 70.692 50.3654 70.6344C54.2188 66.1361 58.1158 61.6891 62.1261 57.3275C63.2704 56.0834 64.4233 54.8457 65.5894 53.6166C65.5959 53.6102 65.6003 53.6038 65.6068 53.5974C66.4089 52.7503 67.2153 51.9074 68.0283 51.0688C70.8421 48.4889 74.4448 43.9203 78.7276 45.2369C80.1595 46.0136 80.2816 47.9213 79.6495 49.2528L79.6517 49.2571Z" fill="white" fill-opacity="0.1"/>
<defs>
<filter id="filter0_b_56_12870" x="31" y="29" width="64" height="64" filterUnits="userSpaceOnUse" color-interpolation-filters="sRGB">
<feFlood flood-opacity="0" result="BackgroundImageFix"/>
<feGaussianBlur in="BackgroundImageFix" stdDeviation="2"/>
<feComposite in2="SourceAlpha" operator="in" result="effect1_backgroundBlur_56_12870"/>
<feBlend mode="normal" in="SourceGraphic" in2="effect1_backgroundBlur_56_12870" result="shape"/>
</filter>
<linearGradient id="paint0_linear_56_12870" x1="22.8574" y1="75.5429" x2="22.8574" y2="83.0857" gradientUnits="userSpaceOnUse">
<stop stop-color="#386937"/>
<stop offset="1" stop-color="#82A881"/>
</linearGradient>
<linearGradient id="paint1_linear_56_12870" x1="25.3711" y1="9.54285" x2="42.3425" y2="15.2" gradientUnits="userSpaceOnUse">
<stop stop-color="#2A4229"/>
<stop offset="1" stop-color="#516550"/>
</linearGradient>
<linearGradient id="paint2_linear_56_12870" x1="44.8574" y1="75.5429" x2="44.8574" y2="83.0857" gradientUnits="userSpaceOnUse">
<stop stop-color="#386937"/>
<stop offset="1" stop-color="#82A881"/>
</linearGradient>
<linearGradient id="paint3_linear_56_12870" x1="56.1715" y1="78.6857" x2="11.543" y2="20.8571" gradientUnits="userSpaceOnUse">
<stop stop-color="#60875F"/>
<stop offset="1" stop-color="#9FD59E"/>
</linearGradient>
<linearGradient id="paint4_linear_56_12870" x1="74.8044" y1="66.5391" x2="79.1501" y2="66.514" gradientUnits="userSpaceOnUse">
<stop stop-color="#76D673"/>
<stop offset="1" stop-color="#498D47"/>
</linearGradient>
<linearGradient id="paint5_linear_56_12870" x1="78.3131" y1="64.9921" x2="75.6124" y2="67.4331" gradientUnits="userSpaceOnUse">
<stop stop-color="#296E27"/>
<stop offset="1" stop-color="#66AC65"/>
</linearGradient>
<linearGradient id="paint6_linear_56_12870" x1="73.3181" y1="61.7911" x2="77.6637" y2="61.766" gradientUnits="userSpaceOnUse">
<stop stop-color="#76D673"/>
<stop offset="1" stop-color="#498D47"/>
</linearGradient>
<linearGradient id="paint7_linear_56_12870" x1="76.8268" y1="60.2441" x2="74.126" y2="62.685" gradientUnits="userSpaceOnUse">
<stop stop-color="#296E27"/>
<stop offset="1" stop-color="#66AC65"/>
</linearGradient>
<linearGradient id="paint8_linear_56_12870" x1="57.3677" y1="49.9974" x2="57.612" y2="45.6586" gradientUnits="userSpaceOnUse">
<stop stop-color="#76D673"/>
<stop offset="1" stop-color="#498D47"/>
</linearGradient>
<linearGradient id="paint9_linear_56_12870" x1="59.0898" y1="46.5712" x2="56.5156" y2="49.1454" gradientUnits="userSpaceOnUse">
<stop stop-color="#296E27"/>
<stop offset="1" stop-color="#66AC65"/>
</linearGradient>
<linearGradient id="paint10_linear_56_12870" x1="62.0347" y1="51.7221" x2="62.279" y2="47.3832" gradientUnits="userSpaceOnUse">
<stop stop-color="#76D673"/>
<stop offset="1" stop-color="#498D47"/>
</linearGradient>
<linearGradient id="paint11_linear_56_12870" x1="63.7568" y1="48.2959" x2="61.1826" y2="50.8701" gradientUnits="userSpaceOnUse">
<stop stop-color="#296E27"/>
<stop offset="1" stop-color="#66AC65"/>
</linearGradient>
<linearGradient id="paint12_linear_56_12870" x1="72.7512" y1="56.634" x2="72.7512" y2="79.4631" gradientUnits="userSpaceOnUse">
<stop stop-color="#296E27"/>
<stop offset="1" stop-color="#66AC65"/>
</linearGradient>
<linearGradient id="paint13_linear_56_12870" x1="56.3959" y1="45.0061" x2="56.3959" y2="59.0708" gradientUnits="userSpaceOnUse">
<stop stop-color="#296E27"/>
<stop offset="1" stop-color="#66AC65"/>
</linearGradient>
<linearGradient id="paint14_linear_56_12870" x1="51.3457" y1="74.4071" x2="47.1535" y2="66.4212" gradientUnits="userSpaceOnUse">
<stop stop-color="#76D673"/>
<stop offset="1" stop-color="#498D47"/>
</linearGradient>
<linearGradient id="paint15_linear_56_12870" x1="47.7611" y1="68.0434" x2="47.7611" y2="74.4071" gradientUnits="userSpaceOnUse">
<stop stop-color="#296E27"/>
<stop offset="1" stop-color="#66AC65"/>
</linearGradient>
<linearGradient id="paint16_linear_56_12870" x1="49.7813" y1="72.9454" x2="56.9571" y2="73.6908" gradientUnits="userSpaceOnUse">
<stop stop-color="#224420"/>
<stop offset="1" stop-color="#3F683D"/>
</linearGradient>
<linearGradient id="paint17_linear_56_12870" x1="56.3092" y1="79.9281" x2="51.2604" y2="72.0031" gradientUnits="userSpaceOnUse">
<stop stop-color="#76D673"/>
<stop offset="1" stop-color="#498D47"/>
</linearGradient>
<linearGradient id="paint18_linear_56_12870" x1="53.0785" y1="72.9679" x2="53.0785" y2="79.9281" gradientUnits="userSpaceOnUse">
<stop stop-color="#296E27"/>
<stop offset="1" stop-color="#66AC65"/>
</linearGradient>
<linearGradient id="paint19_linear_56_12870" x1="63.8347" y1="45.0035" x2="63.8347" y2="76.584" gradientUnits="userSpaceOnUse">
<stop stop-color="#186817"/>
<stop offset="1" stop-color="#5EAE5D"/>
</linearGradient>
</defs>
</svg>