<svg xmlns="http://www.w3.org/2000/svg" width="49" height="48" viewBox="0 0 49 48" fill="none">
<path d="M15.9527 7.43768C15.5217 6.43213 16.4651 5.38266 17.5107 5.70439C18.372 5.9694 19.2931 5.9694 20.1544 5.70439L20.8187 5.5C22.1128 5.1018 23.4968 5.1018 24.7909 5.5L25.4552 5.70439C26.3165 5.9694 27.2376 5.9694 28.0989 5.70439C29.1445 5.38266 30.0878 6.43213 29.6569 7.43768L27.7175 11.9629C27.3323 12.8617 26.4486 13.4444 25.4707 13.4444H20.1389C19.161 13.4444 18.2773 12.8617 17.8921 11.9629L15.9527 7.43768Z" fill="#A3BAA3"/>
<path d="M17.0591 16.5351C17.9859 15.3554 19.4031 14.6667 20.9033 14.6667H24.0954C25.5956 14.6667 27.0128 15.3554 27.9396 16.5351L29.9663 19.1146C32.0997 21.8298 33.7146 24.9148 34.7301 28.2151L35.1627 29.6211C36.6137 34.3369 33.0876 39.1111 28.1536 39.1111H16.845C11.9111 39.1111 8.38501 34.3369 9.836 29.6211L10.2686 28.2151C11.2841 24.9148 12.899 21.8298 15.0324 19.1146L17.0591 16.5351Z" fill="#A3BAA3"/>
<path d="M16.0691 23.354C15.9754 22.9178 16.3079 22.5063 16.7541 22.5063H17.9106C18.2529 22.5063 18.5451 22.7536 18.6016 23.0911L19.7422 29.8992C19.7467 29.9261 19.77 29.9458 19.7973 29.9458C19.8238 29.9458 19.8467 29.9271 19.852 29.9011L21.2459 23.0669C21.3124 22.7406 21.5994 22.5063 21.9324 22.5063H23.0871C23.4201 22.5063 23.7072 22.7408 23.7736 23.0671L25.1692 29.924C25.1736 29.9457 25.1927 29.9613 25.2148 29.9613C25.2376 29.9613 25.257 29.9449 25.2608 29.9225L26.4173 23.09C26.4743 22.7529 26.7662 22.5063 27.108 22.5063H28.2656C28.7118 22.5063 29.0443 22.9178 28.9506 23.354L26.8439 33.1624C26.7746 33.4853 26.4892 33.7159 26.159 33.7159H24.526C24.1894 33.7159 23.9004 33.4766 23.8377 33.146L22.5611 26.4226C22.5561 26.3962 22.5329 26.377 22.506 26.377C22.479 26.377 22.4559 26.3962 22.4509 26.4227L21.1815 33.1453C21.119 33.4763 20.8299 33.7159 20.4931 33.7159H18.8607C18.5305 33.7159 18.2451 33.4853 18.1757 33.1624L16.0691 23.354ZM15.4922 27.9756C15.4922 27.5887 15.8059 27.275 16.1928 27.275H28.8269C29.2138 27.275 29.5275 27.5887 29.5275 27.9756V28.2466C29.5275 28.6335 29.2138 28.9472 28.8269 28.9472H16.1928C15.8059 28.9472 15.4922 28.6335 15.4922 28.2466V27.9756Z" fill="#60875F"/>
<rect x="17.3047" y="12.2222" width="11" height="3.66667" rx="1.83333" fill="#7A9B79"/>
<rect x="24.5" y="24" width="24" height="24" rx="12" fill="white" fill-opacity="0.6"/>
<path d="M30.25 35.5L34.75 40L42.75 32" stroke="#386937" stroke-width="2" stroke-linecap="round" stroke-linejoin="round"/>
</svg>