 <svg
              xmlns="http://www.w3.org/2000/svg"
              width="102"
              height="18"
              viewBox="0 0 102 18"
              fill="none"
            >
              <path
                d="M0.22 17V0.799999H3.8V17H0.22ZM6.03563 17V5.44H9.29563V6.6C9.72229 6.17333 10.1623 5.84 10.6156 5.6C11.0823 5.36 11.569 5.24 12.0756 5.24C12.5556 5.24 12.949 5.36 13.2556 5.6C13.5756 5.82667 13.8156 6.14667 13.9756 6.56C14.1356 6.96 14.2156 7.42 14.2156 7.94V17H10.9756V8.4C10.9756 8.12 10.929 7.90667 10.8356 7.76C10.7423 7.61333 10.569 7.54 10.3156 7.54C10.1823 7.54 10.0223 7.58 9.83563 7.66C9.66229 7.72667 9.48229 7.82667 9.29563 7.96V17H6.03563ZM19.7323 17.2C18.719 17.2 17.8723 16.9733 17.1923 16.52C16.5257 16.0667 15.979 15.3267 15.5523 14.3L17.7723 13.32C17.9857 13.84 18.2323 14.2533 18.5123 14.56C18.8057 14.8533 19.1257 15 19.4723 15C19.7257 15 19.9123 14.9467 20.0323 14.84C20.1657 14.7333 20.2323 14.5867 20.2323 14.4C20.2323 14.0933 20.1123 13.8133 19.8723 13.56C19.6457 13.3067 19.2323 12.9333 18.6323 12.44L17.7923 11.74C17.179 11.22 16.6923 10.72 16.3323 10.24C15.9857 9.74667 15.8123 9.14 15.8123 8.42C15.8123 7.79333 15.9723 7.24 16.2923 6.76C16.6257 6.28 17.0657 5.90667 17.6123 5.64C18.159 5.37333 18.7457 5.24 19.3723 5.24C20.319 5.24 21.1123 5.5 21.7523 6.02C22.3923 6.54 22.839 7.27333 23.0923 8.22L20.9923 9.18C20.9123 8.92667 20.799 8.67333 20.6523 8.42C20.5057 8.16667 20.3257 7.95333 20.1123 7.78C19.9123 7.60667 19.6923 7.52 19.4523 7.52C19.239 7.52 19.0657 7.58 18.9323 7.7C18.8123 7.82 18.7523 7.98 18.7523 8.18C18.7523 8.43333 18.8923 8.70667 19.1723 9C19.4657 9.29333 19.8657 9.64667 20.3723 10.06L21.1923 10.78C21.5257 11.06 21.8523 11.36 22.1723 11.68C22.4923 12 22.7523 12.3533 22.9523 12.74C23.1657 13.1267 23.2723 13.5667 23.2723 14.06C23.2723 14.7267 23.1057 15.3 22.7723 15.78C22.439 16.2467 21.999 16.6 21.4523 16.84C20.919 17.08 20.3457 17.2 19.7323 17.2ZM26.6889 17.2C26.2222 17.2 25.8222 17.0867 25.4889 16.86C25.1689 16.62 24.9289 16.2933 24.7689 15.88C24.6089 15.4667 24.5289 15.0067 24.5289 14.5V5.44H27.7889V14.12C27.7889 14.4 27.8356 14.62 27.9289 14.78C28.0356 14.9267 28.2156 15 28.4689 15C28.6156 15 28.7689 14.9667 28.9289 14.9C29.0889 14.82 29.2556 14.7333 29.4289 14.64V5.44H32.6689V17H29.4289V15.94C29.0156 16.3267 28.5756 16.6333 28.1089 16.86C27.6556 17.0867 27.1822 17.2 26.6889 17.2ZM34.907 17V0.799999H39.367C40.4604 0.799999 41.407 0.919999 42.207 1.16C43.007 1.4 43.627 1.83333 44.067 2.46C44.5204 3.07333 44.747 3.94667 44.747 5.08C44.747 5.74667 44.6937 6.34 44.587 6.86C44.4804 7.38 44.2804 7.83333 43.987 8.22C43.707 8.59333 43.3004 8.90667 42.767 9.16L44.987 17H41.287L39.507 9.74H38.487V17H34.907ZM38.487 7.68H39.487C39.9937 7.68 40.387 7.59333 40.667 7.42C40.947 7.23333 41.1404 6.97333 41.247 6.64C41.367 6.29333 41.427 5.88 41.427 5.4C41.427 4.70667 41.3004 4.16667 41.047 3.78C40.7937 3.39333 40.327 3.2 39.647 3.2H38.487V7.68ZM46.8992 17V0.799999H54.1792V3.24H50.4792V7.26H53.2992V9.74H50.4792V14.58H54.2192V17H46.8992ZM62.4217 17V3.46H59.9817V0.799999H68.4417V3.46H66.0217V17H62.4217ZM69.728 17V5.44H72.988V7.36C73.3613 6.69333 73.7346 6.18667 74.108 5.84C74.4813 5.48 74.9346 5.3 75.468 5.3C75.5746 5.3 75.668 5.30667 75.748 5.32C75.828 5.32 75.9013 5.33333 75.968 5.36V8.6C75.8213 8.53333 75.6546 8.48 75.468 8.44C75.2946 8.38667 75.108 8.36 74.908 8.36C74.5346 8.36 74.188 8.46 73.868 8.66C73.548 8.86 73.2546 9.13333 72.988 9.48V17H69.728ZM79.3842 17.2C78.9176 17.2 78.5176 17.0867 78.1842 16.86C77.8642 16.62 77.6242 16.2933 77.4642 15.88C77.3042 15.4667 77.2242 15.0067 77.2242 14.5V5.44H80.4842V14.12C80.4842 14.4 80.5309 14.62 80.6242 14.78C80.7309 14.9267 80.9109 15 81.1642 15C81.3109 15 81.4642 14.9667 81.6242 14.9C81.7842 14.82 81.9509 14.7333 82.1242 14.64V5.44H85.3642V17H82.1242V15.94C81.7109 16.3267 81.2709 16.6333 80.8042 16.86C80.3509 17.0867 79.8776 17.2 79.3842 17.2ZM90.9823 17.2C89.969 17.2 89.1223 16.9733 88.4423 16.52C87.7757 16.0667 87.229 15.3267 86.8023 14.3L89.0223 13.32C89.2357 13.84 89.4823 14.2533 89.7623 14.56C90.0557 14.8533 90.3757 15 90.7223 15C90.9757 15 91.1623 14.9467 91.2823 14.84C91.4157 14.7333 91.4823 14.5867 91.4823 14.4C91.4823 14.0933 91.3623 13.8133 91.1223 13.56C90.8957 13.3067 90.4823 12.9333 89.8823 12.44L89.0423 11.74C88.429 11.22 87.9423 10.72 87.5823 10.24C87.2357 9.74667 87.0623 9.14 87.0623 8.42C87.0623 7.79333 87.2223 7.24 87.5423 6.76C87.8757 6.28 88.3157 5.90667 88.8623 5.64C89.409 5.37333 89.9957 5.24 90.6223 5.24C91.569 5.24 92.3623 5.5 93.0023 6.02C93.6423 6.54 94.089 7.27333 94.3423 8.22L92.2423 9.18C92.1623 8.92667 92.049 8.67333 91.9023 8.42C91.7557 8.16667 91.5757 7.95333 91.3623 7.78C91.1623 7.60667 90.9423 7.52 90.7023 7.52C90.489 7.52 90.3157 7.58 90.1823 7.7C90.0623 7.82 90.0023 7.98 90.0023 8.18C90.0023 8.43333 90.1423 8.70667 90.4223 9C90.7157 9.29333 91.1157 9.64667 91.6223 10.06L92.4423 10.78C92.7757 11.06 93.1023 11.36 93.4223 11.68C93.7423 12 94.0023 12.3533 94.2023 12.74C94.4157 13.1267 94.5223 13.5667 94.5223 14.06C94.5223 14.7267 94.3557 15.3 94.0223 15.78C93.689 16.2467 93.249 16.6 92.7023 16.84C92.169 17.08 91.5957 17.2 90.9823 17.2ZM99.4789 17.12C98.6122 17.12 97.9389 16.9933 97.4589 16.74C96.9922 16.4867 96.6722 16.12 96.4989 15.64C96.3256 15.1467 96.2389 14.5533 96.2389 13.86V7.58H95.1189V5.44H96.2389V1.92H99.5389V5.44H101.179V7.58H99.5389V13.54C99.5389 13.8733 99.6322 14.1133 99.8189 14.26C100.019 14.4067 100.266 14.48 100.559 14.48C100.732 14.48 100.892 14.4733 101.039 14.46C101.186 14.4333 101.319 14.4133 101.439 14.4V16.96C101.266 16.9867 100.992 17.02 100.619 17.06C100.246 17.1 99.8656 17.12 99.4789 17.12Z"
                fill="white"
              />
            </svg>