<svg xmlns="http://www.w3.org/2000/svg" width="88" height="88" viewBox="0 0 88 88" fill="none">
<rect x="0.5" y="0.5" width="87" height="87" rx="11.5" stroke="#B8B9BC" stroke-dasharray="2 2"/>
<g clip-path="url(#clip0_100_34804)">
<path d="M52 35V28C52 26.8954 51.1046 26 50 26H37.8284C37.298 26 36.7893 26.2107 36.4142 26.5858L34.5 28.5L32.5858 30.4142C32.2107 30.7893 32 31.298 32 31.8284V48C32 49.1046 32.8954 50 34 50H38" stroke="#66686F" stroke-width="1.5" stroke-linecap="round"/>
<path d="M42 43V32M42 32L38 36M42 32L46 36" stroke="#66686F" stroke-width="1.5" stroke-linecap="round" stroke-linejoin="round"/>
<path d="M50.1468 53.7184L56.8643 47.0009C58.6217 45.2436 58.6217 42.3943 56.8643 40.637V40.637C55.1069 38.8796 52.2577 38.8796 50.5003 40.637L43.0757 48.0616C41.9041 49.2332 41.9041 51.1327 43.0757 52.3042V52.3042C44.2473 53.4758 46.1468 53.4758 47.3184 52.3042L54.0359 45.5867C54.6217 45.0009 54.6217 44.0512 54.0359 43.4654V43.4654C53.4501 42.8796 52.5003 42.8796 51.9146 43.4654L45.9041 49.4758" stroke="#66686F" stroke-width="1.5" stroke-linecap="round" stroke-linejoin="round"/>
</g>
<path d="M34.9531 71.2266L37.8477 68.1797C38.2266 67.7734 38.5156 67.4453 38.7148 67.1953C38.918 66.9453 39.0723 66.707 39.1777 66.4805C39.2832 66.25 39.3359 66.0078 39.3359 65.7539C39.3359 65.4688 39.2617 65.2188 39.1133 65.0039C38.9648 64.7852 38.7617 64.6152 38.5039 64.4941C38.25 64.373 37.9648 64.3125 37.6484 64.3125C37.3164 64.3125 37.0254 64.3789 36.7754 64.5117C36.5293 64.6445 36.3379 64.832 36.2012 65.0742C36.0645 65.3125 35.9961 65.5898 35.9961 65.9062H35C34.9961 65.4141 35.1094 64.9785 35.3398 64.5996C35.5742 64.2207 35.8965 63.9258 36.3066 63.7148C36.7168 63.5039 37.1758 63.3984 37.6836 63.3984C38.1875 63.3984 38.6387 63.502 39.0371 63.709C39.4395 63.916 39.7539 64.1992 39.9805 64.5586C40.207 64.918 40.3203 65.3164 40.3203 65.7539C40.3164 66.0781 40.2559 66.3887 40.1387 66.6855C40.0254 66.9785 39.8301 67.3047 39.5527 67.6641C39.2754 68.0234 38.8828 68.4648 38.375 68.9883L36.4297 70.9922V71.0625H40.4727V72H34.9648L34.9531 71.2266Z" fill="#66686F"/>
<path d="M42.3008 73.2773H41.3867L44.1172 63.1172H45.043L42.3008 73.2773ZM52.8945 72H51.8867L47.293 65.3906H47.2109V72H46.1562V63.5156H47.1758L51.7695 70.1367H51.8516V63.5156H52.8945V72Z" fill="#B8B9BC"/>
<defs>
<clipPath id="clip0_100_34804">
<rect width="32" height="32" fill="white" transform="translate(28 24)"/>
</clipPath>
</defs>
</svg>