<svg
                xmlns="http://www.w3.org/2000/svg"
                width="92"
                height="40"
                viewBox="0 0 96 32"
                fill="none"
              >
                <path
                  d="M18.553 12.1784C18.553 10.5143 15.523 9.70654 12.5001 9.46335C14.1148 8.94506 15.2806 7.30247 15.9719 4.54835C16.2279 3.52293 15.8794 2.66655 15.1052 2.41698C14.3309 2.1674 12.7497 2.40581 10.7994 6.78258C10.6497 7.121 10.5224 7.46887 10.4182 7.82395C8.68712 4.70703 7.34753 4.56749 6.66498 4.80192C5.89551 5.06744 5.56621 5.93099 5.84449 6.95083C6.13314 8.01399 6.48982 8.90652 6.91456 9.6284C5.06545 9.9027 2.4134 10.5669 2.34961 12.1226C2.34961 12.1314 2.34961 12.1401 2.34961 12.1481C2.34961 12.1561 2.34961 12.1688 2.34961 12.1792C2.35063 12.281 2.3632 12.3824 2.38708 12.4814L4.32789 25.5009C4.33988 25.5723 4.36217 25.6416 4.39407 25.7066C4.89163 27.5709 9.85765 27.6291 10.4541 27.6291C11.0792 27.6291 16.5612 27.5661 16.5612 25.3964C16.5612 25.3964 16.5612 25.39 16.5612 25.3876L18.4501 12.7166C18.5207 12.5461 18.5557 12.3629 18.553 12.1784ZM12.1955 7.36466C13.264 4.96856 14.1435 4.10182 14.5326 3.88334C14.5331 3.99098 14.5195 4.09822 14.492 4.20229C13.9123 6.51467 13.0822 7.77451 11.9165 8.09187C11.9962 7.84458 12.0894 7.60182 12.1955 7.36466ZM9.67187 9.69219C9.78242 9.92509 9.87803 10.1648 9.95812 10.4098C8.79077 10.1124 7.93838 8.86532 7.31484 6.57208C7.28499 6.46829 7.26864 6.36109 7.2662 6.25313C7.6601 6.46922 8.55555 7.31921 9.67187 9.69219ZM3.87737 12.1792C4.05279 11.9216 5.12526 11.3356 7.51657 11.0318C7.64574 11.0143 7.76836 10.9644 7.873 10.8867C8.50228 11.5128 9.33704 11.8898 10.2228 11.948C10.2357 12.4551 10.1804 12.9617 10.0586 13.4542C10.0586 13.4685 10.0586 13.4829 10.0522 13.4972C6.20011 13.4406 4.13811 12.5691 3.87737 12.1792ZM15.0246 25.2912C15.0246 25.2975 15.0246 25.3031 15.0246 25.3095C14.7113 25.6165 13.1109 26.1563 10.4437 26.1563C7.75897 26.1563 6.15466 25.6077 5.85963 25.3023C5.8492 25.2334 5.82907 25.1663 5.79983 25.103L4.15167 14.0482C5.90588 14.7475 8.57628 14.9748 10.4437 14.9748C12.2976 14.9748 14.9409 14.7507 16.6999 14.0634L15.0246 25.2912ZM16.9726 12.2262C16.621 12.6082 14.8317 13.329 11.6047 13.4741C11.7254 12.8772 11.7672 12.2671 11.7291 11.6593C11.8021 11.5088 11.819 11.3372 11.7769 11.1753C11.7522 11.0804 11.7331 10.9839 11.7139 10.8882C14.956 11.0477 16.6704 11.7789 16.9854 12.1449L16.9726 12.2262Z"
                  fill="#386937"
                />
                <path
                  d="M8.2004 16.1349H11.8205L10.8397 19.1075L13.3379 19.0341L9.05997 25.4482L9.55593 21.3728L7.5625 21.4183L8.2004 16.1349Z"
                  fill="#E8C746"
                />
                <path
                  d="M26.5377 19.8022H24.8784V26.1812H21.3867V10.5527H27.7378C29.7498 10.5527 30.7556 11.6159 30.755 13.7422V15.5538C30.755 16.8424 30.2928 17.6637 29.3684 18.0177C30.1791 18.3074 30.5847 18.9677 30.5852 19.9984V26.182H27.0082V20.2815C27.0082 19.9625 26.8514 19.803 26.5377 19.803V19.8022ZM26.7084 12.8651H24.8744V17.4101H26.7084C26.7711 17.4112 26.8334 17.3989 26.891 17.374C26.9486 17.3492 27.0003 17.3123 27.0425 17.2658C27.1301 17.1758 27.1788 17.0549 27.178 16.9293V13.3523C27.1796 13.2509 27.1492 13.1516 27.0911 13.0684C27.0493 13.0054 26.9924 12.9537 26.9255 12.9182C26.8587 12.8827 26.7841 12.8645 26.7084 12.8651ZM36.4618 19.6428V23.3904H40.294V26.1812H32.9693V10.5527H40.294V13.3435H36.4618V17.0114H40.1241V19.6428H36.4618ZM49.1512 13.4233H46.5111V10.5527H55.2822V13.4233H52.6421V26.1812H49.1496L49.1512 13.4233ZM61.9586 14.1409H62.5231V17.2507H60.8957C60.3343 17.2507 60.0534 17.5337 60.0528 18.0999V26.1812H56.7318V14.3801H59.7977V15.5044C60.2836 14.5954 61.0038 14.1409 61.9586 14.1409ZM69.6771 23.3848V14.1409H73.0835V25.942H70.0176V25.3352C69.5025 25.8987 68.7208 26.1807 67.6725 26.1812H67.1494C65.0869 26.1812 64.0556 25.118 64.0556 22.9917V14.1409H67.3775V23.3801C67.3761 23.4811 67.4062 23.58 67.4636 23.6631C67.5051 23.7269 67.562 23.7791 67.6291 23.8151C67.6961 23.851 67.7711 23.8695 67.8471 23.8688H69.2075C69.2702 23.8698 69.3323 23.8574 69.3898 23.8324C69.4473 23.8073 69.4988 23.7703 69.5408 23.7237C69.6292 23.6332 69.6783 23.5114 69.6771 23.3848ZM78.4921 18.5264H81.058C83.1232 18.5264 84.1558 19.5896 84.1558 21.7159V23.0141C84.1558 25.1234 83.1261 26.178 81.0668 26.178H78.3015C76.2427 26.178 75.2133 25.1234 75.2133 23.0141V22.2709H78.2792V23.2979C78.2778 23.4167 78.3195 23.5319 78.3964 23.6224C78.4393 23.6747 78.4936 23.7166 78.555 23.7449C78.6165 23.7732 78.6836 23.7872 78.7512 23.7859H80.7877C80.8505 23.7871 80.9128 23.7751 80.9706 23.7507C81.0285 23.7262 81.0805 23.6899 81.1234 23.644C81.167 23.6005 81.2015 23.5488 81.225 23.4919C81.2484 23.4349 81.2602 23.3738 81.2597 23.3123V21.8842C81.2613 21.7828 81.2309 21.6835 81.1728 21.6003C81.1309 21.5362 81.0735 21.4836 81.0059 21.4475C80.9383 21.4115 80.8627 21.393 80.7861 21.3938H78.2186C76.1581 21.3938 75.1279 20.3267 75.1279 18.1924V17.1008C75.1279 14.9665 76.1581 13.899 78.2186 13.8985H80.8339C82.9353 13.8985 83.9857 14.951 83.9851 17.0561V17.4867H80.8339V16.777C80.8356 16.6758 80.8052 16.5767 80.747 16.4939C80.7056 16.4309 80.6489 16.3792 80.5824 16.3437C80.5158 16.3082 80.4413 16.2899 80.3659 16.2906H78.4921C78.4294 16.2895 78.3673 16.3018 78.3098 16.3267C78.2523 16.3516 78.2008 16.3885 78.1587 16.4349C78.0713 16.5248 78.0227 16.6453 78.0232 16.7706V18.0369C78.0216 18.1384 78.0523 18.2378 78.1109 18.3207C78.1525 18.3836 78.2091 18.4351 78.2757 18.4705C78.3423 18.5059 78.4167 18.524 78.4921 18.5233V18.5264ZM90.6368 24.108H91.6503V26.1812H89.263C87.1643 26.1812 86.1147 25.118 86.1141 22.9917V11.5893H89.5213V14.1409H91.6503V16.533H89.5213V22.9503C89.5213 23.4005 89.6143 23.7062 89.8004 23.8672C89.9864 24.0283 90.2652 24.1086 90.6368 24.108Z"
                  fill="#1C1C1C"
                />
              </svg>