 <svg
                      xmlns="http://www.w3.org/2000/svg"
                      width="90"
                      height="26"
                      viewBox="0 0 90 26"
                      fill="none"
                    >
                      <g id="Layer 2">
                        <path
                          id="Vector"
                          d="M16.553 10.1784C16.553 8.51428 13.523 7.70654 10.5001 7.46335C12.1148 6.94506 13.2806 5.30247 13.9719 2.54835C14.2279 1.52293 13.8794 0.666554 13.1052 0.416977C12.3309 0.1674 10.7497 0.405814 8.79936 4.78258C8.64968 5.121 8.52236 5.46887 8.41821 5.82395C6.68712 2.70703 5.34753 2.56749 4.66498 2.80192C3.89551 3.06744 3.56621 3.93099 3.84449 4.95083C4.13314 6.01399 4.48982 6.90652 4.91456 7.6284C3.06545 7.9027 0.413399 8.56691 0.349609 10.1226C0.349609 10.1314 0.349609 10.1401 0.349609 10.1481C0.349609 10.1561 0.349609 10.1688 0.349609 10.1792C0.350629 10.281 0.363199 10.3824 0.387083 10.4814L2.32789 23.5009C2.33988 23.5723 2.36217 23.6416 2.39407 23.7066C2.89163 25.5709 7.85765 25.6291 8.45409 25.6291C9.07923 25.6291 14.5612 25.5661 14.5612 23.3964C14.5612 23.3964 14.5612 23.39 14.5612 23.3876L16.4501 10.7166C16.5207 10.5461 16.5557 10.3629 16.553 10.1784ZM10.1955 5.36466C11.264 2.96856 12.1435 2.10182 12.5326 1.88334C12.5331 1.99098 12.5195 2.09822 12.492 2.20229C11.9123 4.51467 11.0822 5.77451 9.91646 6.09187C9.99621 5.84458 10.0894 5.60182 10.1955 5.36466ZM7.67187 7.69219C7.78242 7.92509 7.87803 8.16478 7.95812 8.40983C6.79077 8.11241 5.93838 6.86532 5.31484 4.57208C5.28499 4.46829 5.26864 4.36109 5.2662 4.25313C5.6601 4.46922 6.55555 5.31921 7.67187 7.69219ZM1.87737 10.1792C2.05279 9.92164 3.12526 9.33557 5.51657 9.03177C5.64574 9.0143 5.76836 8.96438 5.873 8.88666C6.50228 9.51279 7.33704 9.8898 8.22285 9.94796C8.23569 10.4551 8.18045 10.9617 8.05859 11.4542C8.05859 11.4685 8.05859 11.4829 8.05221 11.4972C4.20011 11.4406 2.13811 10.5691 1.87737 10.1792ZM13.0246 23.2912C13.0246 23.2975 13.0246 23.3031 13.0246 23.3095C12.7113 23.6165 11.1109 24.1563 8.44372 24.1563C5.75897 24.1563 4.15466 23.6077 3.85963 23.3023C3.8492 23.2334 3.82907 23.1663 3.79983 23.103L2.15167 12.0482C3.90588 12.7475 6.57628 12.9748 8.44372 12.9748C10.2976 12.9748 12.9409 12.7507 14.6999 12.0634L13.0246 23.2912ZM14.9726 10.2262C14.621 10.6082 12.8317 11.329 9.6047 11.4741C9.72542 10.8772 9.76724 10.2671 9.72908 9.65931C9.80208 9.5088 9.81905 9.3372 9.77692 9.17531C9.7522 9.08042 9.73307 8.98393 9.71394 8.88825C12.956 9.04772 14.6704 9.77891 14.9854 10.1449L14.9726 10.2262Z"
                          fill="white"
                        />
                        <path
                          id="Vector_2"
                          d="M6.2004 14.1349H9.82046L8.83969 17.1075L11.3379 17.0341L7.05997 23.4482L7.55593 19.3728L5.5625 19.4183L6.2004 14.1349Z"
                          fill="white"
                        />
                        <path
                          id="id-D6z1nYkh8"
                          d="M24.5377 17.8022H22.8784V24.1812H19.3867V8.55273H25.7378C27.7498 8.55273 28.7556 9.6159 28.755 11.7422V13.5538C28.755 14.8424 28.2928 15.6637 27.3684 16.0177C28.1791 16.3074 28.5847 16.9677 28.5852 17.9984V24.182H25.0082V18.2815C25.0082 17.9625 24.8514 17.803 24.5377 17.803V17.8022ZM24.7084 10.8651H22.8744V15.4101H24.7084C24.7711 15.4112 24.8334 15.3989 24.891 15.374C24.9486 15.3492 25.0003 15.3123 25.0425 15.2658C25.1301 15.1758 25.1788 15.0549 25.178 14.9293V11.3523C25.1796 11.2509 25.1492 11.1516 25.0911 11.0684C25.0493 11.0054 24.9924 10.9537 24.9255 10.9182C24.8587 10.8827 24.7841 10.8645 24.7084 10.8651ZM34.4618 17.6428V21.3904H38.294V24.1812H30.9693V8.55273H38.294V11.3435H34.4618V15.0114H38.1241V17.6428H34.4618ZM47.1512 11.4233H44.5111V8.55273H53.2822V11.4233H50.6421V24.1812H47.1496L47.1512 11.4233ZM59.9586 12.1409H60.5231V15.2507H58.8957C58.3343 15.2507 58.0534 15.5337 58.0528 16.0999V24.1812H54.7318V12.3801H57.7977V13.5044C58.2836 12.5954 59.0038 12.1409 59.9586 12.1409ZM67.6771 21.3848V12.1409H71.0835V23.942H68.0176V23.3352C67.5025 23.8987 66.7208 24.1807 65.6725 24.1812H65.1494C63.0869 24.1812 62.0556 23.118 62.0556 20.9917V12.1409H65.3775V21.3801C65.3761 21.4811 65.4062 21.58 65.4636 21.6631C65.5051 21.7269 65.562 21.7791 65.6291 21.8151C65.6961 21.851 65.7711 21.8695 65.8471 21.8688H67.2075C67.2702 21.8698 67.3323 21.8574 67.3898 21.8324C67.4473 21.8073 67.4988 21.7703 67.5408 21.7237C67.6292 21.6332 67.6783 21.5114 67.6771 21.3848ZM76.4921 16.5264H79.058C81.1232 16.5264 82.1558 17.5896 82.1558 19.7159V21.0141C82.1558 23.1234 81.1261 24.178 79.0668 24.178H76.3015C74.2427 24.178 73.2133 23.1234 73.2133 21.0141V20.2709H76.2792V21.2979C76.2778 21.4167 76.3195 21.5319 76.3964 21.6224C76.4393 21.6747 76.4936 21.7166 76.555 21.7449C76.6165 21.7732 76.6836 21.7872 76.7512 21.7859H78.7877C78.8505 21.7871 78.9128 21.7751 78.9706 21.7507C79.0285 21.7262 79.0805 21.6899 79.1234 21.644C79.167 21.6005 79.2015 21.5488 79.225 21.4919C79.2484 21.4349 79.2602 21.3738 79.2597 21.3123V19.8842C79.2613 19.7828 79.2309 19.6835 79.1728 19.6003C79.1309 19.5362 79.0735 19.4836 79.0059 19.4475C78.9383 19.4115 78.8627 19.393 78.7861 19.3938H76.2186C74.1581 19.3938 73.1279 18.3267 73.1279 16.1924V15.1008C73.1279 12.9665 74.1581 11.899 76.2186 11.8985H78.8339C80.9353 11.8985 81.9857 12.951 81.9851 15.0561V15.4867H78.8339V14.777C78.8356 14.6758 78.8052 14.5767 78.747 14.4939C78.7056 14.4309 78.6489 14.3792 78.5824 14.3437C78.5158 14.3082 78.4413 14.2899 78.3659 14.2906H76.4921C76.4294 14.2895 76.3673 14.3018 76.3098 14.3267C76.2523 14.3516 76.2008 14.3885 76.1587 14.4349C76.0713 14.5248 76.0227 14.6453 76.0232 14.7706V16.0369C76.0216 16.1384 76.0523 16.2378 76.1109 16.3207C76.1525 16.3836 76.2091 16.4351 76.2757 16.4705C76.3423 16.5059 76.4167 16.524 76.4921 16.5233V16.5264ZM88.6368 22.108H89.6503V24.1812H87.263C85.1643 24.1812 84.1147 23.118 84.1141 20.9917V9.58932H87.5213V12.1409H89.6503V14.533H87.5213V20.9503C87.5213 21.4005 87.6143 21.7062 87.8004 21.8672C87.9864 22.0283 88.2652 22.1086 88.6368 22.108Z"
                          fill="white"
                        />
                      </g>
                    </svg>