<svg xmlns="http://www.w3.org/2000/svg" width="20" height="20" viewBox="0 0 20 20" fill="none">
<g clip-path="url(#clip0_278_14399)">
<circle cx="10" cy="10" r="10" fill="#A3BAA3"/>
<path d="M11.3913 3.04912C11.6648 2.77565 12.1201 2.82073 12.3346 3.14253L12.8129 3.85992C13.7793 5.30965 15.0233 6.55364 16.4731 7.52012L17.1905 7.99839C17.5123 8.21291 17.5573 8.66821 17.2839 8.94168C17.0773 9.14825 16.7536 9.1803 16.5105 9.01825L15.9007 8.61169C14.2453 7.50811 12.8249 6.08765 11.7213 4.43228L11.3147 3.82244C11.1527 3.57936 11.1847 3.2557 11.3913 3.04912Z" fill="white"/>
<path d="M4.96739 15.3662L4.52544 15.8081L4.96739 16.2501L5.40933 15.8081L4.96739 15.3662ZM4.82007 14.335C4.576 14.0909 4.18027 14.0909 3.93619 14.335C3.69211 14.5791 3.69211 14.9748 3.93619 15.2189L4.82007 14.335ZM5.1147 16.3974C5.35878 16.6415 5.75451 16.6415 5.99858 16.3974C6.24266 16.1533 6.24266 15.7576 5.99858 15.5135L5.1147 16.3974ZM6.58599 11.1749L5.96188 11.1415L6.58599 11.1749ZM15.4295 7.20787L9.81306 12.8244L10.6969 13.7082L16.3134 8.09175L15.4295 7.20787ZM9.1303 13.1281L6.40824 13.2689L6.47281 14.5172L9.19488 14.3764L9.1303 13.1281ZM7.06463 13.9264L7.21009 11.2083L5.96188 11.1415L5.81642 13.8596L7.06463 13.9264ZM7.5137 10.5274L13.1314 4.90972L12.2475 4.02583L6.62982 9.64352L7.5137 10.5274ZM5.99858 13.4511L4.52544 14.9242L5.40933 15.8081L6.88247 14.335L5.99858 13.4511ZM5.40933 14.9242L4.82007 14.335L3.93619 15.2189L4.52544 15.8081L5.40933 14.9242ZM3.93619 15.2189L5.1147 16.3974L5.99858 15.5135L4.82007 14.335L3.93619 15.2189ZM7.21009 11.2083C7.22383 10.9517 7.33196 10.7091 7.5137 10.5274L6.62982 9.64352C6.22999 10.0434 5.9921 10.5769 5.96188 11.1415L7.21009 11.2083ZM9.81306 12.8244C9.63087 13.0065 9.38762 13.1148 9.1303 13.1281L9.19488 14.3764C9.76097 14.3471 10.2961 14.1091 10.6969 13.7082L9.81306 12.8244Z" fill="white"/>
<rect x="8.38574" y="8.41309" width="5" height="1.25" transform="rotate(45 8.38574 8.41309)" fill="white"/>
</g>
<defs>
<clipPath id="clip0_278_14399">
<rect width="20" height="20" fill="white"/>
</clipPath>
</defs>
</svg>