<svg xmlns="http://www.w3.org/2000/svg" width="48" height="48" viewBox="0 0 48 48" fill="none">
<path d="M12.2216 7.33333L13.9501 5.60485C14.4085 5.14643 15.0302 4.88889 15.6785 4.88889H32.3882C33.7383 4.88889 34.8327 5.9833 34.8327 7.33333V36.6667C34.8327 38.0167 33.7383 39.1111 32.3882 39.1111H11.6105C10.2604 39.1111 9.16602 38.0167 9.16602 36.6667V11.4014C9.16602 10.7531 9.42355 10.1314 9.88198 9.67293L12.2216 7.33333Z" fill="#A3BAA3"/>
<rect x="14.0547" y="11" width="15.8889" height="2.44444" rx="1.22222" fill="#7A9B79"/>
<rect x="14.0547" y="15.8889" width="11" height="2.44444" rx="1.22222" fill="#7A9B79"/>
<rect x="14.0547" y="20.77" width="11" height="2.44444" rx="1.22222" fill="#7A9B79"/>
<rect x="24" y="24" width="24" height="24" rx="12" fill="white" fill-opacity="0.6"/>
<circle cx="35.074" cy="34.574" r="6.47693" transform="rotate(-45 35.074 34.574)" stroke="#386937" stroke-width="2"/>
<path d="M38.5771 39.3196L39.9914 37.9054L43.6937 41.6078C44.0842 41.9983 44.0842 42.6315 43.6937 43.022C43.3032 43.4125 42.67 43.4125 42.2795 43.022L38.5771 39.3196Z" fill="#386937"/>
<path d="M32.125 34.9496L34.125 36.9496L38.125 32.9496" stroke="#386937" stroke-width="2" stroke-linecap="round" stroke-linejoin="round"/>
</svg>