<svg xmlns="http://www.w3.org/2000/svg" width="24" height="24" viewBox="0 0 24 24" fill="none">
<path d="M16.2498 10.3334C16.2498 13.6011 13.6009 16.2501 10.3332 16.2501C7.06549 16.2501 4.4165 13.6011 4.4165 10.3334C4.4165 8.81757 4.98557 7.43642 5.9229 6.38916C6.42278 5.83064 7.02686 5.36786 7.70398 5.03136C8.49515 4.63818 9.38723 4.41675 10.3332 4.41675C13.6009 4.41675 16.2498 7.06573 16.2498 10.3334Z" stroke="#96989C" stroke-width="1.5"/>
<path d="M14.1296 15.0991L15.1446 14.0841L19.3727 18.3939C19.6484 18.6749 19.6463 19.1256 19.3679 19.404C19.0857 19.6861 18.6276 19.6839 18.3481 19.3991L14.1296 15.0991Z" fill="#96989C"/>
</svg>