 <svg
    xmlns="http://www.w3.org/2000/svg"
    xmlnsXlink="http://www.w3.org/1999/xlink"
    version="1.1"
    id="Layer_1"
    x="0px"
    y="0px"
    viewBox="0 0 64 64"
    xmlSpace="preserve"
    width="20px"
    height="20px"
    fill="#000000"
  >
    <g id="SVGRepo_bgCarrier" strokeWidth="0"></g>
    <g
      id="SVGRepo_tracerCarrier"
      strokeLinecap="round"
      strokeLinejoin="round"
    ></g>
    <g id="SVGRepo_iconCarrier">
      <path
        d="M62,6.086c0-0.69-0.562-1.252-1.252-1.252c-3.034,0-9.388,1.69-18.357,9.214 c-0.63,0.532-1.407,0.845-2.227,1.111L17.902,1.33c-0.243-0.104-0.516-0.131-0.776-0.077c-0.259,0.054-0.49,0.191-0.65,0.387 L12.98,5.836c-0.562,0.694-0.486,1.702,0.174,2.328l8.352,7.979L3.038,25.186c-0.885,0.252-1.585,0.95-1.838,1.838 c-0.253,0.889-0.045,1.83,0.554,2.518L8.15,33.09L1.523,42.192c-0.207,0.269-0.318,0.604-0.318,0.947 c0,0.343,0.111,0.679,0.318,0.947l1.59,2.063c0.35,0.453,0.875,0.716,1.438,0.736c0.003,0,0.006,0,0.009,0 c0.559,0,1.086-0.255,1.438-0.711l8.062-10.44l3.725,4.425c0.496,0.588,1.207,0.926,1.964,0.926c0.264,0,0.53-0.039,0.792-0.12 c0.89-0.269,1.585-0.95,1.838-1.838l7.715-25.509l8.167,7.812c0.313,0.298,0.722,0.459,1.147,0.459c0.003,0,0.007,0,0.01,0 c0.448-0.003,0.879-0.18,1.2-0.49l4.171-4.127c0.189-0.187,0.328-0.42,0.398-0.676c0.069-0.256,0.069-0.527,0-0.783 l-4.82-16.264c0.219-0.133,0.433-0.276,0.643-0.44C57.08,10.414,62,6.62,62,6.086z"
        fill="#000000"
      ></path>
    </g>
  </svg>