<svg xmlns="http://www.w3.org/2000/svg" width="101" height="100" viewBox="0 0 101 100" fill="none">
<g clip-path="url(#clip0_2106_4433)">
<rect x="0.5" width="100" height="100" rx="50" fill="#0E98F6" fill-opacity="0.72"/>
<rect width="32.6651" height="65.3303" transform="translate(50.5 -42.3914) rotate(45)" fill="url(#paint0_linear_2106_4433)"/>
<rect width="32.6651" height="65.3303" transform="translate(50.5 142.392) rotate(-135)" fill="url(#paint1_linear_2106_4433)"/>
<rect width="32.6651" height="65.3303" transform="matrix(0.707107 0.707107 0.707107 -0.707107 27.4019 26.9023)" fill="url(#paint2_linear_2106_4433)"/>
<rect width="32.6651" height="65.3303" transform="matrix(-0.707107 -0.707107 -0.707107 0.707107 73.5981 73.0977)" fill="url(#paint3_linear_2106_4433)"/>
<rect width="32.6651" height="65.3303" transform="translate(96.6958 3.80444) rotate(45)" fill="url(#paint4_linear_2106_4433)"/>
<rect width="32.6651" height="65.3303" transform="translate(4.3042 96.1956) rotate(-135)" fill="url(#paint5_linear_2106_4433)"/>
<rect width="32.6651" height="65.3303" transform="matrix(0.707107 0.707107 0.707107 -0.707107 73.5981 73.0977)" fill="url(#paint6_linear_2106_4433)"/>
<rect width="32.6651" height="65.3303" transform="matrix(-0.707107 -0.707107 -0.707107 0.707107 27.4019 26.9023)" fill="url(#paint7_linear_2106_4433)"/>
<path d="M29.5 47.9275L44.5459 63L70.5 37" stroke="white" stroke-width="6" stroke-linecap="round" stroke-linejoin="round"/>
</g>
<defs>
<linearGradient id="paint0_linear_2106_4433" x1="16.3326" y1="0" x2="16.3326" y2="65.3303" gradientUnits="userSpaceOnUse">
<stop stop-color="white" stop-opacity="0.1"/>
<stop offset="1" stop-color="white" stop-opacity="0.3"/>
</linearGradient>
<linearGradient id="paint1_linear_2106_4433" x1="16.3326" y1="0" x2="16.3326" y2="65.3303" gradientUnits="userSpaceOnUse">
<stop stop-color="white" stop-opacity="0.1"/>
<stop offset="1" stop-color="white" stop-opacity="0.3"/>
</linearGradient>
<linearGradient id="paint2_linear_2106_4433" x1="16.3326" y1="0" x2="16.3326" y2="65.3303" gradientUnits="userSpaceOnUse">
<stop stop-color="white" stop-opacity="0.1"/>
<stop offset="1" stop-color="white" stop-opacity="0.3"/>
</linearGradient>
<linearGradient id="paint3_linear_2106_4433" x1="16.3326" y1="0" x2="16.3326" y2="65.3303" gradientUnits="userSpaceOnUse">
<stop stop-color="white" stop-opacity="0.1"/>
<stop offset="1" stop-color="white" stop-opacity="0.3"/>
</linearGradient>
<linearGradient id="paint4_linear_2106_4433" x1="16.3326" y1="0" x2="16.3326" y2="65.3303" gradientUnits="userSpaceOnUse">
<stop stop-color="white" stop-opacity="0.1"/>
<stop offset="1" stop-color="white" stop-opacity="0.3"/>
</linearGradient>
<linearGradient id="paint5_linear_2106_4433" x1="16.3326" y1="0" x2="16.3326" y2="65.3303" gradientUnits="userSpaceOnUse">
<stop stop-color="white" stop-opacity="0.1"/>
<stop offset="1" stop-color="white" stop-opacity="0.3"/>
</linearGradient>
<linearGradient id="paint6_linear_2106_4433" x1="16.3326" y1="0" x2="16.3326" y2="65.3303" gradientUnits="userSpaceOnUse">
<stop stop-color="white" stop-opacity="0.1"/>
<stop offset="1" stop-color="white" stop-opacity="0.3"/>
</linearGradient>
<linearGradient id="paint7_linear_2106_4433" x1="16.3326" y1="0" x2="16.3326" y2="65.3303" gradientUnits="userSpaceOnUse">
<stop stop-color="white" stop-opacity="0.1"/>
<stop offset="1" stop-color="white" stop-opacity="0.3"/>
</linearGradient>
<clipPath id="clip0_2106_4433">
<rect x="0.5" width="100" height="100" rx="50" fill="white"/>
</clipPath>
</defs>
</svg>