<svg xmlns="http://www.w3.org/2000/svg" width="13" height="13" viewBox="0 0 13 13" fill="none">
  <path d="M6.49999 9.40469C6.39166 9.40469 6.2901 9.3879 6.19531 9.35431C6.10052 9.32073 6.0125 9.26304 5.93125 9.18125L3.00625 6.25625C2.84375 6.09375 2.76575 5.90417 2.77225 5.6875C2.77875 5.47083 2.85675 5.28125 3.00625 5.11875C3.16875 4.95625 3.36185 4.87175 3.58556 4.86525C3.80927 4.85875 4.0021 4.93648 4.16406 5.09844L5.6875 6.62188V0.812503C5.6875 0.582294 5.7655 0.389461 5.9215 0.234003C6.0775 0.0785445 6.27033 0.000544468 6.49999 2.80172e-06C6.72966 -0.000538865 6.92277 0.0774612 7.07931 0.234003C7.23585 0.390544 7.31358 0.583378 7.31249 0.812503V6.62188L8.83593 5.09844C8.99843 4.93594 9.19153 4.85794 9.41524 4.86444C9.63895 4.87094 9.83178 4.95571 9.99374 5.11875C10.1427 5.28125 10.2207 5.47083 10.2277 5.6875C10.2348 5.90417 10.1568 6.09375 9.99374 6.25625L7.06874 9.18125C6.98749 9.2625 6.89947 9.32019 6.80468 9.35431C6.70989 9.38844 6.60833 9.40523 6.49999 9.40469ZM1.625 13C1.17812 13 0.795708 12.841 0.477749 12.5231C0.159791 12.2051 0.000541666 11.8224 0 11.375V9.75C0 9.51979 0.078 9.32696 0.234 9.1715C0.39 9.01604 0.582833 8.93804 0.812499 8.9375C1.04217 8.93696 1.23527 9.01496 1.39181 9.1715C1.54835 9.32804 1.62608 9.52087 1.625 9.75V11.375H11.375V9.75C11.375 9.51979 11.453 9.32696 11.609 9.1715C11.765 9.01604 11.9578 8.93804 12.1875 8.9375C12.4172 8.93696 12.6103 9.01496 12.7668 9.1715C12.9233 9.32804 13.0011 9.52087 13 9.75V11.375C13 11.8219 12.841 12.2046 12.5231 12.5231C12.2051 12.8416 11.8224 13.0005 11.375 13H1.625Z" fill="#006934"/>
</svg>