<svg xmlns="http://www.w3.org/2000/svg" width="24" height="24" viewBox="0 0 24 24" fill="none">
<path d="M14.304 4.84387L17.156 7.69587M7 6.99987H4C3.73478 6.99987 3.48043 7.10523 3.29289 7.29277C3.10536 7.4803 3 7.73466 3 7.99987V17.9999C3 18.2651 3.10536 18.5194 3.29289 18.707C3.48043 18.8945 3.73478 18.9999 4 18.9999H15C15.2652 18.9999 15.5196 18.8945 15.7071 18.707C15.8946 18.5194 16 18.2651 16 17.9999V13.4999M18.409 3.58987C18.5964 3.77718 18.745 3.99956 18.8464 4.24433C18.9478 4.48909 19 4.75143 19 5.01637C19 5.28131 18.9478 5.54366 18.8464 5.78842C18.745 6.03318 18.5964 6.25557 18.409 6.44287L11.565 13.2869L8 13.9999L8.713 10.4349L15.557 3.59087C15.7442 3.40341 15.9664 3.25469 16.2111 3.15321C16.4558 3.05174 16.7181 2.99951 16.983 2.99951C17.2479 2.99951 17.5102 3.05174 17.7549 3.15321C17.9996 3.25469 18.2218 3.40341 18.409 3.59087V3.58987Z" stroke="#757575" stroke-width="2" stroke-linecap="round" stroke-linejoin="round"/>
</svg>