<svg xmlns="http://www.w3.org/2000/svg" width="101" height="100" viewBox="0 0 101 100" fill="none">
<g clip-path="url(#clip0_83_42276)">
<circle cx="50.5" cy="50" r="50" fill="#EBF0EB"/>
<path d="M49.634 21.5C50.0189 20.8333 50.9811 20.8333 51.366 21.5L79.0788 69.5C79.4637 70.1667 78.9826 71 78.2128 71H22.7872C22.0174 71 21.5363 70.1667 21.9212 69.5L49.634 21.5Z" fill="white" stroke="#386937" stroke-width="6"/>
<path d="M47.5 41C47.5 39.3431 48.8431 38 50.5 38C52.1569 38 53.5 39.3431 53.5 41V53C53.5 54.6569 52.1569 56 50.5 56C48.8431 56 47.5 54.6569 47.5 53V41Z" fill="#386937"/>
<circle cx="50.5" cy="61" r="3" fill="#386937"/>
</g>
<defs>
<clipPath id="clip0_83_42276">
<rect width="100" height="100" fill="white" transform="translate(0.5)"/>
</clipPath>
</defs>
</svg>