<svg xmlns="http://www.w3.org/2000/svg" width="19" height="23" viewBox="0 0 19 23" fill="none">
  <path d="M10.593 22.2577L10.582 22.2597L10.511 22.2947L10.491 22.2987L10.477 22.2947L10.406 22.2597C10.3953 22.2564 10.3873 22.258 10.382 22.2647L10.378 22.2747L10.361 22.7027L10.366 22.7227L10.376 22.7357L10.48 22.8097L10.495 22.8137L10.507 22.8097L10.611 22.7357L10.623 22.7197L10.627 22.7027L10.61 22.2757C10.6073 22.265 10.6017 22.259 10.593 22.2577ZM10.858 22.1447L10.845 22.1467L10.66 22.2397L10.65 22.2497L10.647 22.2607L10.665 22.6907L10.67 22.7027L10.678 22.7097L10.879 22.8027C10.8917 22.806 10.9013 22.8034 10.908 22.7947L10.912 22.7807L10.878 22.1667C10.8747 22.1547 10.868 22.1474 10.858 22.1447ZM10.143 22.1467C10.1386 22.144 10.1333 22.1432 10.1283 22.1443C10.1233 22.1454 10.1189 22.1484 10.116 22.1527L10.11 22.1667L10.076 22.7807C10.0767 22.7927 10.0823 22.8007 10.093 22.8047L10.108 22.8027L10.309 22.7097L10.319 22.7017L10.323 22.6907L10.34 22.2607L10.337 22.2487L10.327 22.2387L10.143 22.1467Z" fill="#386937" fill-opacity="0.9"/>
  <path d="M7.5 0.999786C8.13472 0.999689 8.74571 1.24102 9.20905 1.67483C9.67238 2.10863 9.95336 2.70244 9.995 3.33579L10 3.49979V8.10479L15.442 8.70979C16.3855 8.81464 17.261 9.25165 17.9119 9.94267C18.5628 10.6337 18.9467 11.5337 18.995 12.4818L19 12.6848V12.9998C19 15.0782 18.1911 17.075 16.7445 18.5675C15.298 20.0599 13.3274 20.9308 11.25 20.9958L11 20.9998H10.326C8.88847 20.9998 7.47751 20.6124 6.24148 19.8784C5.00546 19.1444 3.99004 18.091 3.302 16.8288L3.171 16.5778L0.329 10.8938C-0.031 10.1738 0.236 9.21079 1.076 8.86579C2.119 8.43879 3.11 8.35879 4.131 8.87779C4.353 8.99112 4.571 9.12912 4.785 9.29179L5 9.46179V3.49979C5 2.83675 5.26339 2.20086 5.73223 1.73202C6.20107 1.26318 6.83696 0.999786 7.5 0.999786ZM7.5 2.99979C7.38297 2.99975 7.26964 3.04076 7.17974 3.11568C7.08984 3.19059 7.02906 3.29467 7.008 3.40979L7 3.49979V11.9998C6.99984 12.2068 6.93542 12.4087 6.81565 12.5776C6.69587 12.7464 6.52663 12.8739 6.3313 12.9425C6.13596 13.0111 5.92414 13.0174 5.72509 12.9605C5.52604 12.9036 5.34956 12.7863 5.22 12.6248L4.888 12.2178L4.585 11.8638C4.005 11.2068 3.584 10.8438 3.225 10.6608C3.01269 10.5464 2.77084 10.4987 2.531 10.5238L2.39 10.5438L4.96 15.6838C5.43992 16.6433 6.16833 17.4565 7.06935 18.0389C7.97038 18.6212 9.01106 18.9513 10.083 18.9948L10.326 18.9998H11C12.5524 18.9998 14.0444 18.3982 15.1625 17.3213C16.2806 16.2444 16.9378 14.7761 16.996 13.2248L17 12.9998V12.6848C17.0001 12.2201 16.8383 11.7699 16.5425 11.4115C16.2467 11.0531 15.8353 10.8088 15.379 10.7208L15.221 10.6968L9.779 10.0928C9.31696 10.0415 8.88723 9.83084 8.56366 9.49706C8.24009 9.16327 8.04291 8.72719 8.006 8.26379L8 8.10479V3.49979C8 3.36718 7.94732 3.24 7.85355 3.14623C7.75979 3.05246 7.63261 2.99979 7.5 2.99979ZM2 4.99979C2.26522 4.99979 2.51957 5.10514 2.70711 5.29268C2.89464 5.48022 3 5.73457 3 5.99979C3 6.265 2.89464 6.51936 2.70711 6.70689C2.51957 6.89443 2.26522 6.99979 2 6.99979H1C0.734784 6.99979 0.48043 6.89443 0.292893 6.70689C0.105357 6.51936 0 6.265 0 5.99979C0 5.73457 0.105357 5.48022 0.292893 5.29268C0.48043 5.10514 0.734784 4.99979 1 4.99979H2ZM14 3.99979C14.2549 4.00007 14.5 4.09767 14.6854 4.27263C14.8707 4.4476 14.9822 4.68674 14.9972 4.94118C15.0121 5.19562 14.9293 5.44617 14.7657 5.64162C14.6021 5.83707 14.3701 5.96268 14.117 5.99279L14 5.99979H13C12.7451 5.9995 12.5 5.90191 12.3146 5.72694C12.1293 5.55197 12.0178 5.31283 12.0028 5.05839C11.9879 4.80395 12.0707 4.55341 12.2343 4.35795C12.3979 4.1625 12.6299 4.03689 12.883 4.00679L13 3.99979H14ZM2.707 0.292786L3.707 1.29279C3.88916 1.48139 3.98995 1.73399 3.98767 1.99619C3.9854 2.25838 3.88023 2.5092 3.69482 2.6946C3.50941 2.88001 3.2586 2.98518 2.9964 2.98746C2.7342 2.98974 2.4816 2.88894 2.293 2.70679L1.293 1.70679C1.11084 1.51818 1.01005 1.26558 1.01233 1.00339C1.0146 0.741188 1.11977 0.490376 1.30518 0.304968C1.49059 0.11956 1.7414 0.0143909 2.0036 0.0121125C2.2658 0.00983408 2.5184 0.110628 2.707 0.292786ZM13.707 0.292786C13.8945 0.480314 13.9998 0.734622 13.9998 0.999786C13.9998 1.26495 13.8945 1.51926 13.707 1.70679L12.707 2.70679C12.6148 2.8023 12.5044 2.87848 12.3824 2.93089C12.2604 2.9833 12.1292 3.01088 11.9964 3.01204C11.8636 3.01319 11.7319 2.98789 11.609 2.93761C11.4861 2.88733 11.3745 2.81307 11.2806 2.71918C11.1867 2.62529 11.1125 2.51364 11.0622 2.39074C11.0119 2.26784 10.9866 2.13616 10.9877 2.00339C10.9889 1.87061 11.0165 1.73939 11.0689 1.61738C11.1213 1.49538 11.1975 1.38503 11.293 1.29279L12.293 0.292786C12.4805 0.105315 12.7348 0 13 0C13.2652 0 13.5195 0.105315 13.707 0.292786Z" fill="#386937" fill-opacity="0.9"/>
</svg>