
<svg xmlns="http://www.w3.org/2000/svg" xmlns:xlink="http://www.w3.org/1999/xlink"
     version="1.1" id="레이어_1" x="0px" y="0px" width="150px"
     viewBox="0 0 841.89 595.28" enable-background="new 0 0 841.89 595.28"
     xml:space="preserve">
<g>
	<g>
		<path fill="#FFFFFF" d="M81.477,249.703h17.011v85.055H81.477V249.703z"/>
		<path fill="#FFFFFF" d="M185.603,327.285l7.701-10.574c5.747,4.484,11.265,7.013,17.241,7.013c6.437,0,9.31-2.759,9.31-6.78    c0-4.83-6.666-7.013-13.448-9.654c-8.161-3.105-17.585-8.049-17.585-18.736c0-11.608,9.425-19.77,23.907-19.77    c9.425,0,16.551,3.907,21.954,7.93l-7.586,10.23c-4.598-3.219-9.081-5.518-13.908-5.518c-5.747,0-8.506,2.529-8.506,6.207    c0,4.711,6.322,6.437,13.104,8.965c8.505,3.218,17.93,7.472,17.93,19.425c0,11.262-8.85,20.344-25.631,20.344    C201.465,336.367,191.925,332.575,185.603,327.285z"/>
		<path fill="#FFFFFF" d="M401.562,249.703h52.183v14.136h-35.171v19.656h29.883v14.252h-29.883v22.758h36.435v14.252h-53.446    V249.703z"/>
		<path fill="#FFFFFF" d="M515.228,263.839H491.32v-14.136h65.055v14.136h-24.137v70.919h-17.011V263.839z"/>
		<path fill="#FFFFFF" d="M563.154,270.392h13.793l1.149,11.378h0.462c4.709-8.389,11.605-12.986,18.273-12.986    c3.565,0,5.631,0.573,7.587,1.379l-2.989,14.599c-2.185-0.692-4.023-1.036-6.668-1.036c-5.057,0-11.146,3.335-14.825,12.644v38.39    h-16.782V270.392z"/>
		<path fill="#FFFFFF" d="M680.384,327.285l7.703-10.574c5.747,4.484,11.263,7.013,17.241,7.013c6.435,0,9.31-2.759,9.31-6.78    c0-4.83-6.669-7.013-13.448-9.654c-8.16-3.105-17.586-8.049-17.586-18.736c0-11.608,9.426-19.77,23.906-19.77    c9.427,0,16.551,3.907,21.956,7.93l-7.587,10.23c-4.598-3.219-9.078-5.518-13.91-5.518c-5.744,0-8.502,2.529-8.502,6.207    c0,4.711,6.32,6.437,13.1,8.965c8.508,3.218,17.932,7.472,17.932,19.425c0,11.262-8.85,20.344-25.632,20.344    C696.247,336.367,686.707,332.575,680.384,327.285z"/>
		<path fill="#FFFFFF" d="M743.139,312.229v-28.505h-9.078v-12.529l9.88-0.804l1.956-17.24h14.136v17.24h15.866v13.333h-15.866    v28.505c0,7.356,2.991,10.805,8.736,10.805c2.07,0,4.598-0.689,6.323-1.379l2.758,12.3c-3.448,1.146-7.93,2.412-13.563,2.412    C749,336.367,743.139,326.712,743.139,312.229z"/>
		<g>
			<path fill="none" d="M351.642,289.102c10.638-0.121,16.477-4.697,16.477-13.652c0-9.195-5.977-12.297-16.896-12.297h-11.034     v22.563h11.453V289.102z"/>
			<path fill="#FFFFFF" d="M368.579,299.933c9.77-3.794,16.206-11.727,16.206-24.483c0-19.54-14.137-25.746-31.953-25.746h-29.655     v85.055h17.011V321.23v-18.655v-13.449v-3.412v-22.563h11.034c10.919,0,16.896,3.102,16.896,12.297     c0,8.956-5.839,13.531-16.477,13.652v13.474h0.386l17.471,32.183h18.964L368.579,299.933z"/>
		</g>
	</g>
	<path fill="#FFFFFF" d="M251.716,321.311c1.02,2.839,2.526,5.382,4.525,7.637c1.996,2.254,4.489,4.054,7.467,5.402   c2.981,1.345,6.401,2.018,10.258,2.018h4.157h4.155c3.857,0,7.276-0.673,10.257-2.018c2.981-1.349,5.471-3.148,7.47-5.402   c1.999-2.255,3.504-4.798,4.525-7.637c1.014-2.833,1.522-5.708,1.522-8.617v-45.708h-15.464v42.438c0,1.597-0.121,3.107-0.37,4.524   c-0.243,1.422-0.75,2.639-1.522,3.656c-0.774,1.017-1.861,1.814-3.26,2.398c-1.405,0.584-3.264,0.873-5.578,0.873h-1.735h-1.735   c-2.313,0-4.171-0.289-5.578-0.873c-1.398-0.584-2.487-1.382-3.262-2.398c-0.77-1.018-1.28-2.234-1.522-3.656   c-0.249-1.417-0.372-2.928-0.372-4.524v-42.438h-15.463v45.708C250.191,315.603,250.7,318.478,251.716,321.311z"/>
	<path fill="#FFFFFF" d="M617.609,323.789c1.02,2.838,2.527,5.381,4.526,7.637c1.996,2.253,4.488,4.053,7.467,5.401   c2.981,1.345,6.4,2.019,10.257,2.019h4.157h4.154c3.859,0,7.278-0.674,10.26-2.019c2.981-1.349,5.471-3.148,7.47-5.401   c1.999-2.256,3.504-4.799,4.523-7.637c1.014-2.834,1.523-5.709,1.523-8.617v-45.709h-15.465V311.9c0,1.598-0.122,3.107-0.372,4.525   c-0.241,1.42-0.748,2.637-1.521,3.656c-0.775,1.016-1.861,1.814-3.26,2.398c-1.407,0.583-3.266,0.873-5.577,0.873h-1.736h-1.733   c-2.314,0-4.173-0.29-5.577-0.873c-1.399-0.584-2.49-1.383-3.263-2.398c-0.77-1.02-1.279-2.236-1.523-3.656   c-0.247-1.418-0.372-2.928-0.372-4.525v-42.438h-15.462v45.709C616.086,318.08,616.596,320.955,617.609,323.789z"/>
</g>
<g>
	<path fill-rule="evenodd" clip-rule="evenodd" fill="#FFFFFF" d="M121.85,263.884c0.144-3.151,0.009-6.345,0.484-9.446   c1.543-10.075,11.143-17.686,21.31-17.128c11.51,0.631,19.778,8.601,20.301,19.583c0.048,1.026,0.109,2.072-0.029,3.083   c-0.344,2.542-2.325,4.213-4.631,4.029c-2.231-0.177-3.541-1.764-3.463-4.505c0.135-4.638-0.886-8.783-4.856-11.634   c-4.392-3.15-9.157-3.641-14.006-1.241c-4.76,2.355-6.989,6.437-7.075,11.676c-0.07,4.326-0.056,24.605,0.009,28.931   c0.025,1.546-0.385,2.317-2.094,2.146c-1.291-0.129-2.612-0.087-3.91,0.005c-1.459,0.103-1.956-0.517-1.921-1.921   c0.063-2.541,0.018-21.032,0.018-23.573C121.94,263.889,121.896,263.887,121.85,263.884z"/>
	<g>
		<path fill="#FFFFFF" d="M168.849,282.412c-1.001-2.799-2.49-5.305-4.462-7.529c-1.965-2.221-4.423-3.995-7.359-5.324    c-2.94-1.327-6.311-1.99-10.113-1.99h-4.097h-4.097c-3.802,0-7.172,0.663-10.111,1.99c-2.939,1.329-5.394,3.103-7.364,5.324    c-1.97,2.224-3.454,4.73-4.461,7.529c-1,2.792-1.5,5.626-1.5,8.494v45.059h7.978h7.268h24.581h5.725h9.514v-45.059    C170.352,288.038,169.851,285.205,168.849,282.412z M147.975,307.899c0.829,3.406,1.406,6.874,2.137,10.305    c0.4,1.88-0.24,2.699-2.205,2.589c-1.671-0.096-3.35-0.02-5.03-0.02c0,0.009,0,0.02,0,0.026c-1.673,0-3.354-0.081-5.024,0.022    c-2.007,0.122-2.563-0.768-2.187-2.607c0.689-3.359,1.205-6.758,2.025-10.084c0.442-1.796,0.087-2.934-1.319-4.156    c-3.018-2.618-4.293-5.975-2.951-9.894c1.273-3.701,3.983-5.922,7.884-6.475c4.054-0.579,7.42,0.738,9.787,4.142    c2.737,3.927,2.03,9.107-1.772,12.257C147.947,305.143,147.561,306.186,147.975,307.899z"/>
	</g>
</g>
</svg>