<svg
                xmlns="http://www.w3.org/2000/svg"
                width="24"
                height="24"
                viewBox="0 0 24 24"
                fill="none"
              >
                <path
                  d="M4 9.37886C4 9.05363 4.15816 8.74872 4.42401 8.5614L11.424 3.62915C11.7694 3.38576 12.2306 3.38576 12.576 3.62915L19.576 8.5614C19.8418 8.74872 20 9.05363 20 9.37886V20C20 20.5523 19.5523 21 19 21H5C4.44771 21 4 20.5523 4 20V9.37886Z"
                  stroke="#1B1E28"
                  strokeWidth="2"
                />
                <path
                  d="M13 15C13 14.4477 12.5523 14 12 14C11.4477 14 11 14.4477 11 15H13ZM13 20V15H11V20H13Z"
                  fill="#1B1E28"
                />
              </svg>