<svg xmlns="http://www.w3.org/2000/svg" width="72" height="72" viewBox="0 0 72 72" fill="none">
<g clip-path="url(#clip0_48_158)">
<rect width="72" height="72" rx="36" fill="white"/>
<path d="M-20.4884 20.8873C-18.4033 18.7468 -13.3922 14.2027 -5.54354 12.441C-4.29104 12.1588 7.61228 9.64903 15.5763 15.671C16.9145 16.6798 19.8719 19.2429 22.8345 22.4013C24.675 24.3681 25.3244 25.2947 27.0793 26.8798C27.0793 26.8798 30.3811 29.8679 33.7542 31.6029C38.8089 34.2062 48.5901 32.0437 58.3884 25.9484C60.5401 30.3456 63.1688 37.4828 60.7212 44.1721C53.7189 63.3116 7.28009 72.9485 -11.8004 51.9637C-21.1819 41.6606 -20.9978 27.2154 -20.4884 20.8873Z" fill="#B3D1B3"/>
<path d="M-9.68547 33.5279C-5.4257 35.6629 1.09488 38.3863 9.43597 39.7702C15.9662 40.8642 20.9874 41.6956 26.8053 40.0321C35.2442 37.6312 36.749 33.3325 44.4976 27.9562C46.5972 26.4994 56.1445 21.4661 66.4625 21.8672C66.4625 21.8672 77.5832 20.2351 97.5056 35.8098C97.3418 36.2184 92.2284 55.2669 86.0125 64.1606C73.3686 82.2621 32.882 91.646 8.4408 71.1575C-6.84786 58.3474 -9.20038 39.4129 -9.69878 33.5249L-9.68547 33.5279Z" fill="#3D683B"/>
</g>
<defs>
<clipPath id="clip0_48_158">
<rect width="72" height="72" rx="36" fill="white"/>
</clipPath>
</defs>
</svg>