<svg xmlns="http://www.w3.org/2000/svg" width="72" height="72" viewBox="0 0 72 72" fill="none">
<g clip-path="url(#clip0_48_153)">
<rect width="72" height="72" rx="36" fill="white"/>
<path d="M13.5633 37.8494C16.6626 39.4541 21.4122 41.5098 27.508 42.5952C32.2802 43.4527 35.9499 44.1048 40.2269 42.9285C46.4308 41.2312 47.5742 38.0818 53.3011 34.1906C54.8529 33.1362 61.894 29.5118 69.4471 29.8904C69.4471 29.8904 77.6077 28.7801 92.0493 40.3959C91.9253 40.6952 87.9971 54.663 83.3589 61.1536C73.9242 74.3639 44.1811 80.9373 26.4772 65.671C15.4028 56.126 13.8619 42.1814 13.5536 37.8471L13.5633 37.8494Z" fill="#B3D1B3"/>
<path d="M-14.8878 29.5142C-12.3546 27.5831 -6.33544 23.5397 2.47585 22.5387C3.88209 22.3779 17.2267 21.021 25.269 27.7804C26.6207 28.9132 29.5695 31.7486 32.4556 35.1773C34.248 37.312 34.8536 38.2968 36.5961 40.0432C36.5961 40.0432 39.8738 43.3349 43.3738 45.3858C48.6184 48.4625 59.5955 47.2478 71.0439 42.1192C72.8979 46.7035 74.96 54.0614 71.5057 60.4864C61.6232 78.8698 9.57925 84.0095 -8.93419 61.287C-18.0386 50.1293 -16.1746 35.7655 -14.8878 29.5142Z" fill="#3D683B"/>
<path d="M43.0482 24.8021C44.7348 22.5767 47.7787 22.043 49.8439 23.6081C51.909 25.1732 52.2181 28.2481 50.5315 30.4735C48.845 32.6989 41.7419 34.2986 41.7419 34.2986C41.7419 34.2986 41.3617 27.0275 43.0482 24.8021Z" fill="#3D683B"/>
<path d="M32.9539 27.5412C31.8748 25.9327 32.2118 23.8156 33.7045 22.8143C35.1972 21.8129 37.2839 22.3042 38.363 23.9127C39.442 25.5213 38.8881 30.5416 38.8881 30.5416C38.8881 30.5416 34.0329 29.1498 32.9539 27.5412Z" fill="#B3D1B3"/>
</g>
<defs>
<clipPath id="clip0_48_153">
<rect width="72" height="72" rx="36" fill="white"/>
</clipPath>
</defs>
</svg>