<svg
            xmlns="http://www.w3.org/2000/svg"
            width="113"
            height="33"
            viewBox="0 0 113 33"
            fill="none"
          >
            <g id="Layer 2">
              <path
                id="Vector"
                d="M21.1908 13.2225C21.1908 11.1424 17.4032 10.1327 13.6247 9.8287C15.643 9.18083 17.1002 7.1276 17.9644 3.68495C18.2843 2.40317 17.8488 1.3327 16.881 1.02073C15.9132 0.708761 13.9367 1.00678 11.4987 6.47774C11.3116 6.90077 11.1525 7.3356 11.0223 7.77945C8.85841 3.8833 7.18392 3.70887 6.33073 4.00191C5.3689 4.33381 4.95727 5.41325 5.30512 6.68805C5.66593 8.017 6.11179 9.13266 6.64271 10.035C4.33133 10.3779 1.01626 11.2082 0.936523 13.1527C0.936523 13.1637 0.936523 13.1747 0.936523 13.1846C0.936523 13.1946 0.936523 13.2105 0.936523 13.2235C0.937798 13.3508 0.953511 13.4775 0.983366 13.6013L3.40937 29.8756C3.42437 29.9649 3.45223 30.0515 3.49209 30.1328C4.11404 32.4631 10.3216 32.5358 11.0671 32.5358C11.8485 32.5358 18.701 32.4571 18.701 29.745C18.701 29.745 18.701 29.7371 18.701 29.7341L21.0622 13.8953C21.1504 13.6821 21.1941 13.4532 21.1908 13.2225ZM13.2439 7.20534C14.5795 4.21022 15.6789 3.12679 16.1653 2.85369C16.1659 2.98824 16.1488 3.12229 16.1145 3.25238C15.3899 6.14285 14.3523 7.71765 12.8951 8.11435C12.9948 7.80523 13.1112 7.50178 13.2439 7.20534ZM10.0894 10.1148C10.2275 10.4059 10.3471 10.7055 10.4472 11.0118C8.98798 10.64 7.92249 9.08116 7.14306 6.21461C7.10574 6.08488 7.08531 5.95088 7.08226 5.81592C7.57464 6.08603 8.69395 7.14853 10.0894 10.1148ZM2.84622 13.2235C3.0655 12.9016 4.40608 12.169 7.39523 11.7892C7.55668 11.7674 7.70997 11.705 7.84076 11.6078C8.62736 12.3905 9.67081 12.8618 10.7781 12.9345C10.7941 13.5684 10.7251 14.2017 10.5728 14.8172C10.5728 14.8352 10.5727 14.8531 10.5648 14.8711C5.74965 14.8003 3.17215 13.7109 2.84622 13.2235ZM16.7803 29.6135C16.7803 29.6214 16.7803 29.6284 16.7803 29.6364C16.3886 30.0201 14.3882 30.6949 11.0542 30.6949C7.69823 30.6949 5.69284 30.0092 5.32405 29.6274C5.31101 29.5413 5.28585 29.4574 5.2493 29.3782L3.18909 15.5598C5.38187 16.4339 8.71986 16.718 11.0542 16.718C13.3715 16.718 16.6756 16.4379 18.8744 15.5787L16.7803 29.6135ZM19.2153 13.2823C18.7757 13.7597 16.5391 14.6608 12.5054 14.8422C12.6563 14.0961 12.7086 13.3334 12.6609 12.5736C12.7521 12.3855 12.7733 12.171 12.7207 11.9686C12.6898 11.85 12.6659 11.7294 12.6419 11.6098C16.6946 11.8092 18.8375 12.7232 19.2312 13.1806L19.2153 13.2823Z"
                fill="white"
              />
              <path
                id="Vector_2"
                d="M8.2505 18.168H12.7756L11.5496 21.8837L14.6723 21.792L9.32496 29.8096L9.94491 24.7154L7.45312 24.7722L8.2505 18.168Z"
                fill="white"
              />
              <path
                id="id-D6z1nYkh8"
                d="M31.1712 22.7523H29.097V30.726H24.7324V11.1904H32.6713C35.1863 11.1904 36.4435 12.5194 36.4428 15.1773V17.4418C36.4428 19.0525 35.8651 20.0791 34.7095 20.5217C35.7229 20.8838 36.2298 21.7091 36.2305 22.9975V30.727H31.7593V23.3513C31.7593 22.9527 31.5632 22.7533 31.1712 22.7533V22.7523ZM31.3845 14.0809H29.092V19.7622H31.3845C31.4629 19.7636 31.5408 19.7482 31.6128 19.7171C31.6848 19.686 31.7494 19.6398 31.8021 19.5818C31.9116 19.4692 31.9725 19.3182 31.9716 19.1612V14.6899C31.9735 14.5632 31.9355 14.439 31.8629 14.3351C31.8106 14.2562 31.7395 14.1917 31.6559 14.1473C31.5724 14.1029 31.4791 14.0801 31.3845 14.0809ZM43.5763 22.553V27.2375H48.3665V30.726H39.2107V11.1904H48.3665V14.6789H43.5763V19.2638H48.1542V22.553H43.5763ZM59.438 14.7786H56.1379V11.1904H67.1017V14.7786H63.8016V30.726H59.436L59.438 14.7786ZM75.4472 15.6756H76.1529V19.5628H74.1186C73.4169 19.5628 73.0657 19.9167 73.0651 20.6243V30.726H68.9138V15.9747H72.7461V17.38C73.3535 16.2438 74.2538 15.6756 75.4472 15.6756ZM85.0954 27.2306V15.6756H89.3534V30.427H85.521V29.6685C84.8771 30.3729 83.9 30.7254 82.5897 30.726H81.9358C79.3577 30.726 78.0686 29.3971 78.0686 26.7392V15.6756H82.2209V27.2246C82.2191 27.3508 82.2567 27.4745 82.3285 27.5784C82.3804 27.6581 82.4515 27.7234 82.5353 27.7683C82.6191 27.8133 82.7129 27.8364 82.808 27.8356H84.5084C84.5867 27.8368 84.6644 27.8213 84.7363 27.79C84.8082 27.7587 84.8725 27.7124 84.925 27.6542C85.0356 27.5411 85.0969 27.3887 85.0954 27.2306ZM96.1141 21.1576H99.3215C101.903 21.1576 103.194 22.4865 103.194 25.1444V26.7671C103.194 29.4037 101.907 30.722 99.3325 30.722H95.8759C93.3024 30.722 92.0156 29.4037 92.0156 26.7671V25.8381H95.848V27.1219C95.8463 27.2704 95.8984 27.4144 95.9945 27.5276C96.0482 27.5929 96.116 27.6452 96.1928 27.6806C96.2696 27.716 96.3535 27.7335 96.438 27.7319H98.9836C99.0621 27.7334 99.14 27.7184 99.2123 27.6879C99.2846 27.6573 99.3497 27.6119 99.4032 27.5545C99.4578 27.5002 99.501 27.4355 99.5302 27.3643C99.5595 27.2931 99.5742 27.2168 99.5737 27.1398V25.3547C99.5756 25.228 99.5376 25.1039 99.465 24.9999C99.4126 24.9197 99.3409 24.8541 99.2564 24.8089C99.1719 24.7638 99.0774 24.7407 98.9816 24.7418H95.7722C93.1967 24.7418 91.909 23.4078 91.909 20.74V19.3755C91.909 16.7076 93.1967 15.3733 95.7722 15.3726H99.0414C101.668 15.3726 102.981 16.6883 102.98 19.3196V19.8579H99.0414V18.9708C99.0435 18.8443 99.0055 18.7204 98.9328 18.6169C98.881 18.5381 98.8102 18.4736 98.727 18.4292C98.6437 18.3848 98.5507 18.3619 98.4564 18.3628H96.1141C96.0358 18.3614 95.9581 18.3768 95.8863 18.4079C95.8144 18.439 95.75 18.4852 95.6975 18.5432C95.5882 18.6555 95.5274 18.8061 95.528 18.9628V20.5456C95.526 20.6725 95.5644 20.7968 95.6377 20.9004C95.6896 20.9791 95.7604 21.0434 95.8436 21.0876C95.9269 21.1319 96.0199 21.1545 96.1141 21.1536V21.1576ZM111.295 28.1346H112.562V30.726H109.578C106.954 30.726 105.642 29.3971 105.642 26.7392V12.4862H109.901V15.6756H112.562V18.6658H109.901V26.6873C109.901 27.2502 110.017 27.6322 110.249 27.8336C110.482 28.0349 110.831 28.1352 111.295 28.1346Z"
                fill="white"
              />
            </g>
          </svg>