<svg xmlns="http://www.w3.org/2000/svg" width="72" height="72" viewBox="0 0 72 72" fill="none">
<g clip-path="url(#clip0_48_161)">
<rect width="72" height="72" rx="36" transform="matrix(-1 0 0 1 72 0)" fill="white"/>
<path d="M91.8204 21.596C89.8792 19.5596 85.2116 15.2374 77.8808 13.5711C76.711 13.3042 65.5924 10.9315 58.1244 16.6825C56.8696 17.6459 54.0952 20.0929 51.3137 23.1073C49.5856 24.9844 48.9751 25.8684 47.3285 27.3816C47.3285 27.3816 44.2305 30.2342 41.0706 31.8929C36.3353 34.3815 27.1994 32.3364 18.0622 26.5437C16.0341 30.7372 13.5497 37.5425 15.8128 43.9128C22.2869 62.1398 65.6645 71.2492 83.5812 51.2225C92.3905 41.3897 92.2728 27.6252 91.8204 21.596Z" fill="#B3D1B3"/>
<path d="M76.1812 34.9007C72.4448 36.5735 66.7555 38.5763 59.594 38.987C53.9867 39.3193 49.6757 39.5649 44.8261 37.1584C37.7911 33.6801 36.7509 29.0946 30.4669 22.6515C28.7642 20.9057 20.9333 14.5968 12.1471 13.762C12.1471 13.762 2.79157 10.7475 -14.9926 24.2975C-14.8761 24.7359 -11.5874 44.867 -6.79998 54.7285C2.93763 74.7987 36.8072 89.2996 58.7017 71.2612C72.397 59.984 75.4434 40.8708 76.1927 34.8992L76.1812 34.9007Z" fill="#3D683B"/>
<path d="M36.3128 19.5594C34.9782 18.6982 33.2472 19.0054 32.448 20.2439C31.6488 21.4825 32.0821 23.1862 33.4167 24.0475C34.7514 24.9087 38.8595 24.3812 38.8595 24.3812C38.8595 24.3812 37.6475 20.4206 36.3128 19.5594Z" fill="#3D683B"/>
<path d="M50.7965 18.3591C52.7331 15.4722 52.2559 11.758 49.7339 10.0662C47.2119 8.37446 43.5943 9.34169 41.6577 12.2287C39.7211 15.1156 40.4306 23.9349 40.4306 23.9349C40.4306 23.9349 48.8599 21.2461 50.7965 18.3591Z" fill="#B3D1B3"/>
</g>
<defs>
<clipPath id="clip0_48_161">
<rect width="72" height="72" rx="36" transform="matrix(-1 0 0 1 72 0)" fill="white"/>
</clipPath>
</defs>
</svg>