<svg xmlns="http://www.w3.org/2000/svg" width="72" height="72" viewBox="0 0 72 72" fill="none">
<g clip-path="url(#clip0_48_149)">
<rect width="72" height="72" rx="36" fill="white"/>
<path d="M-22.1163 31.521C-20.0001 29.4112 -14.9231 24.9408 -7.04954 23.2941C-5.79304 23.0303 6.1457 20.6948 14.0209 26.8325C15.3442 27.8608 18.2637 30.4668 21.1799 33.6683C22.9914 35.6618 23.6271 36.5977 25.3587 38.2083C25.3587 38.2083 28.6164 41.2444 31.9638 43.0286C36.9799 45.7054 46.7917 43.6862 56.6781 37.7348C58.7652 42.163 61.2893 49.3379 58.7441 55.9907C51.4627 75.0257 4.88803 83.9826 -13.8836 62.7211C-23.1134 52.2819 -22.7181 37.841 -22.1163 31.521Z" fill="#B3D1B3"/>
<path d="M5.01 54.4498C8.4 55.2798 13.5 56.1598 19.68 55.7798C24.52 55.4898 28.24 55.2598 32.12 53.1098C37.75 49.9998 38.12 46.6698 42.77 41.5398C44.03 40.1498 50.02 34.9698 57.45 33.5598C57.45 33.5598 65.12 30.5598 81.89 38.4498C81.84 38.7698 81.31 53.2698 78.33 60.6698C72.27 75.7298 44.91 89.1198 24.11 78.4498C11.1 71.7798 6.32 58.5898 5 54.4498H5.01Z" fill="#3D683B"/>
<path d="M32.0604 28.4771C32.7488 26.5569 34.7258 25.5088 36.4736 26.1354C38.2214 26.762 39.0822 28.8275 38.3938 30.7476C37.7054 32.6678 33.1667 35.3596 33.1667 35.3596C33.1667 35.3596 31.372 30.3973 32.0604 28.4771Z" fill="#B3D1B3"/>
</g>
<defs>
<clipPath id="clip0_48_149">
<rect width="72" height="72" rx="36" fill="white"/>
</clipPath>
</defs>
</svg>