<svg xmlns="http://www.w3.org/2000/svg" width="72" height="72" viewBox="0 0 72 72" fill="none">
<g clip-path="url(#clip0_48_138)">
<rect width="72" height="72" rx="36" fill="white"/>
<path d="M-6.88566 76.6845C-13.3588 82.3349 -16.3257 85.7655 -17 86.7745L-6.88566 108.973L67.9605 112C71.8377 104.769 78.2771 90.9118 73.0177 93.3335C66.4433 96.3605 57.3404 93.3335 48.7432 90.3064C40.146 87.2794 40.146 86.7745 31.5488 76.6845C24.6711 68.6124 13.8487 67.6034 9.29729 68.1079C6.60013 68.6124 -0.412476 71.034 -6.88566 76.6845Z" fill="#7FC2C0"/>
<path d="M76.8857 78.6845C83.3588 84.3349 86.3257 87.7655 87 88.7745L76.8857 110.973L2.03951 114C-1.83765 106.769 -8.27711 92.9118 -3.01765 95.3335C3.55667 98.3605 12.6596 95.3335 21.2568 92.3064C29.854 89.2794 29.854 88.7745 38.4512 78.6845C45.3289 70.6124 56.1513 69.6034 60.7027 70.1079C63.3999 70.6124 70.4125 73.034 76.8857 78.6845Z" fill="#7FC2C0"/>
<path d="M-14.6365 69.2648C-13.1075 66.6974 -9.29292 61.1109 -2.07067 57.5691C-0.91838 57.0029 10.0727 51.7889 19.2205 55.7898C20.757 56.4591 24.2301 58.2626 27.847 60.6439C30.0951 62.1278 30.9424 62.8776 33.0184 64.0102C33.0184 64.0102 36.9255 66.1469 40.61 67.0483C46.1321 68.4022 55.1403 64.0205 63.2489 55.8101C66.3658 59.5851 70.585 65.9134 69.7632 72.9889C67.4126 93.233 24.497 113.424 1.05258 97.4619C-10.4712 89.628 -13.6575 75.5375 -14.6365 69.2648Z" fill="#B3D1B3"/>
<path d="M5.08648 61.78C8.15393 63.4449 12.8624 65.593 18.9359 66.7972C23.6905 67.7476 27.3467 68.4713 31.6459 67.3788C37.8817 65.8029 39.0864 62.6764 44.8882 58.8977C46.4603 57.8739 53.5707 54.3876 61.115 54.9136C61.115 54.9136 69.2958 53.9629 83.5078 65.8584C83.378 66.1552 79.1778 80.0436 74.4138 86.4424C64.7229 99.4661 34.8572 105.458 17.4547 89.8484C6.56882 80.089 5.30051 66.117 5.07681 61.7775L5.08648 61.78Z" fill="#3D683B"/>
</g>
<defs>
<clipPath id="clip0_48_138">
<rect width="72" height="72" rx="36" fill="white"/>
</clipPath>
</defs>
</svg>