<svg xmlns="http://www.w3.org/2000/svg" width="72" height="72" viewBox="0 0 72 72" fill="none">
<g clip-path="url(#clip0_48_166)">
<rect width="72" height="72" rx="36" fill="white"/>
<path d="M-8.05544 19.4065C-6.29991 16.9883 -1.99441 11.7707 5.51929 8.8986C6.71818 8.4392 18.1368 4.24359 26.8841 9.05758C28.3535 9.86346 31.6487 11.9745 35.0348 14.6741C37.139 16.3557 37.9149 17.1793 39.8796 18.4955C39.8796 18.4955 43.5768 20.9777 47.1643 22.2096C52.5409 24.0588 61.9094 20.5121 70.7292 13.0709C73.4909 17.113 77.1188 23.798 75.6586 30.7697C71.4817 50.7173 26.9117 66.9328 5.01161 48.9103C-5.75415 40.0635 -7.64944 25.742 -8.05544 19.4065Z" fill="#7FC2C0"/>
<path d="M-67.9805 38.5717C-61.3672 40.7607 -51.4179 43.0816 -39.3617 42.0794C-29.9196 41.3146 -22.6625 40.708 -15.0933 35.0376C-4.11003 26.8353 -3.38821 18.0527 5.68319 4.52284C8.14124 0.856852 19.8268 -12.8049 34.3215 -16.5236C34.3215 -16.5236 49.2844 -24.4358 82 -3.62673C81.9025 -2.78276 80.8685 35.4596 75.055 54.9763C63.2329 94.6956 9.85797 130.01 -30.7195 101.869C-56.0999 84.2779 -65.4249 49.4905 -68 38.5717H-67.9805Z" fill="#3D683B"/>
</g>
<defs>
<clipPath id="clip0_48_166">
<rect width="72" height="72" rx="36" fill="white"/>
</clipPath>
</defs>
</svg>