<svg xmlns="http://www.w3.org/2000/svg" width="72" height="72" viewBox="0 0 72 72" fill="none">
<g clip-path="url(#clip0_48_143)">
<rect width="72" height="72" rx="36" fill="white"/>
<path d="M79.9246 48.6905C78.4621 46.988 74.9416 43.3859 69.3787 42.1134C68.491 41.9095 60.0528 40.1118 54.3366 45.1918C53.3762 46.0429 51.2505 48.196 49.1157 50.8349C47.7894 52.4781 47.3194 53.2476 46.0574 54.5776C46.0574 54.5776 43.6831 57.0847 41.2695 58.571C37.6527 60.8009 30.7197 59.242 23.8106 54.4748C22.2409 58.1074 20.307 63.9853 21.9856 69.3912C26.7879 84.8587 59.7095 91.7462 73.4645 74.2258C80.2274 65.6233 80.2288 53.8425 79.9246 48.6905Z" fill="#B3D1B3"/>
<path d="M63.2926 60.8647C59.9243 61.8492 54.8477 62.9276 48.6598 62.6543C43.8138 62.4485 40.0891 62.2827 36.1562 60.0231C30.4497 56.7549 29.9963 53.1257 25.2189 47.6284C23.9243 46.1389 17.806 40.6178 10.3426 39.248C10.3426 39.248 2.59941 36.1468 -13.9683 45.1507C-13.9103 45.4991 -13.0169 61.3267 -9.8521 69.342C-3.41607 85.6544 24.2725 99.6537 44.7995 87.5205C57.6388 79.9357 62.0868 65.4173 63.3026 60.8645L63.2926 60.8647Z" fill="#3D683B"/>
</g>
<defs>
<clipPath id="clip0_48_143">
<rect width="72" height="72" rx="36" fill="white"/>
</clipPath>
</defs>
</svg>