<svg xmlns="http://www.w3.org/2000/svg" width="72" height="72" viewBox="0 0 72 72" fill="none">
<g clip-path="url(#clip0_48_146)">
<rect width="72" height="72" rx="36" fill="white"/>
<path d="M-21.7115 55.5525C-19.895 53.0793 -15.438 47.729 -7.64146 44.647C-6.39743 44.1541 5.45153 39.6401 14.5522 44.2382C16.081 45.0078 19.5102 47.0386 23.0355 49.6575C25.2263 51.2891 26.0347 52.0949 28.0794 53.3634C28.0794 53.3634 31.9273 55.756 35.6576 56.8967C41.2481 58.6093 50.9693 54.8011 60.1092 47.0994C62.9899 51.0821 66.7782 57.6939 65.282 64.7288C61.002 84.8571 14.7518 102.315 -8.05066 84.8117C-19.26 76.2204 -21.271 61.8994 -21.7115 55.5525Z" fill="#B3D1B3"/>
<path d="M6.01 60.4498C9.4 61.2798 14.5 62.1598 20.68 61.7798C25.52 61.4898 29.24 61.2598 33.12 59.1098C38.75 55.9998 39.12 52.6698 43.77 47.5398C45.03 46.1498 51.02 40.9698 58.45 39.5598C58.45 39.5598 66.12 36.5598 82.89 44.4498C82.84 44.7698 82.31 59.2698 79.33 66.6698C73.27 81.7298 45.91 95.1198 25.11 84.4498C12.1 77.7798 7.32 64.5898 6 60.4498H6.01Z" fill="#3D683B"/>
</g>
<defs>
<clipPath id="clip0_48_146">
<rect width="72" height="72" rx="36" fill="white"/>
</clipPath>
</defs>
</svg>