<svg xmlns="http://www.w3.org/2000/svg" width="29" height="18" viewBox="0 0 29 18" fill="none">
  <path d="M9.22727 7.71429C11.4155 7.71429 13.1686 5.99143 13.1686 3.85714C13.1686 1.72286 11.4155 0 9.22727 0C7.03909 0 5.27273 1.72286 5.27273 3.85714C5.27273 5.99143 7.03909 7.71429 9.22727 7.71429ZM9.22727 10.2857C6.15591 10.2857 0 11.79 0 14.7857V18H18.4545V14.7857C18.4545 11.79 12.2986 10.2857 9.22727 10.2857Z" fill="#386937"/>
  <path d="M19.0909 7.71429C21.2791 7.71429 23.0323 5.99143 23.0323 3.85714C23.0323 1.72286 21.2791 0 19.0909 0C16.9027 0 15.1364 1.72286 15.1364 3.85714C15.1364 5.99143 16.9027 7.71429 19.0909 7.71429ZM19.0909 10.2857C18.7086 10.2857 18.2736 10.3114 17.8123 10.35C19.3414 11.43 20.4091 12.8829 20.4091 14.7857V18H28.3182V14.7857C28.3182 11.79 22.1623 10.2857 19.0909 10.2857Z" fill="#C3D2C3"/>
</svg>