<svg xmlns="http://www.w3.org/2000/svg" width="30" height="30" viewBox="0 0 30 30" fill="none">
  <path d="M7.33334 25C6.95556 25 6.63912 24.872 6.384 24.616C6.12889 24.36 6.00089 24.0435 6 23.6666C5.99912 23.2898 6.12712 22.9733 6.384 22.7173C6.64089 22.4613 6.95734 22.3333 7.33334 22.3333H28.6667C29.0444 22.3333 29.3613 22.4613 29.6173 22.7173C29.8733 22.9733 30.0009 23.2898 30 23.6666C29.9991 24.0435 29.8711 24.3604 29.616 24.6173C29.3609 24.8742 29.0444 25.0018 28.6667 25H7.33334ZM7.33334 18.3333C6.95556 18.3333 6.63912 18.2053 6.384 17.9493C6.12889 17.6933 6.00089 17.3769 6 17C5.99912 16.6231 6.12712 16.3067 6.384 16.0507C6.64089 15.7947 6.95734 15.6667 7.33334 15.6667H28.6667C29.0444 15.6667 29.3613 15.7947 29.6173 16.0507C29.8733 16.3067 30.0009 16.6231 30 17C29.9991 17.3769 29.8711 17.6938 29.616 17.9507C29.3609 18.2075 29.0444 18.3351 28.6667 18.3333H7.33334ZM7.33334 11.6667C6.95556 11.6667 6.63912 11.5387 6.384 11.2827C6.12889 11.0267 6.00089 10.7102 6 10.3333C5.99912 9.95644 6.12712 9.64 6.384 9.384C6.64089 9.128 6.95734 9 7.33334 9H28.6667C29.0444 9 29.3613 9.128 29.6173 9.384C29.8733 9.64 30.0009 9.95644 30 10.3333C29.9991 10.7102 29.8711 11.0271 29.616 11.284C29.3609 11.5409 29.0444 11.6684 28.6667 11.6667H7.33334Z" fill="#222222"/>
</svg>