<svg xmlns="http://www.w3.org/2000/svg" width="26" height="26" viewBox="0 0 26 26" fill="none">
  <path d="M10.1888 17.6636H11.3425L18.7525 10.2536L17.5988 9.09985L10.7738 15.9411L7.65375 12.8211L6.5 13.9749L10.1888 17.6636Z" fill="#2B7DFF"/>
  <path fill-rule="evenodd" clip-rule="evenodd" d="M13.975 1.62496C16.575 1.78746 19.0125 3.08746 20.8 4.87496C22.9125 7.14996 24.05 9.91246 24.05 13.1625C24.05 15.7625 23.075 18.2 21.45 20.3125C19.825 22.2625 17.55 23.725 14.95 24.2125C12.35 24.7 9.75001 24.375 7.47501 23.075C5.20001 21.775 3.41251 19.825 2.43751 17.3875C1.46251 14.95 1.30001 12.1875 2.11251 9.74996C2.92501 7.14996 4.38751 5.03746 6.66251 3.57496C8.77501 2.11246 11.375 1.46246 13.975 1.62496ZM14.7875 22.5875C16.9 22.1 18.85 20.9625 20.3125 19.175C21.6125 17.3875 22.425 15.275 22.2625 13C22.2625 10.4 21.2875 7.79996 19.5 6.01246C17.875 4.38746 15.925 3.41246 13.65 3.24996C11.5375 3.08746 9.26251 3.57496 7.47501 4.87496C5.68751 6.17496 4.38751 7.96246 3.73751 10.2375C3.08751 12.35 3.08751 14.625 4.06251 16.7375C5.03751 18.85 6.50001 20.475 8.45001 21.6125C10.4 22.75 12.675 23.075 14.7875 22.5875Z" fill="#2B7DFF"/>
</svg>