<svg xmlns="http://www.w3.org/2000/svg" width="25" height="25" viewBox="0 0 25 25" fill="none">
<path d="M15.8 9.325L14.725 8.25C14.625 8.15 14.5083 8.10433 14.375 8.113C14.2417 8.12167 14.125 8.17567 14.025 8.275C13.925 8.37433 13.875 8.491 13.875 8.625C13.875 8.759 13.925 8.87567 14.025 8.975L15.1 10.05C15.3 10.25 15.5333 10.35 15.8 10.35C16.0667 10.35 16.3 10.25 16.5 10.05L18.975 7.55C19.075 7.45 19.125 7.33333 19.125 7.2C19.125 7.06667 19.075 6.95 18.975 6.85C18.875 6.75 18.7583 6.7 18.625 6.7C18.4917 6.7 18.375 6.75 18.275 6.85L15.8 9.325ZM4.5 20.5C4.21667 20.5 3.97934 20.404 3.788 20.212C3.59667 20.02 3.50067 19.7827 3.5 19.5C3.49934 19.2173 3.59534 18.98 3.788 18.788C3.98067 18.596 4.218 18.5 4.5 18.5H14.5C14.7833 18.5 15.021 18.596 15.213 18.788C15.405 18.98 15.5007 19.2173 15.5 19.5C15.4993 19.7827 15.4033 20.0203 15.212 20.213C15.0207 20.4057 14.7833 20.5013 14.5 20.5H4.5ZM16.5 13.5C15.1167 13.5 13.9377 13.0123 12.963 12.037C11.9883 11.0617 11.5007 9.88267 11.5 8.5C11.4993 7.11733 11.987 5.93833 12.963 4.963C13.939 3.98767 15.118 3.5 16.5 3.5C17.882 3.5 19.0613 3.98767 20.038 4.963C21.0147 5.93833 21.502 7.11733 21.5 8.5C21.498 9.88267 21.0103 11.062 20.037 12.038C19.0637 13.014 17.8847 13.5013 16.5 13.5ZM4.5 12.5C4.21667 12.5 3.97934 12.404 3.788 12.212C3.59667 12.02 3.50067 11.7827 3.5 11.5C3.49934 11.2173 3.59534 10.98 3.788 10.788C3.98067 10.596 4.218 10.5 4.5 10.5H9.175C9.45834 10.5 9.696 10.596 9.888 10.788C10.08 10.98 10.1757 11.2173 10.175 11.5C10.175 11.7667 10.079 12 9.887 12.2C9.695 12.4 9.45767 12.5 9.175 12.5H4.5ZM4.5 16.5C4.21667 16.5 3.97934 16.404 3.788 16.212C3.59667 16.02 3.50067 15.7827 3.5 15.5C3.49934 15.2173 3.59534 14.98 3.788 14.788C3.98067 14.596 4.218 14.5 4.5 14.5H12.425C12.7083 14.5 12.946 14.596 13.138 14.788C13.33 14.98 13.4257 15.2173 13.425 15.5C13.425 15.7667 13.3333 16 13.15 16.2C12.9667 16.4 12.725 16.5 12.425 16.5H4.5Z" fill="#363636"/>
</svg>