<svg xmlns="http://www.w3.org/2000/svg" width="401" height="130" viewBox="0 0 401 130" fill="none">
<rect x="0.5" y="0.5" width="400" height="129" rx="11.5" stroke="#B8B9BC" stroke-dasharray="4 4"/>
<g clip-path="url(#clip0_4184_3475)">
<path d="M204.5 45V38C204.5 36.8954 203.605 36 202.5 36H190.328C189.798 36 189.289 36.2107 188.914 36.5858L187 38.5L185.086 40.4142C184.711 40.7893 184.5 41.298 184.5 41.8284V58C184.5 59.1046 185.395 60 186.5 60H190.5" stroke="#66686F" stroke-width="1.5" stroke-linecap="round"/>
<path d="M194.5 53V42M194.5 42L190.5 46M194.5 42L198.5 46" stroke="#66686F" stroke-width="1.5" stroke-linecap="round" stroke-linejoin="round"/>
<path d="M202.647 63.7175L209.364 57C211.122 55.2426 211.122 52.3934 209.364 50.636V50.636C207.607 48.8786 204.758 48.8786 203 50.636L195.576 58.0606C194.404 59.2322 194.404 61.1317 195.576 62.3033V62.3033C196.747 63.4748 198.647 63.4748 199.818 62.3033L206.536 55.5857C207.122 55 207.122 54.0502 206.536 53.4644V53.4644C205.95 52.8786 205 52.8786 204.415 53.4644L198.404 59.4748" stroke="#66686F" stroke-width="1.5" stroke-linecap="round" stroke-linejoin="round"/>
</g>
<path d="M107.732 75.24H113.78V76.056H107.732V75.24ZM107.588 82.248L107.468 81.408C108.116 81.408 108.824 81.404 109.592 81.396C110.36 81.38 111.148 81.352 111.956 81.312C112.764 81.264 113.536 81.196 114.272 81.108L114.332 81.852C113.58 81.972 112.804 82.06 112.004 82.116C111.204 82.172 110.424 82.208 109.664 82.224C108.912 82.24 108.22 82.248 107.588 82.248ZM108.896 75.864H109.868V81.636H108.896V75.864ZM111.644 75.864H112.604V81.636H111.644V75.864ZM114.944 74.076H115.94V84.936H114.944V74.076ZM115.712 78.42H117.716V79.248H115.712V78.42ZM121.447 74.472C121.991 74.472 122.471 74.576 122.887 74.784C123.311 74.984 123.643 75.264 123.883 75.624C124.123 75.984 124.243 76.404 124.243 76.884C124.243 77.356 124.123 77.776 123.883 78.144C123.643 78.504 123.311 78.784 122.887 78.984C122.471 79.184 121.991 79.284 121.447 79.284C120.911 79.284 120.431 79.184 120.007 78.984C119.583 78.784 119.247 78.504 118.999 78.144C118.759 77.776 118.639 77.356 118.639 76.884C118.639 76.404 118.759 75.984 118.999 75.624C119.247 75.264 119.583 74.984 120.007 74.784C120.431 74.576 120.911 74.472 121.447 74.472ZM121.447 75.3C121.095 75.3 120.779 75.368 120.499 75.504C120.227 75.632 120.011 75.816 119.851 76.056C119.691 76.296 119.611 76.572 119.611 76.884C119.611 77.196 119.691 77.472 119.851 77.712C120.011 77.944 120.227 78.128 120.499 78.264C120.779 78.4 121.095 78.468 121.447 78.468C121.799 78.468 122.111 78.4 122.383 78.264C122.663 78.128 122.883 77.944 123.043 77.712C123.203 77.472 123.283 77.196 123.283 76.884C123.283 76.572 123.203 76.296 123.043 76.056C122.883 75.816 122.663 75.632 122.383 75.504C122.111 75.368 121.799 75.3 121.447 75.3ZM126.295 74.076H127.291V79.632H126.295V74.076ZM120.271 80.172H127.291V82.8H121.267V84.432H120.307V82.056H126.307V80.964H120.271V80.172ZM120.307 83.988H127.663V84.792H120.307V83.988ZM134.094 74.268C135.294 74.268 136.23 74.432 136.902 74.76C137.574 75.08 137.91 75.54 137.91 76.14C137.91 76.748 137.574 77.216 136.902 77.544C136.23 77.864 135.294 78.024 134.094 78.024C132.902 78.024 131.966 77.864 131.286 77.544C130.614 77.216 130.278 76.748 130.278 76.14C130.278 75.54 130.614 75.08 131.286 74.76C131.966 74.432 132.902 74.268 134.094 74.268ZM134.094 75.012C133.51 75.012 133.01 75.056 132.594 75.144C132.178 75.232 131.858 75.36 131.634 75.528C131.418 75.696 131.31 75.9 131.31 76.14C131.31 76.38 131.418 76.588 131.634 76.764C131.858 76.932 132.178 77.06 132.594 77.148C133.01 77.228 133.51 77.268 134.094 77.268C134.686 77.268 135.19 77.228 135.606 77.148C136.022 77.06 136.338 76.932 136.554 76.764C136.778 76.588 136.89 76.38 136.89 76.14C136.89 75.9 136.778 75.696 136.554 75.528C136.338 75.36 136.022 75.232 135.606 75.144C135.19 75.056 134.686 75.012 134.094 75.012ZM129.198 78.756H139.002V79.56H129.198V78.756ZM130.386 80.484H137.742V82.932H131.382V84.24H130.41V82.2H136.77V81.252H130.386V80.484ZM130.41 84.036H138.066V84.816H130.41V84.036ZM144.122 79.284H151.574V80.1H144.122V79.284ZM142.874 82.632H152.714V83.46H142.874V82.632ZM144.122 75.084H151.466V75.9H145.106V79.644H144.122V75.084ZM154.033 81.504H154.741C155.405 81.504 156.053 81.488 156.685 81.456C157.317 81.416 157.997 81.336 158.725 81.216L158.821 82.032C158.069 82.168 157.369 82.256 156.721 82.296C156.081 82.328 155.421 82.344 154.741 82.344H154.033V81.504ZM154.009 75.252H158.065V79.068H154.993V81.816H154.033V78.252H157.105V76.08H154.009V75.252ZM161.929 74.076H162.877V84.936H161.929V74.076ZM160.093 78.36H162.181V79.176H160.093V78.36ZM159.469 74.316H160.393V84.372H159.469V74.316ZM165.541 75.228H172.525V76.044H165.541V75.228ZM164.473 82.524H174.277V83.352H164.473V82.524ZM171.985 75.228H172.969V76.32C172.969 76.776 172.961 77.264 172.945 77.784C172.937 78.296 172.905 78.864 172.849 79.488C172.793 80.112 172.697 80.816 172.561 81.6L171.553 81.492C171.697 80.756 171.797 80.08 171.853 79.464C171.917 78.848 171.953 78.28 171.961 77.76C171.977 77.24 171.985 76.76 171.985 76.32V75.228ZM182.628 74.076H183.612V84.936H182.628V74.076ZM183.384 78.54H185.388V79.38H183.384V78.54ZM175.212 75.816H181.608V76.632H175.212V75.816ZM178.464 77.52C178.976 77.52 179.428 77.628 179.82 77.844C180.22 78.06 180.532 78.356 180.756 78.732C180.988 79.1 181.104 79.528 181.104 80.016C181.104 80.504 180.988 80.936 180.756 81.312C180.532 81.688 180.22 81.984 179.82 82.2C179.428 82.408 178.976 82.512 178.464 82.512C177.952 82.512 177.496 82.408 177.096 82.2C176.704 81.984 176.392 81.688 176.16 81.312C175.928 80.936 175.812 80.504 175.812 80.016C175.812 79.528 175.928 79.1 176.16 78.732C176.392 78.356 176.704 78.06 177.096 77.844C177.496 77.628 177.952 77.52 178.464 77.52ZM178.464 78.348C178.136 78.348 177.844 78.42 177.588 78.564C177.332 78.708 177.128 78.904 176.976 79.152C176.832 79.4 176.76 79.688 176.76 80.016C176.76 80.344 176.832 80.636 176.976 80.892C177.128 81.14 177.332 81.336 177.588 81.48C177.844 81.616 178.136 81.684 178.464 81.684C178.784 81.684 179.072 81.616 179.328 81.48C179.584 81.336 179.784 81.14 179.928 80.892C180.08 80.636 180.156 80.344 180.156 80.016C180.156 79.688 180.08 79.4 179.928 79.152C179.784 78.904 179.584 78.708 179.328 78.564C179.072 78.42 178.784 78.348 178.464 78.348ZM177.948 74.208H178.944V76.176H177.948V74.208ZM194.003 74.076H194.987V84.936H194.003V74.076ZM191.471 78.432H194.447V79.26H191.471V78.432ZM190.523 75.252H191.495C191.495 76.02 191.407 76.768 191.231 77.496C191.063 78.216 190.787 78.9 190.403 79.548C190.027 80.196 189.527 80.8 188.903 81.36C188.279 81.92 187.515 82.424 186.611 82.872L186.059 82.092C186.851 81.708 187.527 81.276 188.087 80.796C188.655 80.316 189.119 79.796 189.479 79.236C189.839 78.668 190.103 78.068 190.271 77.436C190.439 76.796 190.523 76.12 190.523 75.408V75.252ZM186.539 75.252H191.039V76.056H186.539V75.252ZM204.946 78.408H206.938V79.236H204.946V78.408ZM204.214 74.076H205.21V84.924H204.214V74.076ZM197.302 75.144H198.286V81.864H197.302V75.144ZM197.302 81.348H198.166C198.958 81.348 199.77 81.312 200.602 81.24C201.442 81.168 202.31 81.04 203.206 80.856L203.326 81.696C202.398 81.88 201.51 82.008 200.662 82.08C199.822 82.144 198.99 82.176 198.166 82.176H197.302V81.348ZM215.994 76.668H218.91V77.484H215.994V76.668ZM213.51 74.58C214.046 74.58 214.522 74.688 214.938 74.904C215.362 75.112 215.694 75.404 215.934 75.78C216.174 76.156 216.294 76.592 216.294 77.088C216.294 77.584 216.174 78.024 215.934 78.408C215.694 78.784 215.362 79.08 214.938 79.296C214.522 79.504 214.046 79.608 213.51 79.608C212.966 79.608 212.482 79.504 212.058 79.296C211.642 79.08 211.314 78.784 211.074 78.408C210.834 78.024 210.714 77.584 210.714 77.088C210.714 76.592 210.834 76.156 211.074 75.78C211.314 75.404 211.642 75.112 212.058 74.904C212.482 74.688 212.966 74.58 213.51 74.58ZM213.51 75.42C213.15 75.42 212.83 75.492 212.55 75.636C212.278 75.772 212.062 75.968 211.902 76.224C211.742 76.472 211.662 76.76 211.662 77.088C211.662 77.416 211.742 77.708 211.902 77.964C212.062 78.212 212.278 78.408 212.55 78.552C212.83 78.696 213.15 78.768 213.51 78.768C213.862 78.768 214.174 78.696 214.446 78.552C214.726 78.408 214.946 78.212 215.106 77.964C215.266 77.708 215.346 77.416 215.346 77.088C215.346 76.76 215.266 76.472 215.106 76.224C214.946 75.968 214.726 75.772 214.446 75.636C214.174 75.492 213.862 75.42 213.51 75.42ZM218.478 74.076H219.474V79.908H218.478V74.076ZM212.526 80.448H213.51V81.804H218.478V80.448H219.474V84.792H212.526V80.448ZM213.51 82.596V83.976H218.478V82.596H213.51ZM221.345 82.764H231.185V83.592H221.345V82.764ZM225.749 80.448H226.733V83.112H225.749V80.448ZM222.545 74.88H229.961V78.168H223.553V80.34H222.569V77.376H228.977V75.696H222.545V74.88ZM222.569 79.92H230.213V80.736H222.569V79.92ZM233.392 79.284H240.844V80.1H233.392V79.284ZM232.144 82.632H241.984V83.46H232.144V82.632ZM233.392 75.084H240.736V75.9H234.376V79.644H233.392V75.084ZM242.919 75.936H248.307V76.752H242.919V75.936ZM245.619 77.472C246.075 77.472 246.475 77.576 246.819 77.784C247.171 77.992 247.447 78.284 247.647 78.66C247.847 79.028 247.947 79.456 247.947 79.944C247.947 80.432 247.847 80.864 247.647 81.24C247.447 81.608 247.171 81.9 246.819 82.116C246.475 82.324 246.075 82.428 245.619 82.428C245.171 82.428 244.771 82.324 244.419 82.116C244.067 81.9 243.791 81.608 243.591 81.24C243.391 80.864 243.291 80.432 243.291 79.944C243.291 79.456 243.391 79.028 243.591 78.66C243.791 78.292 244.067 78.004 244.419 77.796C244.771 77.58 245.171 77.472 245.619 77.472ZM245.619 78.312C245.347 78.312 245.099 78.384 244.875 78.528C244.659 78.664 244.487 78.856 244.359 79.104C244.239 79.344 244.179 79.624 244.179 79.944C244.179 80.264 244.239 80.548 244.359 80.796C244.487 81.044 244.659 81.236 244.875 81.372C245.099 81.508 245.347 81.576 245.619 81.576C245.899 81.576 246.147 81.508 246.363 81.372C246.579 81.236 246.747 81.044 246.867 80.796C246.995 80.548 247.059 80.264 247.059 79.944C247.059 79.624 246.995 79.344 246.867 79.104C246.747 78.856 246.579 78.664 246.363 78.528C246.147 78.384 245.899 78.312 245.619 78.312ZM251.175 74.076H252.123V84.936H251.175V74.076ZM249.435 78.648H251.487V79.464H249.435V78.648ZM248.847 74.328H249.783V84.408H248.847V74.328ZM245.127 74.4H246.111V76.428H245.127V74.4ZM258.086 75.156H258.95V75.612C258.95 75.996 258.874 76.36 258.722 76.704C258.57 77.048 258.358 77.368 258.086 77.664C257.814 77.952 257.498 78.208 257.138 78.432C256.778 78.656 256.39 78.848 255.974 79.008C255.566 79.16 255.142 79.272 254.702 79.344L254.318 78.552C254.702 78.504 255.074 78.416 255.434 78.288C255.802 78.152 256.146 77.992 256.466 77.808C256.786 77.624 257.066 77.416 257.306 77.184C257.554 76.952 257.746 76.704 257.882 76.44C258.018 76.168 258.086 75.892 258.086 75.612V75.156ZM258.338 75.156H259.202V75.612C259.202 75.892 259.27 76.168 259.406 76.44C259.542 76.704 259.73 76.952 259.97 77.184C260.218 77.416 260.502 77.624 260.822 77.808C261.142 77.992 261.482 78.152 261.842 78.288C262.21 78.416 262.586 78.504 262.97 78.552L262.598 79.344C262.158 79.272 261.73 79.16 261.314 79.008C260.898 78.848 260.51 78.656 260.15 78.432C259.79 78.208 259.474 77.952 259.202 77.664C258.93 77.368 258.718 77.048 258.566 76.704C258.414 76.36 258.338 75.996 258.338 75.612V75.156ZM258.134 80.796H259.118V84.924H258.134V80.796ZM253.742 80.256H263.546V81.072H253.742V80.256ZM254.666 74.748H262.61V75.552H254.666V74.748ZM268.813 77.964H270.901V78.792H268.813V77.964ZM266.797 75.096H267.577V77.172C267.577 77.732 267.517 78.284 267.397 78.828C267.285 79.372 267.117 79.884 266.893 80.364C266.677 80.844 266.413 81.276 266.101 81.66C265.789 82.044 265.437 82.356 265.045 82.596L264.421 81.852C264.789 81.628 265.121 81.348 265.417 81.012C265.713 80.676 265.961 80.3 266.161 79.884C266.369 79.46 266.525 79.02 266.629 78.564C266.741 78.1 266.797 77.636 266.797 77.172V75.096ZM266.989 75.096H267.757V77.136C267.757 77.568 267.805 78.004 267.901 78.444C268.005 78.876 268.149 79.292 268.333 79.692C268.525 80.084 268.761 80.444 269.041 80.772C269.321 81.1 269.637 81.372 269.989 81.588L269.425 82.356C269.033 82.116 268.685 81.812 268.381 81.444C268.077 81.068 267.821 80.648 267.613 80.184C267.405 79.712 267.249 79.216 267.145 78.696C267.041 78.176 266.989 77.656 266.989 77.136V75.096ZM272.809 74.076H273.769V84.936H272.809V74.076ZM270.601 74.304H271.537V84.384H270.601V74.304ZM277.752 79.668H278.736V82.908H277.752V79.668ZM281.76 79.668H282.756V82.908H281.76V79.668ZM275.34 82.716H285.18V83.544H275.34V82.716ZM280.236 74.76C281.004 74.76 281.684 74.876 282.276 75.108C282.868 75.34 283.332 75.664 283.668 76.08C284.012 76.496 284.184 76.988 284.184 77.556C284.184 78.116 284.012 78.608 283.668 79.032C283.332 79.448 282.868 79.772 282.276 80.004C281.684 80.228 281.004 80.34 280.236 80.34C279.476 80.34 278.796 80.228 278.196 80.004C277.604 79.772 277.14 79.448 276.804 79.032C276.468 78.608 276.3 78.116 276.3 77.556C276.3 76.988 276.468 76.496 276.804 76.08C277.14 75.664 277.604 75.34 278.196 75.108C278.796 74.876 279.476 74.76 280.236 74.76ZM280.236 75.552C279.66 75.552 279.148 75.636 278.7 75.804C278.252 75.972 277.9 76.208 277.644 76.512C277.388 76.808 277.26 77.156 277.26 77.556C277.26 77.956 277.388 78.308 277.644 78.612C277.9 78.908 278.252 79.14 278.7 79.308C279.148 79.476 279.66 79.56 280.236 79.56C280.82 79.56 281.336 79.476 281.784 79.308C282.232 79.14 282.584 78.908 282.84 78.612C283.096 78.308 283.224 77.956 283.224 77.556C283.224 77.156 283.096 76.808 282.84 76.512C282.584 76.208 282.232 75.972 281.784 75.804C281.336 75.636 280.82 75.552 280.236 75.552Z" fill="#96989C"/>
<defs>
<clipPath id="clip0_4184_3475">
<rect width="32" height="32" fill="white" transform="translate(180.5 34)"/>
</clipPath>
</defs>
</svg>