<svg xmlns="http://www.w3.org/2000/svg" width="28" height="18" viewBox="0 0 28 18" fill="none">
<path fill-rule="evenodd" clip-rule="evenodd" d="M19.5507 12.0417V13.7292C19.5507 15.5855 18.0404 17.1042 16.1757 17.1042H4.36319C2.50694 17.1042 0.98819 15.5939 0.98819 13.7292V3.60425C0.98819 1.748 2.4985 0.229248 4.36319 0.229248H16.1757C18.0319 0.229248 19.5507 1.73956 19.5507 3.60425V5.29175L22.4363 2.40612C22.7527 2.08963 23.1819 1.91178 23.6294 1.91169H26.3125C26.7601 1.91169 27.1893 2.08948 27.5057 2.40594C27.8222 2.72241 28 3.15163 28 3.59919V13.7242C28 14.1717 27.8222 14.601 27.5057 14.9174C27.1893 15.2339 26.7601 15.4117 26.3125 15.4117H23.6294C23.1819 15.4116 22.7527 15.2337 22.4363 14.9172L19.5507 12.0316V12.0417ZM4.36319 1.91675H16.1757C16.6232 1.91675 17.0525 2.09454 17.3689 2.41101C17.6854 2.72747 17.8632 3.1567 17.8632 3.60425V13.7292C17.8632 14.1768 17.6854 14.606 17.3689 14.9225C17.0525 15.239 16.6232 15.4167 16.1757 15.4167H4.36319C3.91564 15.4167 3.48641 15.239 3.16995 14.9225C2.85348 14.606 2.67569 14.1768 2.67569 13.7292V3.60425C2.67569 3.1567 2.85348 2.72747 3.16995 2.41101C3.48641 2.09454 3.91564 1.91675 4.36319 1.91675ZM19.5507 9.66237L23.6176 13.7292H26.3007V3.60425H23.6176L19.5507 7.67112V9.6455V9.66237Z" fill="black"/>
</svg>